<svg xmlns="http://www.w3.org/2000/svg" xmlns:xlink="http://www.w3.org/1999/xlink" viewBox="0 0 500 500"><defs><clipPath id="freepik--clip-path--inject-37"><path d="M235.65,218a.14.14,0,0,0,0,.06c-5.65,20.34-13,59.06-13,59.06-36.17,7.63-74.32,0-74.32,0-.21-8.44.82-19.57,2-31.27-5.93-1.64-10.21-7.11-10.45-16.21-.28-11,1.72-30.86,2.83-40.12,1-8.15.28-13,12.91-19.18,6.33-3.65,16.83-5.38,29.76-7.1a142.36,142.36,0,0,1,39,.23c9.07,1.36,15.18,7.26,16.28,16C242.23,192.6,239.77,204.67,235.65,218Z" style="fill:#92E3A9;stroke:#263238;stroke-linecap:round;stroke-linejoin:round"></path></clipPath><clipPath id="freepik--clip-path-2--inject-37"><path d="M229.27,152.09s4.74-19.21-4.3-28.44-18.84-11.12-26.18-6.59-10.36,15.82-9.23,21.66.58,26.75,10.65,35.42,16.27,6.52,22.93-5.28C227.51,161.1,229.61,158.88,229.27,152.09Z" style="fill:#fff;stroke:#263238;stroke-linecap:round;stroke-linejoin:round"></path></clipPath><clipPath id="freepik--clip-path-3--inject-37"><rect x="88.37" y="255.15" width="97.7" height="11" transform="translate(274.43 521.3) rotate(180)" style="fill:#92E3A9;stroke:#263238;stroke-linecap:round;stroke-linejoin:round"></rect></clipPath><clipPath id="freepik--clip-path-4--inject-37"><path d="M262.5,46.3a35.08,35.08,0,0,0-35.08,35.08h70.16A35.09,35.09,0,0,0,262.5,46.3Z" style="fill:#fff;stroke:#263238;stroke-linecap:round;stroke-linejoin:round"></path></clipPath></defs><g id="freepik--background-simple--inject-37"><path d="M147.87,34.75c98.53-19.14,166,58.88,190.6,86l74.08,81.72c22.43,24.75,45.48,50.61,52.91,81,9.22,37.71,3.92,102.79-27.56,131s-75.68,45-121.12,52.16-92.3,5-138.1-.24c-26.5-3-53.12-7.23-77.47-16.45S54.75,426,42.68,406.16c-14.51-23.86-13.11-52.28-6.93-78.52s16.76-51.83,19.68-78.46C58,226.1,9.89,61.57,147.87,34.75Z" style="fill:#92E3A9"></path><path d="M147.87,34.75c98.53-19.14,166,58.88,190.6,86l74.08,81.72c22.43,24.75,45.48,50.61,52.91,81,9.22,37.71,3.92,102.79-27.56,131s-75.68,45-121.12,52.16-92.3,5-138.1-.24c-26.5-3-53.12-7.23-77.47-16.45S54.75,426,42.68,406.16c-14.51-23.86-13.11-52.28-6.93-78.52s16.76-51.83,19.68-78.46C58,226.1,9.89,61.57,147.87,34.75Z" style="fill:#fff;opacity:0.7000000000000001"></path></g><g id="freepik--Floor--inject-37"><line x1="465.93" y1="445.34" x2="36.4" y2="445.34" style="fill:none;stroke:#263238;stroke-linecap:round;stroke-linejoin:round"></line></g><g id="freepik--Cubicle--inject-37"><g id="freepik--layer-14--inject-37"><path d="M423.69,445.34V61.3H305.83a110.21,110.21,0,0,1-53.1,86.5l-1.57.94v296.6Z" style="fill:none;stroke:#263238;stroke-linecap:round;stroke-linejoin:round"></path></g></g><g id="freepik--Tasks--inject-37"><g style="opacity:0.2"><path d="M315.5,89.28a13.15,13.15,0,0,1-1.31,4.44c-.76,1.68-.86,3.32-1.94,4.91,5.08.26,8.91.64,10.83.39,2.14-3,2.23-7.33,1.76-10.69-3,.91-6.67,0-9.79.76Z"></path></g><path d="M315.6,88a13.52,13.52,0,0,1-1.86,4.29,34.89,34.89,0,0,1-3.38,4.64,57.52,57.52,0,0,0,10.87.47,12.77,12.77,0,0,0,3.61-9.07C321.22,88.22,315.6,88,315.6,88Z" style="fill:#fff"></path><g style="opacity:0.2"><path d="M299.62,102.05a13.22,13.22,0,0,1-1.31,4.44c-.76,1.67-.34,3.31-1.42,4.9,5.08.27,8.91.65,10.84.4,2.13-3,1.7-7.33,1.23-10.69-3,.9-6.67,0-9.79.76Z"></path></g><path d="M299.72,100.76a13.66,13.66,0,0,1-1.86,4.3,34.89,34.89,0,0,1-3.38,4.64,58.41,58.41,0,0,0,10.87.47A12.81,12.81,0,0,0,309,101.1C305.34,101,299.72,100.76,299.72,100.76Z" style="fill:#fff"></path><g style="opacity:0.2"><path d="M332.3,88.47A13.22,13.22,0,0,1,331,92.91c-.76,1.67-.92,3.31-2,4.9,5.09.27,8.92.65,10.84.4,2.14-3,2.29-7.33,1.83-10.69-3,.9-6.68,0-9.8.76Z"></path></g><path d="M332.4,87.18a13.66,13.66,0,0,1-1.86,4.3,34.89,34.89,0,0,1-3.38,4.64,58.41,58.41,0,0,0,10.87.47,12.86,12.86,0,0,0,3.62-9.07C338,87.41,332.4,87.18,332.4,87.18Z" style="fill:#92E3A9"></path><g style="opacity:0.2"><path d="M394.35,172.94a13.22,13.22,0,0,1-1.31,4.44c-.76,1.67-.92,3.31-2,4.9,5.08.26,8.91.65,10.83.4,2.14-3,2.29-7.34,1.83-10.69-3,.9-6.67,0-9.8.75Z"></path></g><path d="M394.45,171.65a13.66,13.66,0,0,1-1.86,4.3,34.17,34.17,0,0,1-3.38,4.63,58.75,58.75,0,0,0,10.88.48A12.89,12.89,0,0,0,403.7,172C400.07,171.88,394.45,171.65,394.45,171.65Z" style="fill:#92E3A9"></path><g style="opacity:0.2"><path d="M374.55,176.17a13.15,13.15,0,0,1-1.31,4.44c-.77,1.68-.93,3.32-2,4.91,5.08.26,8.91.64,10.84.39,2.13-3,2.29-7.33,1.82-10.69-3,.9-6.67,0-9.8.76Z"></path></g><path d="M374.65,174.89a13.64,13.64,0,0,1-1.87,4.29,34.89,34.89,0,0,1-3.38,4.64,58.49,58.49,0,0,0,10.88.47,12.82,12.82,0,0,0,3.61-9.07C380.27,175.11,374.65,174.89,374.65,174.89Z" style="fill:#92E3A9"></path><g style="opacity:0.2"><path d="M356.78,173.1a13.09,13.09,0,0,1-1.31,4.44c-.76,1.68-.92,3.32-2,4.91,5.08.26,8.91.64,10.83.39,2.14-3,2.29-7.33,1.83-10.69-3,.91-6.67,0-9.8.76Z"></path></g><path d="M356.88,171.82a13.66,13.66,0,0,1-1.86,4.3,35.46,35.46,0,0,1-3.38,4.63,58.75,58.75,0,0,0,10.88.48,12.9,12.9,0,0,0,3.61-9.08C362.51,172,356.88,171.82,356.88,171.82Z" style="fill:#fff"></path><rect x="345.77" y="79.38" width="58.24" height="85.62" style="fill:#263238"></rect><path d="M401.65,163.93h-59.2l2.87-34a171.4,171.4,0,0,0,.58-17.7l-.67-33.94h57.94l.27,41.63c0,3.36,0,6.72-.2,10.07Z" style="fill:#fff;stroke:#263238;stroke-linecap:round;stroke-linejoin:round"></path><path d="M399.19,162.77H339.36l1.83-9.52c3.91-23.3,4.88-33.62,4.34-63.81l-.62-12.29h56.75l.67,11.61C403.77,139.28,399.19,162.77,399.19,162.77Z" style="fill:#fff;stroke:#263238;stroke-linecap:round;stroke-linejoin:round"></path><path d="M348.27,81.47a1.55,1.55,0,0,1,0-3.09.23.23,0,0,1,.23.23.23.23,0,0,1-.23.23,1.09,1.09,0,1,0,1.09,1.09.23.23,0,0,1,.23-.23.23.23,0,0,1,.23.23A1.55,1.55,0,0,1,348.27,81.47Z" style="fill:#263238"></path><path d="M348.24,80.83c-1.42,0-1.49-3-1.49-3.66v0c0-.61.07-3.68,1.49-3.68s1.51,3.31,1.52,3.69l-1.23,0a7.79,7.79,0,0,0-.3-2.1,7.48,7.48,0,0,0-.25,2.07v0a7,7,0,0,0,.26,2.08s0-.09,0-.15l.1-.33.85.25a.34.34,0,0,1,.23.42h0C349.21,80.36,348.8,80.83,348.24,80.83Z" style="fill:#263238"></path><path d="M349.59,80.16a.23.23,0,0,1-.23-.23,1.09,1.09,0,0,0-1.09-1.09.23.23,0,0,1-.23-.23.24.24,0,0,1,.23-.23,1.56,1.56,0,0,1,1.55,1.55A.24.24,0,0,1,349.59,80.16Z" style="fill:#263238"></path><path d="M355.55,81.47a1.55,1.55,0,0,1,0-3.09.23.23,0,0,1,.23.23.23.23,0,0,1-.23.23,1.09,1.09,0,1,0,1.09,1.09.23.23,0,0,1,.23-.23.23.23,0,0,1,.23.23A1.55,1.55,0,0,1,355.55,81.47Z" style="fill:#263238"></path><path d="M355.52,80.83c-1.41,0-1.49-3-1.49-3.66v0c0-.61.07-3.68,1.49-3.68S357,76.78,357,77.16l-1.23,0a7.79,7.79,0,0,0-.3-2.1,7.48,7.48,0,0,0-.25,2.07v0a7,7,0,0,0,.26,2.08,1.55,1.55,0,0,0,0-.15l.1-.33.85.25a.34.34,0,0,1,.23.42h0C356.49,80.36,356.08,80.83,355.52,80.83Z" style="fill:#263238"></path><path d="M356.87,80.16a.23.23,0,0,1-.23-.23,1.09,1.09,0,0,0-1.09-1.09.23.23,0,0,1-.23-.23.24.24,0,0,1,.23-.23,1.56,1.56,0,0,1,1.55,1.55A.24.24,0,0,1,356.87,80.16Z" style="fill:#263238"></path><path d="M362.83,81.47a1.55,1.55,0,0,1,0-3.09.23.23,0,0,1,.23.23.23.23,0,0,1-.23.23,1.09,1.09,0,1,0,1.09,1.09.23.23,0,0,1,.23-.23.23.23,0,0,1,.23.23A1.55,1.55,0,0,1,362.83,81.47Z" style="fill:#263238"></path><path d="M362.8,80.83c-1.41,0-1.49-3-1.49-3.66v0c0-.61.07-3.68,1.49-3.68s1.51,3.31,1.52,3.69l-1.23,0a7.79,7.79,0,0,0-.3-2.1,7.48,7.48,0,0,0-.25,2.07v0a7,7,0,0,0,.26,2.08,1.55,1.55,0,0,0,0-.15l.1-.33.85.25a.34.34,0,0,1,.23.42h0C363.77,80.36,363.36,80.83,362.8,80.83Z" style="fill:#263238"></path><path d="M364.15,80.16a.23.23,0,0,1-.23-.23,1.09,1.09,0,0,0-1.09-1.09.23.23,0,0,1-.23-.23.24.24,0,0,1,.23-.23,1.56,1.56,0,0,1,1.55,1.55A.24.24,0,0,1,364.15,80.16Z" style="fill:#263238"></path><path d="M370.11,81.47a1.55,1.55,0,0,1,0-3.09.23.23,0,0,1,.23.23.23.23,0,0,1-.23.23,1.09,1.09,0,1,0,1.09,1.09.23.23,0,0,1,.23-.23.23.23,0,0,1,.23.23A1.54,1.54,0,0,1,370.11,81.47Z" style="fill:#263238"></path><path d="M370.08,80.83c-1.41,0-1.49-3-1.49-3.66v0c0-.61.07-3.68,1.49-3.68s1.51,3.31,1.52,3.69l-1.23,0a7.79,7.79,0,0,0-.3-2.1,7.48,7.48,0,0,0-.25,2.07v0a7,7,0,0,0,.26,2.08,1.55,1.55,0,0,0,0-.15l.1-.33.85.25a.34.34,0,0,1,.23.42h0C371.05,80.36,370.64,80.83,370.08,80.83Z" style="fill:#263238"></path><path d="M371.43,80.16a.23.23,0,0,1-.23-.23,1.09,1.09,0,0,0-1.09-1.09.23.23,0,0,1-.23-.23.24.24,0,0,1,.23-.23,1.55,1.55,0,0,1,1.55,1.55A.24.24,0,0,1,371.43,80.16Z" style="fill:#263238"></path><path d="M377.35,81.47a1.55,1.55,0,1,1,0-3.09.23.23,0,0,1,.23.23.23.23,0,0,1-.23.23,1.09,1.09,0,1,0,1.08,1.09.23.23,0,0,1,.23-.23.23.23,0,0,1,.23.23A1.54,1.54,0,0,1,377.35,81.47Z" style="fill:#263238"></path><path d="M377.31,80.83c-1.41,0-1.49-3-1.49-3.66v0c0-.61.07-3.68,1.49-3.68s1.52,3.31,1.53,3.69l-1.23,0a7.34,7.34,0,0,0-.31-2.1,7.48,7.48,0,0,0-.25,2.07v0a7.31,7.31,0,0,0,.26,2.08,1.31,1.31,0,0,0,.05-.15l.09-.33.86.25a.34.34,0,0,1,.23.42h0C378.29,80.36,377.87,80.83,377.31,80.83Z" style="fill:#263238"></path><path d="M378.66,80.16a.24.24,0,0,1-.23-.23,1.08,1.08,0,0,0-1.08-1.09.23.23,0,0,1-.23-.23.23.23,0,0,1,.23-.23,1.55,1.55,0,0,1,1.54,1.55A.23.23,0,0,1,378.66,80.16Z" style="fill:#263238"></path><path d="M384.63,81.47a1.55,1.55,0,1,1,0-3.09.23.23,0,0,1,.23.23.23.23,0,0,1-.23.23,1.09,1.09,0,1,0,1.08,1.09.23.23,0,0,1,.23-.23.23.23,0,0,1,.23.23A1.54,1.54,0,0,1,384.63,81.47Z" style="fill:#263238"></path><path d="M384.59,80.83c-1.41,0-1.49-3-1.49-3.66v0c0-.61.07-3.68,1.49-3.68s1.52,3.31,1.53,3.69l-1.23,0a7.34,7.34,0,0,0-.31-2.1,7.48,7.48,0,0,0-.25,2.07v0a7.31,7.31,0,0,0,.26,2.08,1.31,1.31,0,0,0,.05-.15l.09-.33.86.25a.34.34,0,0,1,.23.42h0C385.57,80.36,385.15,80.83,384.59,80.83Z" style="fill:#263238"></path><path d="M385.94,80.16a.24.24,0,0,1-.23-.23,1.08,1.08,0,0,0-1.08-1.09.23.23,0,0,1-.23-.23.23.23,0,0,1,.23-.23,1.55,1.55,0,0,1,1.54,1.55A.23.23,0,0,1,385.94,80.16Z" style="fill:#263238"></path><path d="M391.91,81.47a1.55,1.55,0,1,1,0-3.09.23.23,0,0,1,.23.23.23.23,0,0,1-.23.23A1.09,1.09,0,1,0,393,79.93a.23.23,0,0,1,.23-.23.23.23,0,0,1,.23.23A1.54,1.54,0,0,1,391.91,81.47Z" style="fill:#263238"></path><path d="M391.87,80.83c-1.41,0-1.49-3-1.49-3.66v0c0-.61.07-3.68,1.49-3.68s1.52,3.31,1.53,3.69l-1.23,0a7.34,7.34,0,0,0-.31-2.1,7.48,7.48,0,0,0-.25,2.07v0a7.31,7.31,0,0,0,.26,2.08,1.31,1.31,0,0,0,.05-.15l.09-.33.86.25a.34.34,0,0,1,.23.42h0C392.85,80.36,392.43,80.83,391.87,80.83Z" style="fill:#263238"></path><path d="M393.22,80.16a.24.24,0,0,1-.23-.23,1.08,1.08,0,0,0-1.08-1.09.23.23,0,0,1-.23-.23.23.23,0,0,1,.23-.23,1.55,1.55,0,0,1,1.54,1.55A.23.23,0,0,1,393.22,80.16Z" style="fill:#263238"></path><path d="M399.19,81.47a1.55,1.55,0,0,1,0-3.09.23.23,0,0,1,.23.23.23.23,0,0,1-.23.23,1.09,1.09,0,1,0,1.08,1.09.23.23,0,0,1,.23-.23.23.23,0,0,1,.23.23A1.54,1.54,0,0,1,399.19,81.47Z" style="fill:#263238"></path><path d="M399.15,80.83c-1.41,0-1.49-3-1.49-3.66v0c0-.61.08-3.68,1.49-3.68s1.52,3.31,1.53,3.69l-1.23,0a7.34,7.34,0,0,0-.31-2.1,7.48,7.48,0,0,0-.25,2.07v0a7.31,7.31,0,0,0,.26,2.08,1.31,1.31,0,0,0,.05-.15l.09-.33.86.25a.34.34,0,0,1,.23.42h0C400.13,80.36,399.71,80.83,399.15,80.83Z" style="fill:#263238"></path><path d="M400.5,80.16a.24.24,0,0,1-.23-.23,1.08,1.08,0,0,0-1.08-1.09.23.23,0,0,1-.23-.23.23.23,0,0,1,.23-.23,1.55,1.55,0,0,1,1.54,1.55A.23.23,0,0,1,400.5,80.16Z" style="fill:#263238"></path><path d="M362.79,75.08h8.87V68.93a2.08,2.08,0,0,1,2.08-2.08h0a2.08,2.08,0,0,1,2.08,2.08v6.15h8.76" style="fill:#fff;stroke:#263238;stroke-linecap:round;stroke-linejoin:round"></path><path d="M368.47,85.56v1.38h-1.58v8.27h-1.52V86.94h-1.58V85.56Z" style="fill:#263238"></path><path d="M372.51,95.21l-.26-1.75h-1.86l-.27,1.75h-1.39l1.55-9.65h2.22L374,95.21ZM372,92.15l-.73-4.88-.73,4.88Z" style="fill:#263238"></path><path d="M375.11,86.08a2.53,2.53,0,0,1,3.34,0,2.55,2.55,0,0,1,.56,1.79v.31h-1.43v-.4a1.14,1.14,0,0,0-.19-.73.71.71,0,0,0-.57-.22.69.69,0,0,0-.56.22,1.14,1.14,0,0,0-.2.73,1.76,1.76,0,0,0,.33,1.06,6.28,6.28,0,0,0,1,1,10.07,10.07,0,0,1,.87.88,3.41,3.41,0,0,1,.56.91,3,3,0,0,1,.24,1.23,2.59,2.59,0,0,1-.58,1.8,2.18,2.18,0,0,1-1.68.63,2.15,2.15,0,0,1-1.68-.63,2.55,2.55,0,0,1-.58-1.8V92.3h1.43V93c0,.62.26.93.79.93s.78-.31.78-.93a1.8,1.8,0,0,0-.32-1.06,6.75,6.75,0,0,0-1-1,11.79,11.79,0,0,1-.87-.87,3.78,3.78,0,0,1-.57-.92,3.17,3.17,0,0,1-.23-1.23A2.59,2.59,0,0,1,375.11,86.08Z" style="fill:#263238"></path><path d="M381.41,92.24v3h-1.52V85.56h1.52v4.2l2-4.2h1.51l-2.11,4.3,2.11,5.35h-1.56l-1.47-3.85Z" style="fill:#263238"></path><path d="M364.59,99.74A94.91,94.91,0,0,1,388.21,97" style="fill:#fff;stroke:#263238;stroke-linecap:round;stroke-linejoin:round"></path><rect x="350.72" y="130" width="6.71" height="6.71" style="fill:none;stroke:#92E3A9;stroke-linecap:round;stroke-linejoin:round"></rect><rect x="349.8" y="140.97" width="6.71" height="6.71" style="fill:none;stroke:#92E3A9;stroke-linecap:round;stroke-linejoin:round"></rect><rect x="351.03" y="118.74" width="6.71" height="6.71" style="fill:none;stroke:#92E3A9;stroke-linecap:round;stroke-linejoin:round"></rect><rect x="351.7" y="108.13" width="6.71" height="6.71" style="fill:none;stroke:#92E3A9;stroke-linecap:round;stroke-linejoin:round"></rect><path d="M353.3,110.41l.55,0a8.31,8.31,0,0,0,1.42,4.08c.1.14.22.29.38.31s.42-.25.51-.49q1.88-4.65,3.39-9.44" style="fill:none;stroke:#263238;stroke-linecap:round;stroke-linejoin:round"></path><path d="M364.59,126.16c.69-1.37,1.42-2.72,2.11-4.1a12.81,12.81,0,0,1,2-3.29,5.52,5.52,0,0,1,.78-.67.19.19,0,0,1,.18-.07c0,.3-.32.53-.45.79a.22.22,0,0,0,.26.08c.42,0,.83,0,1.25,0a1.9,1.9,0,0,1,1.14.33,1,1,0,0,1,.24,1,6.2,6.2,0,0,1-.83,1.88,8.52,8.52,0,0,1-1.32,1.67,7,7,0,0,1-1.29,1.09c-.21.19-.41.23-.6.09s-.24-.19-.15-.42a2.32,2.32,0,0,1,.59-.89,4.45,4.45,0,0,1,1.32-.87,12,12,0,0,1,1.76-.67,4,4,0,0,1,1-.16c.25,0,.5,0,.75,0a2.29,2.29,0,0,0,.51-.15,3.22,3.22,0,0,0-.95,1.06l-.11.44.06.38.3.22a.74.74,0,0,0,.7-.24.84.84,0,0,0,.37-.4,1,1,0,0,0,.22-.42.51.51,0,0,0,.06-.38.24.24,0,0,0-.11-.27.2.2,0,0,0-.23-.11.23.23,0,0,0-.24,0,1,1,0,0,0-.37.3c.1,0,.25-.07.34-.11.3-.13.6-.23.91-.33a19.58,19.58,0,0,1,2.37-.6,1.36,1.36,0,0,1-.36.27,3.52,3.52,0,0,0-.84.7,2.15,2.15,0,0,0-.37,1.07c0,.27,0,.65.4.65a1.39,1.39,0,0,0,.76-.34,6.87,6.87,0,0,0,.75-.68c.06-.06.54-.45.38-.62-.06.14-.11.28-.16.42a.91.91,0,0,0,0,.49c.16.26.62-.06.78-.16a1.9,1.9,0,0,0,.92-1.24,3.37,3.37,0,0,0-.19.69,1.13,1.13,0,0,0,0,.75c.35,0,.55-.4.72-.67s.26-.54.47-.44a1.56,1.56,0,0,1-.12.56c0,.06-.06.23-.14.26a1.13,1.13,0,0,1,.34-.61.4.4,0,0,1,.35-.09.8.8,0,0,0,.58-.07c.22-.12.44-.25.65-.39s.18-.16.26-.08c-.12.37-.29.73-.38,1.1,0,.15-.07.3-.1.45a.42.42,0,0,0,.09.48,1.78,1.78,0,0,0,.5-.14,10.32,10.32,0,0,0,1.58-.74,3.36,3.36,0,0,0,1-.8,1.05,1.05,0,0,0,.27-.39.38.38,0,0,0,.05-.42.71.71,0,0,0-.66.06l-.4.22a1.22,1.22,0,0,0-.59.94.83.83,0,0,0,.26.93.51.51,0,0,0,.71.2,2.72,2.72,0,0,0,1-.5,3.59,3.59,0,0,0,1.21-1.21c-.15,0-.5.67-.51.68-.15.27-.27.54-.41.81a2.14,2.14,0,0,1,.59-1c.27-.31.62-.73,1-.79a1.07,1.07,0,0,1-.12.58c-.05.13-.09.25-.13.38a.72.72,0,0,0-.06.46.43.43,0,0,0,.61-.16,4.12,4.12,0,0,0,.8-.76,3.5,3.5,0,0,0,.61-.87.9.9,0,0,0,.23-.64,3.45,3.45,0,0,0-.71,1.18,1.39,1.39,0,0,0-.17.72,1,1,0,0,0,.05.71.77.77,0,0,0,.48.68h.54l.58-.24a.85.85,0,0,0,.45-.61,1.28,1.28,0,0,0,0-.82.38.38,0,0,0-.32-.33l-.4-.12a4.25,4.25,0,0,0-.87-.13s-.44,0-.51.08a5.17,5.17,0,0,0,1.71-.06,1.86,1.86,0,0,0,1-.41s-.17,0-.14.06.13,0,.17,0a.27.27,0,0,0-.05.23,5.23,5.23,0,0,0,1.06.46c.53.16.72.47.59.92a1.2,1.2,0,0,1-.75,1.23c-.42.54-.79.59-1.09.16a2.25,2.25,0,0,1,1.05-1.06,2,2,0,0,1,1.2-.5" style="fill:none;stroke:#263238;stroke-linecap:round;stroke-linejoin:round;stroke-width:0.75px"></path><path d="M363.18,109.87c0,.51,2.81-.4,2.68-.37,2.33-.68,4.79-1.76,7.26-1.59" style="fill:none;stroke:#263238;stroke-linecap:round;stroke-linejoin:round;stroke-width:0.75px"></path><path d="M368,107.54a.22.22,0,0,1,.23-.12,1.65,1.65,0,0,1-.11.36,15.91,15.91,0,0,0-.43,1.88c-.25,1.08-.53,2.14-.82,3.19a4.35,4.35,0,0,0-.35,1.68" style="fill:none;stroke:#263238;stroke-linecap:round;stroke-linejoin:round;stroke-width:0.75px"></path><path d="M369.59,110a7.83,7.83,0,0,1-.22,2.21,6.63,6.63,0,0,0-.43,1.67c.77-1,1.17-2.35,2.46-2.8.28.43.06,1,0,1.48a3.82,3.82,0,0,0-.14,1.5,2.36,2.36,0,0,0,1.84-.45,4.7,4.7,0,0,0,1.65-1.35c.15-.26.34-1-.06-1.09s-.76.46-.93.76a2.76,2.76,0,0,0-.38,1.82.73.73,0,0,0,1.08.6c.53-.25.87-1,1.16-1.42a6.33,6.33,0,0,0,.45-.76c0,.28,0,.56,0,.83a7.6,7.6,0,0,1-.24,1.05c.3-.77.37-2.43,1.41-2.58.22.22.11.85.11,1.09a3.38,3.38,0,0,0,0,.78c.22,0,.49-.55.55-.65a3.62,3.62,0,0,1,.62-.87c.47-.4.86-.18,1,.41a2.84,2.84,0,0,1-.28,1.31.88.88,0,0,0-.05.48c.05.16.09.2.28.14.35-.11.64-.46,1-.59.95-.36,2.16-.68,2.71-1.62a.61.61,0,0,0-.19-.91c-.48-.26-.94.07-1.25.45a3.69,3.69,0,0,0-.77,1.56,2.82,2.82,0,0,0-.05,1.7c.34.62,1.46-.22,1.66-.41a13.18,13.18,0,0,0,1.13-1.23" style="fill:none;stroke:#263238;stroke-linecap:round;stroke-linejoin:round;stroke-width:0.75px"></path><path d="M389.08,109.26a.45.45,0,0,0-.11.49c.14,0,.23-.09.28-.26.33-.38.68-.75,1.05-1.1.22-.22,1.23-1.4,1.66-1.15a7.24,7.24,0,0,1-.55,1.56,26.19,26.19,0,0,0-1.43,3.58l-.28,1.09c0,.15,0,.3-.05.46a.33.33,0,0,0,.53,0" style="fill:none;stroke:#263238;stroke-linecap:round;stroke-linejoin:round;stroke-width:0.75px"></path><path d="M362.47,137.05a1.5,1.5,0,0,1,.11-.36,8,8,0,0,1,1.7-2.2,35.06,35.06,0,0,1,3.77-3.3,11.45,11.45,0,0,1,2.23-1.53,2.14,2.14,0,0,1-.11,1.06c-.21.83-.54,1.62-.75,2.45s-.32,1.37-.44,2.06c-.06.33-.25,1,0,1.33.33-.06.27-.56.28-.75" style="fill:none;stroke:#263238;stroke-linecap:round;stroke-linejoin:round;stroke-width:0.75px"></path><path d="M366.68,134.12a5.74,5.74,0,0,0,2.05-.31,19.78,19.78,0,0,0,2.85-.93" style="fill:none;stroke:#263238;stroke-linecap:round;stroke-linejoin:round;stroke-width:0.75px"></path><path d="M372.48,129.86l.09,0c-.26,1.07-.63,2.12-1,3.17-.25.78-.48,1.56-.68,2.36a1.37,1.37,0,0,0-.1,1.21.3.3,0,0,0,.35,0" style="fill:none;stroke:#263238;stroke-linecap:round;stroke-linejoin:round;stroke-width:0.75px"></path><path d="M373.49,133.06a7.83,7.83,0,0,0-.81,2.88c0,.17,0,.37.17.46s.35,0,.34-.15" style="fill:none;stroke:#263238;stroke-linecap:round;stroke-linejoin:round;stroke-width:0.75px"></path><path d="M371.58,134.3a5.67,5.67,0,0,1,1,.16c.31,0,.64,0,.95,0s.76,0,1-.19c.2,0,.85.66,1.06.65a1,1,0,0,0,.77-.57c.17-.31.05-.47-.34-.52a1,1,0,0,0-1,.39c-.36.5-.62,2.15.53,1.91A2.62,2.62,0,0,0,377,135a12.08,12.08,0,0,0,1.13-1.48c-.57.47-.27,1.33-.56,1.89-.06-.77.76-1.94,1.76-1.66.23.06.14.16,0,.36-.22.48-.53.91-.73,1.4.36-.47.61-1,1-1.49.1-.13.35-.5.61-.46.61.07.3,1.26.37,1.61.32.09.9-.5,1-.6a8.91,8.91,0,0,1,1.41-1.18c-.12.64-1,1.06-.84,1.8.37-.08.57-.56.71-.83s.17-.64.37-.77c.13.15-.12.58-.08.78a1.17,1.17,0,0,0,.71.81c1.18.47,2.39-1.12,2.82-1.86a3.57,3.57,0,0,0-.64,1.12l-.28.81a.62.62,0,0,0,.08.9l.53,0a2.09,2.09,0,0,0,.91-.77,2.15,2.15,0,0,0,.5-.74,1.54,1.54,0,0,0,.28-1" style="fill:none;stroke:#263238;stroke-linecap:round;stroke-linejoin:round;stroke-width:0.75px"></path><path d="M387.91,132.17l-.09,0a.24.24,0,0,0,0,.22c.18-.07.28-.45,0-.41-.12.23.06.25.29.26" style="fill:none;stroke:#263238;stroke-linecap:round;stroke-linejoin:round;stroke-width:0.75px"></path><path d="M384.7,134.21h1.49a9.28,9.28,0,0,0,1.18,0c.22,0,.82-.42,1-.43l0-.06c.18.14.1.61.12.79s0,1.14.35,1.16a10,10,0,0,0,.81-1.23l.6-.81a.92.92,0,0,1,.41-.46,1.64,1.64,0,0,1-.21.61,1.44,1.44,0,0,0,.42,1.14c.51.2,1-.24,1.24-.56.14-.16.44-.63.21-.85s-1.17.11-1.45.3c-.46.32-1.55,1.67-.52,2a1.71,1.71,0,0,0,1.58-.39,4.34,4.34,0,0,0,.84-.76.51.51,0,0,1,.38-.32" style="fill:none;stroke:#263238;stroke-linecap:round;stroke-linejoin:round;stroke-width:0.75px"></path><path d="M366.63,141.37c.23-.1.15.19.12.29-.29.87-.71,1.7-1,2.57a7.5,7.5,0,0,0-.62,2.65.55.55,0,0,0,.28.59.25.25,0,0,0,.33-.06" style="fill:none;stroke:#263238;stroke-linecap:round;stroke-linejoin:round;stroke-width:0.75px"></path><path d="M365,141.28v.07a1.35,1.35,0,0,0,.4,0,9.31,9.31,0,0,0,1.74-.22c.57-.12,1.13-.27,1.71-.37a.86.86,0,0,1,.55,0,.28.28,0,0,1,.34.27" style="fill:none;stroke:#263238;stroke-linecap:round;stroke-linejoin:round;stroke-width:0.75px"></path><path d="M364.59,144.63a13,13,0,0,1,4.16-1.06" style="fill:none;stroke:#263238;stroke-linecap:round;stroke-linejoin:round;stroke-width:0.75px"></path><path d="M369.9,144.39a4,4,0,0,1-.23.91,4.76,4.76,0,0,0-.1,1.13" style="fill:none;stroke:#263238;stroke-linecap:round;stroke-linejoin:round;stroke-width:0.75px"></path><path d="M370.63,143.24v-.08" style="fill:none;stroke:#263238;stroke-linecap:round;stroke-linejoin:round;stroke-width:0.75px"></path><path d="M371.12,144.39c.29-.07.15.5.14.58-.1.54-.34,1-.4,1.59a.49.49,0,0,0,.12-.25c.15-.34.31-.68.47-1a3.62,3.62,0,0,1,.84-1.1.47.47,0,0,1,.46-.24,8.53,8.53,0,0,1-.32,1.86c-.05.32-.26.95.08,1.19" style="fill:none;stroke:#263238;stroke-linecap:round;stroke-linejoin:round;stroke-width:0.75px"></path><path d="M374.14,144.31a11.84,11.84,0,0,0-.66,2.62c.18.06.38-.43.42-.5" style="fill:none;stroke:#263238;stroke-linecap:round;stroke-linejoin:round;stroke-width:0.75px"></path><path d="M374.88,143.08V143" style="fill:none;stroke:#263238;stroke-linecap:round;stroke-linejoin:round;stroke-width:0.75px"></path><path d="M376.75,144a6.82,6.82,0,0,0-1.06.72l-.41.37-.22.32c0,.27.42.23.59.26a.84.84,0,0,1,.63.25c.18.28,0,.58-.2.81s-1,1-1,.37" style="fill:none;stroke:#263238;stroke-linecap:round;stroke-linejoin:round;stroke-width:0.75px"></path><path d="M378.14,143.49c-.22.56-.46,1.11-.66,1.68-.06.17-.51,1.2-.35,1.3.25-.29.46-.61.72-.89s.55-.73.86-.62a6.84,6.84,0,0,0,.34.93c.18.32.55.68,1,.54a2.47,2.47,0,0,0,1.29-1.58,2,2,0,0,0-.39.75,4.54,4.54,0,0,0-.41,1.48" style="fill:none;stroke:#263238;stroke-linecap:round;stroke-linejoin:round;stroke-width:0.75px"></path><path d="M381.57,142.84a.21.21,0,0,1-.16.08" style="fill:none;stroke:#263238;stroke-linecap:round;stroke-linejoin:round;stroke-width:0.75px"></path><path d="M382.06,146.43c-.08.33-.16.66-.23,1,.35-1,.66-2.2,1.74-2.63.48-.19.53.17.54.58a4.54,4.54,0,0,1,0,.74.36.36,0,0,0,0,.47l.28-.15" style="fill:none;stroke:#263238;stroke-linecap:round;stroke-linejoin:round;stroke-width:0.75px"></path><path d="M385.73,144.39c-.19.22-1.27,1.66-.53,1.64.35,0,.7-.63.82-.85a2.11,2.11,0,0,1,.51-.82c.22.11.2.42.24.63a6.79,6.79,0,0,1,0,2.11,2.18,2.18,0,0,1-.44,1.09,1.54,1.54,0,0,1-1.11.62.56.56,0,0,1-.44-.4,1.15,1.15,0,0,1,.4-1l.92-.73c.53-.35,1.06-.72,1.58-1.09l1.61-1.16" style="fill:none;stroke:#263238;stroke-linecap:round;stroke-linejoin:round;stroke-width:0.75px"></path></g><g id="freepik--Character--inject-37"><path d="M198.49,347.15C209.43,347.15,241,340,241,340H156S187.56,347.15,198.49,347.15Z" style="fill:#858585;stroke:#263238;stroke-linecap:round;stroke-linejoin:round"></path><rect x="188.75" y="343.58" width="19.49" height="13.36" transform="translate(396.99 700.52) rotate(180)" style="fill:#858585;stroke:#263238;stroke-linecap:round;stroke-linejoin:round"></rect><rect x="158" y="288.64" width="16.41" height="34.33" transform="translate(332.42 611.61) rotate(180)" style="fill:#263238;stroke:#263238;stroke-linecap:round;stroke-linejoin:round"></rect><rect x="185.87" y="356.94" width="25.25" height="60.54" transform="translate(396.99 774.42) rotate(180)" style="fill:#858585;stroke:#263238;stroke-linecap:round;stroke-linejoin:round"></rect><path d="M126.22,292.57H197a14.3,14.3,0,0,0,14.27-15.36l-5.59-76.38a14.32,14.32,0,0,0-14.28-13.27H131.82a14.32,14.32,0,0,0-14.28,13.27l-5.6,76.38A14.32,14.32,0,0,0,126.22,292.57Z" style="fill:#92E3A9;stroke:#263238;stroke-linecap:round;stroke-linejoin:round"></path><path d="M124.49,277.21l5.6-76.38a14.31,14.31,0,0,1,14.27-13.27h47a14.32,14.32,0,0,1,14.28,13.27l5.59,76.38A14.3,14.3,0,0,1,197,292.57h-58.2A14.31,14.31,0,0,1,124.49,277.21Z" style="fill:#263238;stroke:#263238;stroke-linecap:round;stroke-linejoin:round"></path><path d="M156,429.64a2.1,2.1,0,0,0,2.56,2.06c7.74-1.69,30.92-6.57,40-6.57s32.23,4.88,40,6.57a2.1,2.1,0,0,0,2.56-2.06h0a5.54,5.54,0,0,0-4.38-5.42c-9-1.94-29.73-6.18-38.15-6.18s-29.09,4.24-38.15,6.18a5.54,5.54,0,0,0-4.37,5.42Z" style="fill:#263238;stroke:#263238;stroke-linecap:round;stroke-linejoin:round"></path><path d="M233.75,437.8a7.27,7.27,0,1,0,7.27-7.27A7.27,7.27,0,0,0,233.75,437.8Zm3.33,0a3.94,3.94,0,1,1,3.94,3.94A3.94,3.94,0,0,1,237.08,437.8Z" style="fill:#858585;stroke:#263238;stroke-linecap:round;stroke-linejoin:round"></path><path d="M191.22,437.8a7.28,7.28,0,1,0,7.27-7.27A7.28,7.28,0,0,0,191.22,437.8Zm3.34,0a3.94,3.94,0,1,1,3.93,3.94A3.94,3.94,0,0,1,194.56,437.8Z" style="fill:#858585;stroke:#263238;stroke-linecap:round;stroke-linejoin:round"></path><path d="M149.58,437.8a7.28,7.28,0,1,0,7.27-7.27A7.28,7.28,0,0,0,149.58,437.8Zm3.33,0a3.94,3.94,0,1,1,3.94,3.94A3.95,3.95,0,0,1,152.91,437.8Z" style="fill:#858585;stroke:#263238;stroke-linecap:round;stroke-linejoin:round"></path><path d="M177,317.59h84.87a10.52,10.52,0,0,1,10.52,10.52v1.38A10.52,10.52,0,0,1,261.87,340H177Z" style="fill:#92E3A9;stroke:#263238;stroke-linecap:round;stroke-linejoin:round"></path><rect x="124.6" y="317.59" width="68.43" height="22.43" rx="6.84" transform="translate(317.62 657.6) rotate(180)" style="fill:#92E3A9;stroke:#263238;stroke-linecap:round;stroke-linejoin:round"></rect><path d="M325.34,141.55c-6.5,18.36-26.75,33.94-34.32,36.84-3.6,1.38-50.58,18.59-50.58,18.59-10.28-1.11-15.82-17.06-16.23-21.49-.6-6.4-.9-11.41,9.46-12,16.26-.87,48.53-4.65,54.82-9.84,5.19-4.27,22.89-17.79,28.23-21.87C316.72,131.82,321.29,133.1,325.34,141.55Z" style="fill:#92E3A9;stroke:#263238;stroke-linecap:round;stroke-linejoin:round"></path><path d="M313.63,135.44l10.07-11.81.32-1.53a44.23,44.23,0,0,1,6.11-14.93h0l10.88-4.1,8.87,6.86-2.52,5.67-.84,3.3a3.93,3.93,0,0,1-1.46,2.19h0a43,43,0,0,1-12.19,7.58l-.42.2-9.22,16.31c-1.8,3.1-5.15,2.76-7.59-.15-.05-.05,0,0-.06,0C314.19,144,311.17,139.41,313.63,135.44Z" style="fill:#fff;stroke:#263238;stroke-linecap:round;stroke-linejoin:round"></path><rect x="349.26" y="105.73" width="7.55" height="1.11" transform="translate(-14.11 72.6) rotate(-11.51)" style="fill:#fff;stroke:#263238;stroke-linecap:round;stroke-linejoin:round"></rect><rect x="346.17" y="105.68" width="7.55" height="2.47" transform="translate(-14.3 71.99) rotate(-11.51)" style="fill:#fff;stroke:#263238;stroke-linecap:round;stroke-linejoin:round"></rect><rect x="315.69" y="108.52" width="34.63" height="4.02" transform="translate(-15.36 68.69) rotate(-11.51)" style="fill:#fff;stroke:#263238;stroke-linecap:round;stroke-linejoin:round"></rect><path d="M355.62,105s3.25-.77,3.37.08-3.08,1.33-3.08,1.33Z" style="fill:#263238"></path><path d="M317.69,113.68c.23,1.13-.17,2.16-.89,2.31s-1.49-.65-1.71-1.78.16-2.15.88-2.3S317.46,112.56,317.69,113.68Z" style="fill:#fff;stroke:#263238;stroke-linecap:round;stroke-linejoin:round"></path><path d="M335.36,121.77a5.92,5.92,0,0,1-2.35,2" style="fill:#fff;stroke:#263238;stroke-linecap:round;stroke-linejoin:round"></path><path d="M329.68,114.38c.43-1.54,3.33-4.95,12.58-6,1,.62.41,2.32-.62,3s-2.36.85-3.13,1.78-1,4-2.08,6.68" style="fill:#fff;stroke:#263238;stroke-linecap:round;stroke-linejoin:round"></path><path d="M339.86,107.08l2.4,1.27c4.23,2.14,5.81-.89,5.4-1.39h0l-6-3.43" style="fill:#fff;stroke:#263238;stroke-linecap:round;stroke-linejoin:round"></path><path d="M345.73,120.51l-2.39.86a9.57,9.57,0,0,1-1.33.33,1.56,1.56,0,0,1-1.55-.38,1.45,1.45,0,0,1-.31-1.09,2,2,0,0,1,.42-.94,3.13,3.13,0,0,1,2-1.18s3.88-1.61,4.83-2.51l-.13,1.57a5.33,5.33,0,0,1-1.5,3.34Z" style="fill:#fff;stroke:#263238;stroke-linecap:round;stroke-linejoin:round"></path><path d="M343.8,113.38a4.71,4.71,0,0,0-2.42,1.44,2.38,2.38,0,0,0-.59,1,1.22,1.22,0,0,0,.26,1.12,1.89,1.89,0,0,0,1.8.25,12.69,12.69,0,0,0,1.59-.49l2.92-1.13s1.6-.39,2.52-5.67l-.51-.4-1.11.57s-.93,3.75-2.46,4.19A1.55,1.55,0,0,1,343.8,113.38Z" style="fill:#fff;stroke:#263238;stroke-linecap:round;stroke-linejoin:round"></path><path d="M348.46,109.43c-.17.61-.4,1.34-.66,2a8.2,8.2,0,0,1-1.46,2.44,1.29,1.29,0,0,1-2.14-.26,4.18,4.18,0,0,1-.26-.82,5.51,5.51,0,0,1,.45-2.58Z" style="fill:#fff;stroke:#263238;stroke-linecap:round;stroke-linejoin:round"></path><path d="M344,104.81a28.21,28.21,0,0,1,4,.36" style="fill:#fff;stroke:#263238;stroke-linecap:round;stroke-linejoin:round"></path><path d="M342.49,110.84c.2.92.41,1.84.61,2.75" style="fill:#fff;stroke:#263238;stroke-linecap:round;stroke-linejoin:round"></path><path d="M192.45,159.37a43.08,43.08,0,0,1-5-14c0-.4,0-1,.09-1.62a16,16,0,0,0,2.43,6.57,22,22,0,0,1,2.08,3.4A12.64,12.64,0,0,1,192.45,159.37Z" style="fill:#263238;stroke:#263238;stroke-linecap:round;stroke-linejoin:round"></path><path d="M217.89,444.85H174.73a1.85,1.85,0,0,1-1.82-1.51c-.66-3.43-.51-11.1,3.38-21.29l.39-20.68,22.11,3.76L196,422.76s8.9,9.8,13.13,11.55c3,1.24,9.73,1.37,10.63,8.47A1.86,1.86,0,0,1,217.89,444.85Z" style="fill:#fff;stroke:#263238;stroke-linecap:round;stroke-linejoin:round"></path><path d="M183.58,428.92c10.2,2.31,12.4-6.16,12.4-6.16s8.9,9.8,13.13,11.55c3,1.24,9.73,1.37,10.63,8.47a1.86,1.86,0,0,1-1.85,2.07H174.73a1.85,1.85,0,0,1-1.82-1.51c-.66-3.43-.51-11.1,3.38-21.29C176.29,422.05,178.15,427.69,183.58,428.92Z" style="fill:#263238;stroke:#263238;stroke-linecap:round;stroke-linejoin:round"></path><polygon points="272.58 432.93 268.9 393.02 290.82 396.88 292.56 428.6 272.58 432.93" style="fill:#fff;stroke:#263238;stroke-linecap:round;stroke-linejoin:round"></polygon><path d="M222.19,276.25s4.35,4.46,22.14,7.3S299,295.3,298.59,309.89s-5.8,97.37-5.8,97.37-17-3.24-24.93-8.11c0,0-5.09-40.76-4.67-75.07,0,0-46.12-5.67-71.63-16.21s-10.51-34.52-10.51-34.52Z" style="fill:#263238;stroke:#263238;stroke-linecap:round;stroke-linejoin:round"></path><path d="M193.22,274.21s-6.55,11-1.66,17,32.64,17.43,29.51,31.21-13.49,42.93-20.25,89.14c0,0-15.71-2.43-26.25-6.89,0,0-1.75-56.72,10.47-77,0,0-35-6.49-38.54-18.24s3.09-29.73,3.22-36.14Z" style="fill:#263238;stroke:#263238;stroke-linecap:round;stroke-linejoin:round"></path><path d="M295,407.33l-.94,5.24a1,1,0,0,1-1.07.94c-4-.41-21-2.34-27.5-6.33a1.45,1.45,0,0,1-.6-1.25l.19-5.7c0-.84.71-1.37,1.38-1.07,2.84,1.27,10.62,4.11,27.54,6.55A1.37,1.37,0,0,1,295,407.33Z" style="fill:#fff;stroke:#263238;stroke-linecap:round;stroke-linejoin:round"></path><path d="M202.8,408.88a.84.84,0,0,0-1.1-.92,10.66,10.66,0,0,1-6.11.09c-4.5-1-17.41-5.11-21.25-6.34a.84.84,0,0,0-1.09.81v5.37a.83.83,0,0,0,.5.77c3,1.34,19.17,8.26,27.62,6.38a.85.85,0,0,0,.64-.71Z" style="fill:#fff;stroke:#263238;stroke-linecap:round;stroke-linejoin:round"></path><path d="M190.56,280.45a19.88,19.88,0,0,0-.62,2.74" style="fill:none;stroke:#7f7f7f;stroke-linecap:round;stroke-linejoin:round"></path><path d="M322.74,442.1a2.84,2.84,0,0,1-2.83,2.84s-29.26.19-31.12.11c-1.6-.07-3.68-2.63-10.43-3.31-1.57-.15-2.16,1.29-1.11,3.11l-8.35.2a2.83,2.83,0,0,1-2.84-2.86c0-3.43-1.82-11.06,4.74-19.21.76,3,3.23,4.65,7,4.83,15.26.69,15.18-6.49,15.18-6.49s7.79,9.1,14,11.25C311,434,323.35,436.83,322.74,442.1Z" style="fill:#263238;stroke:#263238;stroke-linecap:round;stroke-linejoin:round"></path><path d="M235.65,218a.14.14,0,0,0,0,.06c-5.65,20.34-13,59.06-13,59.06-36.17,7.63-74.32,0-74.32,0-.21-8.44.82-19.57,2-31.27-5.93-1.64-10.21-7.11-10.45-16.21-.28-11,1.72-30.86,2.83-40.12,1-8.15.28-13,12.91-19.18,6.33-3.65,16.83-5.38,29.76-7.1a142.36,142.36,0,0,1,39,.23c9.07,1.36,15.18,7.26,16.28,16C242.23,192.6,239.77,204.67,235.65,218Z" style="fill:#92E3A9"></path><g style="clip-path:url(#freepik--clip-path--inject-37)"><path d="M148.31,277.09a204.36,204.36,0,0,1,1.07-21.75c-1.23,17.21,34.61,22.59,35.74,13.26s-34.84-22.78-15.27-18.08c17.08,4.11,50.18.19,58.33-.88-3.13,14.71-5.55,27.45-5.55,27.45C186.46,284.72,148.31,277.09,148.31,277.09Z" style="opacity:0.30000000000000004"></path><path d="M184.25,160.88a53,53,0,0,0-2.07,33.61,13.13,13.13,0,0,1,14.49-2.42c3.49,1.66,7,5,10.59,3.6,1.52-.59,2.61-1.92,4-2.82a8,8,0,0,1,10.94,2.76,163.77,163.77,0,0,0-3.3-16.73c-1-4-2.2-8-4.73-11.2-3.35-4.23-8.74-6.52-14.12-7s-10.78.81-15.86,2.63" style="opacity:0.30000000000000004"></path><path d="M164.75,190.62s5.11,15,5.1,22.89,14.35,13.21,14.38,13.22c-7.69-1.56-15.18-3.63-18.76-4.67a2.73,2.73,0,0,1-2-2.88,280.3,280.3,0,0,0,1.26-28.56Z" style="opacity:0.30000000000000004"></path></g><path d="M235.65,218a.14.14,0,0,0,0,.06c-5.65,20.34-13,59.06-13,59.06-36.17,7.63-74.32,0-74.32,0-.21-8.44.82-19.57,2-31.27-5.93-1.64-10.21-7.11-10.45-16.21-.28-11,1.72-30.86,2.83-40.12,1-8.15.28-13,12.91-19.18,6.33-3.65,16.83-5.38,29.76-7.1a142.36,142.36,0,0,1,39,.23c9.07,1.36,15.18,7.26,16.28,16C242.23,192.6,239.77,204.67,235.65,218Z" style="fill:none;stroke:#263238;stroke-linecap:round;stroke-linejoin:round"></path><path d="M146.05,233c3-9.88,8.14-12.36,12.14-12.61a.64.64,0,0,0,.3-1.19c-2.32-1.25-6.86-2.25-12.44,3.91" style="fill:none;stroke:#263238;stroke-linecap:round;stroke-linejoin:round;stroke-width:0.75px"></path><path d="M246.59,239.71s7.14,4.37,3.58,6.39c-2.27,1.3-6.4-3.79-9.5-4s1.58-3,1.58-3Z" style="fill:#fff;stroke:#263238;stroke-linecap:round;stroke-linejoin:round"></path><path d="M197.13,230a2.44,2.44,0,0,1,1.92-.3c2.64.67,10.22,2.56,13.16,2.87,5.2.56,20.9-.07,20.9-.07a2.37,2.37,0,0,1,1,.23l8.92,4.36a2.46,2.46,0,0,1,.83.67s2.54,2.94,2.62,3.18l.85,3.41c-.31-1.3.05.2.06.3a4.67,4.67,0,0,1-.14,1.7,1.4,1.4,0,0,1-2.18.7h0l-.36-1.16c.93,2.47.21,3-.2,3.13a2.14,2.14,0,0,1-2.78-1.24l-.57-1.39s-.81,2.63-3.53,0c-.36-.36-1.05-2-2.28-3.56,0,0-1.74-2.24-2.9-2.71-2.62-1.06-3.09-1.57-3.92-1.71,0,0,8.1,6.24,6.09,7.91s-7.88-5.07-10.2-4.89-3.4,5.62-15.2,1.58a3.71,3.71,0,0,0-1.62-.19L196.07,244a2.57,2.57,0,0,1-2.83-2.36C193,238.23,193.15,232.51,197.13,230Z" style="fill:#fff;stroke:#263238;stroke-linecap:round;stroke-linejoin:round"></path><path d="M232.92,236.94l1.72.6a4.75,4.75,0,0,1,2.14,1.5l2.4,3.09c.28.33,1.86,3.82,2,4.22" style="fill:none;stroke:#263238;stroke-linecap:round;stroke-linejoin:round"></path><path d="M237.08,236.1s3.63,1.8,4.19,2.49L243.5,243c.28.34,1.86,3.5,1.56,5.24" style="fill:none;stroke:#263238;stroke-linecap:round;stroke-linejoin:round"></path><path d="M212.7,234.41c4.44-1.35,11.16-2.18,14.4-1.76" style="fill:none;stroke:#263238;stroke-linecap:round;stroke-linejoin:round"></path><path d="M164.67,188.22c.42,10-.42,22.16-1.18,31a2.73,2.73,0,0,0,2,2.88c4.94,1.43,17.31,4.83,27.4,6.16" style="fill:none;stroke:#263238;stroke-linecap:round;stroke-linejoin:round"></path><path d="M197.13,229l-11.06-5a34.06,34.06,0,0,0-2.68,16.81c.94,9.45,15.25,2.1,15.25,2.1Z" style="fill:#fff;stroke:#263238;stroke-linecap:round;stroke-linejoin:round"></path><polygon points="316.71 131.82 325.34 141.55 319.94 158.12 306.7 139.49 316.71 131.82" style="fill:#fff;stroke:#263238;stroke-linecap:round;stroke-linejoin:round"></polygon><path d="M164.11,181.21c.15,1.15.27,2.36.37,3.62" style="fill:none;stroke:#263238;stroke-linecap:round;stroke-linejoin:round;stroke-width:0.75px"></path><path d="M160.32,170.63c1.29,1.11,2.25,3.18,2.93,5.9" style="fill:none;stroke:#263238;stroke-linecap:round;stroke-linejoin:round;stroke-width:0.75px"></path><path d="M186.52,188.45s3.93-5.43,10.3-.23a114.18,114.18,0,0,1,9.14,8.56s7.45-9.18,10.14-10.39c5.63-2.52,6.8,1.83,6.8,1.83a99,99,0,0,0-5.36-25.07s-4.9-8.42-28.07-4.46c0,0-4.85,1-5.91,4.76C183.56,163.45,181.12,179,186.52,188.45Z" style="fill:#fff;stroke:#263238;stroke-linecap:round;stroke-linejoin:round"></path><path d="M216.91,163.92s-.71-2.27-4.52-3.54-14.25-2-21,1.32,3.45,20,3.45,20l2.12,2.91a44.89,44.89,0,0,0,9.32,9.45h0l4.41-5.79s7.81-10.11,7.25-15.54S216.91,163.92,216.91,163.92Z" style="fill:#fff;stroke:#263238;stroke-linecap:round;stroke-linejoin:round"></path><path d="M192.42,159.15c-.45,1,1.65,17.53,8.9,22.06S214.53,178,214.53,178,202.77,186.26,192,160.2l-.62,1.5" style="fill:#263238;stroke:#263238;stroke-linecap:round;stroke-linejoin:round"></path><path d="M229.27,152.09s4.74-19.21-4.3-28.44-18.84-11.12-26.18-6.59-10.36,15.82-9.23,21.66.58,26.75,10.65,35.42,16.27,6.52,22.93-5.28C227.51,161.1,229.61,158.88,229.27,152.09Z" style="fill:#fff"></path><g style="clip-path:url(#freepik--clip-path-2--inject-37)"><path d="M199.05,152.49a10.66,10.66,0,0,1,.43,2c.51,1.88,1.52,6.49,3.46,6.61,8.34.51,10-.07,14.53,1.49,1.69.58,2.35,3.34,3.85,2.36,5.07-3.34,2.61,2.79,3.36,1.17-1.54,2.69-2.66,8-8.32,11.33-3.66,2.19-8.49,1.79-12.22-.29s-6.46-5.61-8.39-9.41c-.91-1.79-5.6-13.06-3.08-13.84,1-.32,2.34,1.54,3.61,1.07C197.37,154.64,197.74,149.81,199.05,152.49Z" style="opacity:0.2"></path></g><path d="M229.27,152.09s4.74-19.21-4.3-28.44-18.84-11.12-26.18-6.59-10.36,15.82-9.23,21.66.58,26.75,10.65,35.42,16.27,6.52,22.93-5.28C227.51,161.1,229.61,158.88,229.27,152.09Z" style="fill:none;stroke:#263238;stroke-linecap:round;stroke-linejoin:round"></path><path d="M196.65,147.06s-1.92-10.53-7.26-9.55-1.52,16.52,4.76,14.82" style="fill:#fff;stroke:#263238;stroke-linecap:round;stroke-linejoin:round"></path><path d="M217.07,169.71s-6.59-.44-9.29-5.21" style="fill:none;stroke:#263238;stroke-linecap:round;stroke-linejoin:round"></path><path d="M225.52,151.45c-.19.91,0,1.73.53,1.83s1-.56,1.22-1.47-.05-1.73-.53-1.83S225.71,150.54,225.52,151.45Z" style="fill:#263238"></path><path d="M213.12,150.45c-.18.91,0,1.73.54,1.83s1-.55,1.21-1.46-.05-1.73-.53-1.83S213.31,149.54,213.12,150.45Z" style="fill:#263238"></path><path d="M224.68,148.07c-1.9,1.19-2.63,3.65-2.53,5.89a45.43,45.43,0,0,0,1.3,6.59c.28,1.43.3,3.16-.86,4a2.94,2.94,0,0,1-3.28-.14,8.71,8.71,0,0,1-2.25-2.64" style="fill:none;stroke:#263238;stroke-linecap:round;stroke-linejoin:round"></path><path d="M197.59,155.83a17.7,17.7,0,0,1,1.88,8" style="fill:none;stroke:#263238;stroke-linecap:round;stroke-linejoin:round;stroke-width:0.75px"></path><path d="M209.91,142.45c-1,.15-2.26.54-2.29,1.22,0,.52.75.94,1.54,1.09a18.46,18.46,0,0,0,2.48.14c2.37.12,4.49,1,6.82,1.28,3.72.49,3.76-1.52,1.19-2.51A19.8,19.8,0,0,0,209.91,142.45Z" style="fill:#263238;stroke:#263238;stroke-linecap:round;stroke-linejoin:round"></path><path d="M226.84,144.51c-1.06.11-1.88.46-1.9,1.14,0,.53.74.95,1.54,1.1a7.07,7.07,0,0,1,2.54.72c1.49.67,1.87.18,1.32-2.52C230.2,144.26,228.93,144.27,226.84,144.51Z" style="fill:#263238;stroke:#263238;stroke-linecap:round;stroke-linejoin:round"></path><path d="M190.81,244.05a1.32,1.32,0,0,1-.84,2.32c-7.64,0-28.23.09-36.21-.37-9.9-.56-2.35-11.32,5.61-7.21C166.7,242.57,182.11,236.27,190.81,244.05Z" style="opacity:0.30000000000000004"></path><path d="M297.32,316.22a33.93,33.93,0,0,1-12.49,19.55" style="fill:none;stroke:#7f7f7f;stroke-linecap:round;stroke-linejoin:round"></path><path d="M298.08,310.46c0,.82-.1,1.64-.2,2.45" style="fill:none;stroke:#7f7f7f;stroke-linecap:round;stroke-linejoin:round"></path><path d="M197.21,320.54a25.4,25.4,0,0,1,2.85-.62" style="fill:none;stroke:#7f7f7f;stroke-linecap:round;stroke-linejoin:round"></path><path d="M184,328.22a29.45,29.45,0,0,1,10.4-6.78" style="fill:none;stroke:#7f7f7f;stroke-linecap:round;stroke-linejoin:round"></path><path d="M290,363.94a109.42,109.42,0,0,1-18.4,30.7" style="fill:none;stroke:#7f7f7f;stroke-linecap:round;stroke-linejoin:round"></path><path d="M293.2,354.56q-.78,2.69-1.7,5.32" style="fill:none;stroke:#7f7f7f;stroke-linecap:round;stroke-linejoin:round"></path><path d="M217.16,332.05a36.8,36.8,0,0,1-4.91,7.43" style="fill:none;stroke:#7f7f7f;stroke-linecap:round;stroke-linejoin:round"></path><path d="M196.49,289.15c11.45,5.69,23,15.78,24.36,27.67l.07.85a35.26,35.26,0,0,1-2.73,12.14" style="fill:none;stroke:#7f7f7f;stroke-linecap:round;stroke-linejoin:round"></path><path d="M190.63,286.62q1.56.57,3.15,1.26" style="fill:none;stroke:#7f7f7f;stroke-linecap:round;stroke-linejoin:round"></path><path d="M181.18,401.74a125.65,125.65,0,0,0,26.09-39.36" style="fill:none;stroke:#7f7f7f;stroke-linecap:round;stroke-linejoin:round"></path><path d="M264.94,313.91c1.33-.61,2.65-1.27,3.94-2" style="fill:none;stroke:#7f7f7f;stroke-linecap:round;stroke-linejoin:round"></path><path d="M220.85,316.82c13.78,3.35,27.72,3.24,40.14-1.3" style="fill:none;stroke:#7f7f7f;stroke-linecap:round;stroke-linejoin:round"></path><path d="M273.83,315.13a23.8,23.8,0,0,1,2.46-1.47" style="fill:none;stroke:#7f7f7f;stroke-linecap:round;stroke-linejoin:round"></path><path d="M262.77,324.69c3.62-4.87,5.4-5.53,8.62-7.86" style="fill:none;stroke:#7f7f7f;stroke-linecap:round;stroke-linejoin:round"></path><path d="M241.43,127.08a5.17,5.17,0,0,1-4.29,4.52,5.47,5.47,0,0,1-6.56,8.57c-2-1.55-4.87-.23-7.41-.28-4.75-.08-14.5-6.64-15.41-7a13.17,13.17,0,0,1-3.89-3.14,33.5,33.5,0,0,0-7.35-5.44l-.76-.42a8.81,8.81,0,0,0,.36,2.22,18,18,0,0,1,2.69,1.56,15.84,15.84,0,0,1,6.56,15.53c-.11.53-.31,1.14-.83,1.3-.87.26-1.39-.9-2-1.58-1.37-1.55-4.18-.51-5,1.37s-.43,3.74,0,5.61a51.55,51.55,0,0,0-3.15-9c-.76-1.64-2-3.48-3.76-3.5a3.3,3.3,0,0,0-2.82,2c0,.1-.08.18-.11.27a7.37,7.37,0,0,0-.34,3.3q0,.39.09.78c0,.66-.07,1.22-.09,1.62,0,.17,0,.3,0,.42-1.62-4.23-2.37-15.28-.76-19.51,2.38-6.23,6.3-11.42,12.57-14.38a6.67,6.67,0,0,1,.66-.31,13.39,13.39,0,0,1,3.17-1c4.65-.78,9.19.75,13.74,1.69a8.7,8.7,0,0,0,3.89.2c2.41-.62,3.81-3.13,6-4.38a7.84,7.84,0,0,1,7.08-.1,14.23,14.23,0,0,1,5.45,4.83,8.89,8.89,0,0,1,2,5c0,1.83-1.25,3.75-3.07,4A5.19,5.19,0,0,1,241.43,127.08Z" style="fill:#263238;stroke:#263238;stroke-linecap:round;stroke-linejoin:round"></path><path d="M227.75,115.66a3.44,3.44,0,0,1,1.74.18" style="fill:none;stroke:#7f7f7f;stroke-linecap:round;stroke-linejoin:round"></path><path d="M209.82,119a9.43,9.43,0,0,0,11.64.94c1.29-.91,2.32-2.14,3.6-3.07" style="fill:none;stroke:#7f7f7f;stroke-linecap:round;stroke-linejoin:round"></path><path d="M231.57,123.87a5.12,5.12,0,0,1,2.11.79" style="fill:none;stroke:#7f7f7f;stroke-linecap:round;stroke-linejoin:round"></path><path d="M216.56,124.49c2.08,2.15,5.64,1.49,8.48.53a22.58,22.58,0,0,1,4.45-1.16" style="fill:none;stroke:#7f7f7f;stroke-linecap:round;stroke-linejoin:round"></path><path d="M220.88,129.12l5.44.81a10.14,10.14,0,0,1,4.23,1.29,3.49,3.49,0,0,1,1.62,3.81c-.48,1.41-2.67,2-3.53.8" style="fill:none;stroke:#7f7f7f;stroke-linecap:round;stroke-linejoin:round"></path><path d="M216.66,128.49l2.11.31" style="fill:none;stroke:#7f7f7f;stroke-linecap:round;stroke-linejoin:round"></path><path d="M271,326.81q6.84-4.74,14-8.92c1.66-1,3.47-1.95,5.38-1.77.86,1.68-.21,3.67-1.36,5.17a38,38,0,0,1-12.27,10.43" style="fill:none;stroke:#7f7f7f;stroke-linecap:round;stroke-linejoin:round"></path></g><g id="freepik--Desk--inject-37"><path d="M121.42,215.27a125.32,125.32,0,0,0,35.58,2,2.43,2.43,0,0,0,1.87-.74c.59-.85-.1-2-.66-2.84a13.66,13.66,0,0,1-1.76-10.85,56.84,56.84,0,0,1-32.59,12.43Z" style="fill:#fff;stroke:#263238;stroke-linecap:round;stroke-linejoin:round"></path><rect x="96.68" y="215.3" width="50.54" height="39.58" transform="translate(243.89 470.18) rotate(180)" style="fill:#999;stroke:#263238;stroke-linecap:round;stroke-linejoin:round"></rect><rect x="146.97" y="215.3" width="34.3" height="39.58" style="fill:#fff;stroke:#263238;stroke-linecap:round;stroke-linejoin:round"></rect><line x1="133.45" y1="217.87" x2="143.7" y2="217.87" style="fill:none;stroke:#263238;stroke-linecap:round;stroke-linejoin:round"></line><line x1="100.2" y1="217.87" x2="111.07" y2="217.87" style="fill:none;stroke:#263238;stroke-linecap:round;stroke-linejoin:round"></line><line x1="126.85" y1="225.27" x2="143.7" y2="225.27" style="fill:none;stroke:#263238;stroke-linecap:round;stroke-linejoin:round"></line><line x1="100.2" y1="225.27" x2="114.97" y2="225.27" style="fill:none;stroke:#263238;stroke-linecap:round;stroke-linejoin:round"></line><line x1="135.27" y1="232.67" x2="143.7" y2="232.67" style="fill:none;stroke:#263238;stroke-linecap:round;stroke-linejoin:round"></line><line x1="100.2" y1="232.67" x2="118.93" y2="232.67" style="fill:none;stroke:#263238;stroke-linecap:round;stroke-linejoin:round"></line><line x1="126.85" y1="240.08" x2="143.7" y2="240.08" style="fill:none;stroke:#263238;stroke-linecap:round;stroke-linejoin:round"></line><line x1="100.2" y1="240.08" x2="106.75" y2="240.08" style="fill:none;stroke:#263238;stroke-linecap:round;stroke-linejoin:round"></line><line x1="135.27" y1="247.48" x2="143.7" y2="247.48" style="fill:none;stroke:#263238;stroke-linecap:round;stroke-linejoin:round"></line><line x1="100.2" y1="247.48" x2="107.82" y2="247.48" style="fill:none;stroke:#263238;stroke-linecap:round;stroke-linejoin:round"></line><line x1="166.15" y1="217.87" x2="177.75" y2="217.87" style="fill:none;stroke:#263238;stroke-linecap:round;stroke-linejoin:round"></line><line x1="150.49" y1="217.87" x2="155.55" y2="217.87" style="fill:none;stroke:#263238;stroke-linecap:round;stroke-linejoin:round"></line><line x1="164.47" y1="225.27" x2="177.75" y2="225.27" style="fill:none;stroke:#263238;stroke-linecap:round;stroke-linejoin:round"></line><line x1="150.49" y1="225.27" x2="158.62" y2="225.27" style="fill:none;stroke:#263238;stroke-linecap:round;stroke-linejoin:round"></line><line x1="167.59" y1="232.67" x2="177.75" y2="232.67" style="fill:none;stroke:#263238;stroke-linecap:round;stroke-linejoin:round"></line><line x1="150.49" y1="232.67" x2="161.74" y2="232.67" style="fill:none;stroke:#263238;stroke-linecap:round;stroke-linejoin:round"></line><line x1="160.95" y1="240.08" x2="177.75" y2="240.08" style="fill:none;stroke:#263238;stroke-linecap:round;stroke-linejoin:round"></line><line x1="150.49" y1="240.08" x2="152.13" y2="240.08" style="fill:none;stroke:#263238;stroke-linecap:round;stroke-linejoin:round"></line><line x1="167.59" y1="247.48" x2="177.75" y2="247.48" style="fill:none;stroke:#263238;stroke-linecap:round;stroke-linejoin:round"></line><line x1="150.49" y1="247.48" x2="152.98" y2="247.48" style="fill:none;stroke:#263238;stroke-linecap:round;stroke-linejoin:round"></line><polygon points="98.95 221.86 107.82 217.91 100.2 217.91 98.95 221.86" style="fill:#fff;stroke:#263238;stroke-linecap:round;stroke-linejoin:round"></polygon><polygon points="176.39 221.86 167.52 217.91 175.14 217.91 176.39 221.86" style="fill:#999;stroke:#263238;stroke-linecap:round;stroke-linejoin:round"></polygon><polygon points="168.9 244.03 160.03 240.07 172.94 240.07 168.9 244.03" style="fill:#999;stroke:#263238;stroke-linecap:round;stroke-linejoin:round"></polygon><polygon points="122.04 238.33 125.94 232.68 107.58 232.68 122.04 238.33" style="fill:#fff;stroke:#263238;stroke-linecap:round;stroke-linejoin:round"></polygon><polygon points="96.68 240.51 91.55 247.55 96.68 246.91 96.68 240.51" style="fill:#fff;stroke:#263238;stroke-linecap:round;stroke-linejoin:round"></polygon><rect x="323.89" y="195.88" width="50.54" height="59.21" transform="translate(698.32 450.96) rotate(180)" style="fill:#999;stroke:#263238;stroke-linecap:round;stroke-linejoin:round"></rect><rect x="374.18" y="195.88" width="34.3" height="59.21" transform="translate(782.66 450.96) rotate(180)" style="fill:#fff;stroke:#263238;stroke-linecap:round;stroke-linejoin:round"></rect><line x1="364.16" y1="203.28" x2="370.91" y2="203.28" style="fill:none;stroke:#263238;stroke-linecap:round;stroke-linejoin:round"></line><line x1="327.41" y1="203.28" x2="349.16" y2="203.28" style="fill:none;stroke:#263238;stroke-linecap:round;stroke-linejoin:round"></line><line x1="354.06" y1="210.68" x2="370.91" y2="210.68" style="fill:none;stroke:#263238;stroke-linecap:round;stroke-linejoin:round"></line><line x1="327.41" y1="210.68" x2="338.28" y2="210.68" style="fill:none;stroke:#263238;stroke-linecap:round;stroke-linejoin:round"></line><line x1="360.66" y1="218.08" x2="370.91" y2="218.08" style="fill:none;stroke:#263238;stroke-linecap:round;stroke-linejoin:round"></line><line x1="327.41" y1="218.08" x2="338.28" y2="218.08" style="fill:none;stroke:#263238;stroke-linecap:round;stroke-linejoin:round"></line><line x1="354.06" y1="225.48" x2="370.91" y2="225.48" style="fill:none;stroke:#263238;stroke-linecap:round;stroke-linejoin:round"></line><line x1="327.41" y1="225.48" x2="342.18" y2="225.48" style="fill:none;stroke:#263238;stroke-linecap:round;stroke-linejoin:round"></line><line x1="362.48" y1="232.88" x2="370.91" y2="232.88" style="fill:none;stroke:#263238;stroke-linecap:round;stroke-linejoin:round"></line><line x1="327.41" y1="232.88" x2="346.14" y2="232.88" style="fill:none;stroke:#263238;stroke-linecap:round;stroke-linejoin:round"></line><line x1="354.06" y1="240.28" x2="370.91" y2="240.28" style="fill:none;stroke:#263238;stroke-linecap:round;stroke-linejoin:round"></line><line x1="327.41" y1="240.28" x2="333.96" y2="240.28" style="fill:none;stroke:#263238;stroke-linecap:round;stroke-linejoin:round"></line><line x1="362.48" y1="247.68" x2="370.91" y2="247.68" style="fill:none;stroke:#263238;stroke-linecap:round;stroke-linejoin:round"></line><line x1="327.41" y1="247.68" x2="335.03" y2="247.68" style="fill:none;stroke:#263238;stroke-linecap:round;stroke-linejoin:round"></line><line x1="396.12" y1="203.28" x2="404.96" y2="203.28" style="fill:none;stroke:#263238;stroke-linecap:round;stroke-linejoin:round"></line><line x1="377.7" y1="203.28" x2="391.33" y2="203.28" style="fill:none;stroke:#263238;stroke-linecap:round;stroke-linejoin:round"></line><line x1="388.16" y1="210.68" x2="404.96" y2="210.68" style="fill:none;stroke:#263238;stroke-linecap:round;stroke-linejoin:round"></line><line x1="377.7" y1="210.68" x2="382.76" y2="210.68" style="fill:none;stroke:#263238;stroke-linecap:round;stroke-linejoin:round"></line><line x1="393.36" y1="218.08" x2="404.96" y2="218.08" style="fill:none;stroke:#263238;stroke-linecap:round;stroke-linejoin:round"></line><line x1="377.7" y1="218.08" x2="382.76" y2="218.08" style="fill:none;stroke:#263238;stroke-linecap:round;stroke-linejoin:round"></line><line x1="391.68" y1="225.48" x2="404.96" y2="225.48" style="fill:none;stroke:#263238;stroke-linecap:round;stroke-linejoin:round"></line><line x1="377.7" y1="225.48" x2="385.83" y2="225.48" style="fill:none;stroke:#263238;stroke-linecap:round;stroke-linejoin:round"></line><line x1="394.8" y1="232.88" x2="404.96" y2="232.88" style="fill:none;stroke:#263238;stroke-linecap:round;stroke-linejoin:round"></line><line x1="377.7" y1="232.88" x2="388.95" y2="232.88" style="fill:none;stroke:#263238;stroke-linecap:round;stroke-linejoin:round"></line><line x1="388.16" y1="240.28" x2="404.96" y2="240.28" style="fill:none;stroke:#263238;stroke-linecap:round;stroke-linejoin:round"></line><line x1="377.7" y1="240.28" x2="379.34" y2="240.28" style="fill:none;stroke:#263238;stroke-linecap:round;stroke-linejoin:round"></line><line x1="394.8" y1="247.68" x2="404.96" y2="247.68" style="fill:none;stroke:#263238;stroke-linecap:round;stroke-linejoin:round"></line><line x1="377.7" y1="247.68" x2="380.19" y2="247.68" style="fill:none;stroke:#263238;stroke-linecap:round;stroke-linejoin:round"></line><polygon points="354 216.33 366.69 210.68 348.34 210.68 354 216.33" style="fill:#fff;stroke:#263238;stroke-linecap:round;stroke-linejoin:round"></polygon><polygon points="326.16 222.07 335.03 218.12 327.41 218.12 326.16 222.07" style="fill:#fff;stroke:#263238;stroke-linecap:round;stroke-linejoin:round"></polygon><polygon points="403.6 222.07 394.73 218.12 402.35 218.12 403.6 222.07" style="fill:#999;stroke:#263238;stroke-linecap:round;stroke-linejoin:round"></polygon><polygon points="396.11 244.23 387.24 240.28 400.14 240.28 396.11 244.23" style="fill:#999;stroke:#263238;stroke-linecap:round;stroke-linejoin:round"></polygon><polygon points="349.25 238.54 353.15 232.88 334.8 232.88 349.25 238.54" style="fill:#fff;stroke:#263238;stroke-linecap:round;stroke-linejoin:round"></polygon><polygon points="408.48 210.68 413.62 215.96 408.48 215.32 408.48 210.68" style="fill:#999;stroke:#263238;stroke-linecap:round;stroke-linejoin:round"></polygon><polygon points="323.89 203.28 315.24 210.31 323.89 209.68 323.89 203.28" style="fill:#fff;stroke:#263238;stroke-linecap:round;stroke-linejoin:round"></polygon><polygon points="323.89 240.71 318.76 247.75 323.89 247.11 323.89 240.71" style="fill:#fff;stroke:#263238;stroke-linecap:round;stroke-linejoin:round"></polygon><path d="M338.81,249.91s.44-3.74-6.72-5.68c-12.9-3.49-20.57,3.87-20.64,3.93-3,2.71-1.44,7.13,2.37,7.12h8.26Z" style="fill:#fff;stroke:#263238;stroke-linecap:round;stroke-linejoin:round"></path><path d="M323.85,248.85h13.22a1.73,1.73,0,0,1,1.73,1.73v4.57a0,0,0,0,1,0,0H322.12a0,0,0,0,1,0,0v-4.57A1.73,1.73,0,0,1,323.85,248.85Z" transform="translate(660.92 504) rotate(180)" style="fill:#fff;stroke:#263238;stroke-linecap:round;stroke-linejoin:round"></path><path d="M338.81,248.87c0-2.39-3.74-4.33-8.35-4.33s-8.34,1.94-8.34,4.33Z" style="fill:#fff;stroke:#263238;stroke-linecap:round;stroke-linejoin:round"></path><path d="M322.12,248.87c0-2.39,3.73-4.33,8.34-4.33v4.33Z" style="fill:#fff;stroke:#263238;stroke-linecap:round;stroke-linejoin:round"></path><polygon points="210.11 254.24 235.03 254.24 235.03 248.15 210.11 250.76 210.11 254.24" style="fill:#999;stroke:#263238;stroke-linecap:round;stroke-linejoin:round"></polygon><rect x="235.04" y="248.15" width="55.4" height="6.1" transform="translate(525.47 502.39) rotate(180)" style="fill:#5c5c5c;stroke:#263238;stroke-linecap:round;stroke-linejoin:round"></rect><path d="M242.47,166.43h7l-7.18,68.29h-7a2.59,2.59,0,0,1-2.62-2.93l6.57-62.44A3.32,3.32,0,0,1,242.47,166.43Z" style="fill:#fff;stroke:#263238;stroke-linecap:round;stroke-linejoin:round"></path><path d="M238.57,234.72H327.1a3.32,3.32,0,0,0,3.23-2.93l6.57-62.44a2.59,2.59,0,0,0-2.62-2.92H245.75a3.32,3.32,0,0,0-3.23,2.92L236,231.79A2.59,2.59,0,0,0,238.57,234.72Z" style="fill:#999;stroke:#263238;stroke-linecap:round;stroke-linejoin:round"></path><line x1="269.33" y1="171.59" x2="276.54" y2="171.59" style="fill:none;stroke:#263238;stroke-linecap:round;stroke-linejoin:round"></line><path d="M244.74,194.69l1.8-15a9.16,9.16,0,0,1,9.09-8.07h9.71" style="fill:none;stroke:#263238;stroke-linecap:round;stroke-linejoin:round"></path><rect x="269.33" y="248.77" width="44.03" height="7.03" transform="translate(582.69 504.57) rotate(180)" style="fill:#5c5c5c;stroke:#263238;stroke-linecap:round;stroke-linejoin:round"></rect><rect x="256.45" y="248.77" width="12.88" height="7.03" transform="translate(525.78 504.57) rotate(180)" style="fill:#263238;stroke:#263238;stroke-linecap:round;stroke-linejoin:round"></rect><path d="M291.72,219a7.9,7.9,0,0,0-6-6.7,6.38,6.38,0,0,1,1.65-.23,7.89,7.89,0,0,1,7.66,6.93,6.13,6.13,0,0,1-6.2,6.93,7.41,7.41,0,0,1-1.7-.23A6.07,6.07,0,0,0,291.72,219Z" style="fill:#263238;stroke:#263238;stroke-linecap:round;stroke-linejoin:round"></path><path d="M276,207.07l4.39,41.7h-3.34l-4.39-41.7a1.6,1.6,0,0,1,1.63-1.81h3.34A1.61,1.61,0,0,0,276,207.07Z" style="fill:#263238;stroke:#263238;stroke-linecap:round;stroke-linejoin:round"></path><path d="M276,207.07l4.39,41.7h21.71l-4.38-41.7a2.06,2.06,0,0,0-2-1.81H277.65A1.61,1.61,0,0,0,276,207.07Zm11.39,5a7.89,7.89,0,0,1,7.66,6.93,6.13,6.13,0,0,1-6.2,6.93,7.88,7.88,0,0,1-7.66-6.93A6.12,6.12,0,0,1,287.41,212.08Z" style="fill:#5c5c5c;stroke:#263238;stroke-linecap:round;stroke-linejoin:round"></path><rect x="176.61" y="266.15" width="227.37" height="19.47" transform="translate(580.59 551.77) rotate(180)" style="fill:#5c5c5c;stroke:#263238;stroke-linecap:round;stroke-linejoin:round"></rect><rect x="95.67" y="266.15" width="80.94" height="19.47" transform="translate(272.28 551.77) rotate(180)" style="fill:#5c5c5c;stroke:#263238;stroke-linecap:round;stroke-linejoin:round"></rect><rect x="186.07" y="255.15" width="225.22" height="11" transform="translate(597.35 521.3) rotate(180)" style="fill:#92E3A9;stroke:#263238;stroke-linecap:round;stroke-linejoin:round"></rect><rect x="88.37" y="255.15" width="97.7" height="11" transform="translate(274.43 521.3) rotate(180)" style="fill:#92E3A9"></rect><g style="clip-path:url(#freepik--clip-path-3--inject-37)"><rect x="88.37" y="255.15" width="97.7" height="11" transform="translate(274.43 521.3) rotate(180)" style="opacity:0.30000000000000004"></rect></g><rect x="88.37" y="255.15" width="97.7" height="11" transform="translate(274.43 521.3) rotate(180)" style="fill:none;stroke:#263238;stroke-linecap:round;stroke-linejoin:round"></rect><polygon points="391.64 445.05 396.57 445.05 398.32 285.62 391.64 285.62 391.64 445.05" style="fill:#999;stroke:#263238;stroke-linecap:round;stroke-linejoin:round"></polygon><polygon points="386.72 445.05 391.64 445.05 391.64 285.62 384.96 285.62 386.72 445.05" style="fill:#858585;stroke:#263238;stroke-linecap:round;stroke-linejoin:round"></polygon><polygon points="326.63 445.05 331.55 445.05 333.31 285.62 326.63 285.62 326.63 445.05" style="fill:#999;stroke:#263238;stroke-linecap:round;stroke-linejoin:round"></polygon><polygon points="321.7 445.05 326.63 445.05 326.63 285.62 319.94 285.62 321.7 445.05" style="fill:#858585;stroke:#263238;stroke-linecap:round;stroke-linejoin:round"></polygon><polygon points="173.03 445.05 177.95 445.05 179.71 285.62 173.03 285.62 173.03 445.05" style="fill:#999;stroke:#263238;stroke-linecap:round;stroke-linejoin:round"></polygon><polygon points="168.1 445.05 173.03 445.05 173.03 285.62 166.34 285.62 168.1 445.05" style="fill:#858585;stroke:#263238;stroke-linecap:round;stroke-linejoin:round"></polygon><polygon points="108 445.05 112.93 445.05 114.69 285.62 108 285.62 108 445.05" style="fill:#999;stroke:#263238;stroke-linecap:round;stroke-linejoin:round"></polygon><polygon points="103.08 445.05 108 445.05 108 285.62 101.33 285.62 103.08 445.05" style="fill:#858585;stroke:#263238;stroke-linecap:round;stroke-linejoin:round"></polygon><path d="M201.83,224H206l3.1-17.93a2.06,2.06,0,0,0-2-2.41h0a2.05,2.05,0,0,0-2,1.71Z" style="fill:#263238;stroke:#263238;stroke-linecap:round;stroke-linejoin:round"></path><path d="M189.52,224h4.38l-1.67-16.61a1.07,1.07,0,0,0-1.07-1H189a1.07,1.07,0,0,0-1.07,1.19Z" style="fill:#fff;stroke:#263238;stroke-linecap:round;stroke-linejoin:round"></path><polygon points="197.29 224.02 200.07 224.02 201.83 204.31 199.05 204.31 197.29 224.02" style="fill:#999;stroke:#263238;stroke-linecap:round;stroke-linejoin:round"></polygon><path d="M192.23,214.17H205a4,4,0,0,1,4,4v37.29a0,0,0,0,1,0,0H188.2a0,0,0,0,1,0,0V218.19A4,4,0,0,1,192.23,214.17Z" transform="translate(397.21 469.65) rotate(180)" style="fill:#fff;stroke:#263238;stroke-linecap:round;stroke-linejoin:round"></path><path d="M205.49,225.27v25a1.94,1.94,0,0,1-1.93,1.94h-7.38" style="fill:none;stroke:#263238;stroke-linecap:round;stroke-linejoin:round"></path><line x1="205.49" y1="219.24" x2="205.49" y2="222.07" style="fill:none;stroke:#263238;stroke-linecap:round;stroke-linejoin:round"></line></g><g id="freepik--Plant--inject-37"><rect x="89.63" y="399.11" width="40.81" height="45.57" transform="translate(220.07 843.8) rotate(180)" style="fill:#999;stroke:#263238;stroke-linecap:round;stroke-linejoin:round"></rect><rect x="130.24" y="399.11" width="27.7" height="45.57" style="fill:#fff;stroke:#263238;stroke-linecap:round;stroke-linejoin:round"></rect><path d="M89.87,389.82a23,23,0,0,0,13.15,4,3.32,3.32,0,0,0,1.62-.32,1.63,1.63,0,0,0,.87-1.47,2.39,2.39,0,0,0-1.15-1.62,38.52,38.52,0,0,0-9.54-5.19,35.38,35.38,0,0,0-5.2-1.49c-1.42-.3-2.93-1-4.35-1C85,385.83,87.8,388.43,89.87,389.82Z" style="fill:#92E3A9"></path><path d="M145.93,372.12a11.58,11.58,0,0,1,7.77-4.48.63.63,0,0,1,.5.09.94.94,0,0,1,.23.71,18.61,18.61,0,0,1-3.35,11,8.47,8.47,0,0,1-3.82,3.23,4.24,4.24,0,0,1-3.5-.21c-1.06-.6-.86-1.47-.76-2.66A14.8,14.8,0,0,1,145.93,372.12Z" style="fill:#92E3A9"></path><path d="M145.93,372.12a11.58,11.58,0,0,1,7.77-4.48.63.63,0,0,1,.5.09.94.94,0,0,1,.23.71,18.61,18.61,0,0,1-3.35,11,8.47,8.47,0,0,1-3.82,3.23,4.24,4.24,0,0,1-3.5-.21c-1.06-.6-.86-1.47-.76-2.66A14.8,14.8,0,0,1,145.93,372.12Z" style="opacity:0.2"></path><path d="M126.91,375.72a10.89,10.89,0,0,0,2.58-6.53,11.47,11.47,0,0,0-1.61-5.77,31.12,31.12,0,0,0-3.49-4.68A102.66,102.66,0,0,0,124,372.1a7.11,7.11,0,0,0,.49,2.76,2,2,0,0,0,2,1.26Z" style="fill:#92E3A9"></path><path d="M132.55,362.16a17.24,17.24,0,0,0-4.7,11,8.72,8.72,0,0,0,.67,4.31,3.44,3.44,0,0,0,3.18,2.15c1.35-.15,2.4-1.4,3.17-2.68,1.27-2.12,2.82-5.15,2.09-7.77A14,14,0,0,0,132.55,362.16Z" style="fill:#92E3A9"></path><path d="M132.55,362.16a17.24,17.24,0,0,0-4.7,11,8.72,8.72,0,0,0,.67,4.31,3.44,3.44,0,0,0,3.18,2.15c1.35-.15,2.4-1.4,3.17-2.68,1.27-2.12,2.82-5.15,2.09-7.77A14,14,0,0,0,132.55,362.16Z" style="opacity:0.1"></path><path d="M140.9,376.89c2.24-2.1,3.16-5.6,3.06-8.89a36.11,36.11,0,0,0-2.05-9.57,39.87,39.87,0,0,0-5.27,10,13.56,13.56,0,0,0-1,4.31,5.65,5.65,0,0,0,1.37,4,2.72,2.72,0,0,0,3.63.38l-.37.23Z" style="fill:#92E3A9"></path><g style="opacity:0.2"><path d="M140.9,376.89c2.24-2.1,3.16-5.6,3.06-8.89a36.11,36.11,0,0,0-2.05-9.57,39.87,39.87,0,0,0-5.27,10,13.56,13.56,0,0,0-1,4.31,5.65,5.65,0,0,0,1.37,4,2.72,2.72,0,0,0,3.63.38l-.37.23Z"></path></g><path d="M146,364c.56,4.07,1.11,8.24.42,12.28s-2.86,8-6.26,9.43c-1.42.59-3.24.6-4.19-.73a4.08,4.08,0,0,1-.42-3.29,11.34,11.34,0,0,1,1.46-3c2.72-4.42,8.38-15.12,8.95-14.67Z" style="fill:#92E3A9"></path><path d="M146,364c.56,4.07,1.11,8.24.42,12.28s-2.86,8-6.26,9.43c-1.42.59-3.24.6-4.19-.73a4.08,4.08,0,0,1-.42-3.29,11.34,11.34,0,0,1,1.46-3c2.72-4.42,8.38-15.12,8.95-14.67Z" style="fill:#92E3A9"></path><g style="opacity:0.1"><path d="M146,364c.56,4.07,1.11,8.24.42,12.28s-2.86,8-6.26,9.43c-1.42.59-3.24.6-4.19-.73a4.08,4.08,0,0,1-.42-3.29,11.34,11.34,0,0,1,1.46-3c2.72-4.42,8.38-15.12,8.95-14.67Z"></path></g><path d="M135.5,369.46a24.57,24.57,0,0,1,2.91,7.82,13.65,13.65,0,0,1-1,8.27c-1.25,2.46-3.59,4.28-6.1,4.3a5.73,5.73,0,0,1-4.88-3c-1.16-2-.32-3.88.57-5.87C129,376.44,132.28,372.88,135.5,369.46Z" style="fill:#92E3A9"></path><path d="M160.48,377a4.69,4.69,0,0,1,.2,3.95,9.85,9.85,0,0,1-2.19,3.26,27,27,0,0,1-22.71,8.68A2.2,2.2,0,0,1,134,392a2,2,0,0,1,.56-2.27,4.73,4.73,0,0,1,2.12-.88,36.18,36.18,0,0,0,11.87-5.41C152.19,380.85,156.56,379.1,160.48,377Z" style="fill:#92E3A9"></path><path d="M160.48,377a4.69,4.69,0,0,1,.2,3.95,9.85,9.85,0,0,1-2.19,3.26,27,27,0,0,1-22.71,8.68A2.2,2.2,0,0,1,134,392a2,2,0,0,1,.56-2.27,4.73,4.73,0,0,1,2.12-.88,36.18,36.18,0,0,0,11.87-5.41C152.19,380.85,156.56,379.1,160.48,377Z" style="opacity:0.1"></path><path d="M146,377c.61-.9,1.37-1.94,2.37-1.83.77.09,1.34.87,1.66,1.67,1.3,3.26-.26,7.25-2.74,9.45s-5.67,3-8.74,3.81l-3.16.8c-1.26.31-3.78-.11-2.66-2.1.75-1.33,3.27-2.08,4.43-2.87A33,33,0,0,0,146,377Z" style="fill:#92E3A9"></path><path d="M159,389.82a23,23,0,0,1-13.16,4,3.36,3.36,0,0,1-1.62-.32,1.62,1.62,0,0,1-.86-1.47,2.36,2.36,0,0,1,1.15-1.62,38.52,38.52,0,0,1,9.54-5.19,35.38,35.38,0,0,1,5.2-1.49c1.41-.3,2.92-1,4.35-1C163.91,385.83,161.11,388.43,159,389.82Z" style="fill:#92E3A9"></path><path d="M146.29,402a20.19,20.19,0,0,0,10.8-4.56c.61-.48,1.27-1.25,1-2a1.77,1.77,0,0,0-1.25-.95c-3.67-1.23-7.42-2.47-11.24-2.31a12.87,12.87,0,0,0-5.27,1.36c-1.29.65-4,2.26-4.34,4s3,3.1,4.19,3.58A14.08,14.08,0,0,0,146.29,402Z" style="fill:#92E3A9"></path><path d="M146.29,402a20.19,20.19,0,0,0,10.8-4.56c.61-.48,1.27-1.25,1-2a1.77,1.77,0,0,0-1.25-.95c-3.67-1.23-7.42-2.47-11.24-2.31a12.87,12.87,0,0,0-5.27,1.36c-1.29.65-4,2.26-4.34,4s3,3.1,4.19,3.58A14.08,14.08,0,0,0,146.29,402Z" style="opacity:0.1"></path><path d="M131,392.41a33.4,33.4,0,0,1,11.49-.62,6.51,6.51,0,0,1,2.76.79,3.23,3.23,0,0,1,1.57,2.56,3.36,3.36,0,0,1-1.42,2.69,7.9,7.9,0,0,1-2.71,1.1c-2.76.73-5.6,1.43-8.42,1.05a8.63,8.63,0,0,1-5.85-3.21C126.66,394.28,129,392.87,131,392.41Z" style="fill:#92E3A9"></path><path d="M131,392.41a33.4,33.4,0,0,1,11.49-.62,6.51,6.51,0,0,1,2.76.79,3.23,3.23,0,0,1,1.57,2.56,3.36,3.36,0,0,1-1.42,2.69,7.9,7.9,0,0,1-2.71,1.1c-2.76.73-5.6,1.43-8.42,1.05a8.63,8.63,0,0,1-5.85-3.21C126.66,394.28,129,392.87,131,392.41Z" style="fill:#fff;opacity:0.1"></path><path d="M119.47,392.37a6,6,0,0,1-1.88-2.07,2.72,2.72,0,0,1,.18-2.8c.87-1,5.74-2.49,7-2.77a4.84,4.84,0,0,1,3,.64c1.4.65,2.77,1.35,4.13,2.09a6.34,6.34,0,0,1,1.87,1.39,2.79,2.79,0,0,1,.66,2.33A3.34,3.34,0,0,1,132,393.3a21.93,21.93,0,0,1-8.08,1.28C124.14,394.54,120.68,393.3,119.47,392.37Z" style="fill:#92E3A9"></path><g style="opacity:0.1"><path d="M119.47,392.37a6,6,0,0,1-1.88-2.07,2.72,2.72,0,0,1,.18-2.8c.87-1,5.74-2.49,7-2.77a4.84,4.84,0,0,1,3,.64c1.4.65,2.77,1.35,4.13,2.09a6.34,6.34,0,0,1,1.87,1.39,2.79,2.79,0,0,1,.66,2.33A3.34,3.34,0,0,1,132,393.3a21.93,21.93,0,0,1-8.08,1.28C124.14,394.54,120.68,393.3,119.47,392.37Z"></path></g><path d="M129.35,394.29a4.61,4.61,0,0,1,2.9,2.44,3.51,3.51,0,0,1-.56,3.85,4.26,4.26,0,0,1-2.56.85l-3.32.33a2.68,2.68,0,0,1-2-.35c-.78-.63-.85-1.88-.84-3a9.07,9.07,0,0,1,.37-3,2.17,2.17,0,0,1,2.41-1.65A26.17,26.17,0,0,1,129.35,394.29Z" style="fill:#92E3A9"></path><path d="M103,372.12a11.56,11.56,0,0,0-7.77-4.48.63.63,0,0,0-.5.09.9.9,0,0,0-.22.71,18.6,18.6,0,0,0,3.34,11,8.58,8.58,0,0,0,3.82,3.23,4.24,4.24,0,0,0,3.5-.21c1.06-.6.87-1.47.76-2.66A14.8,14.8,0,0,0,103,372.12Z" style="fill:#92E3A9"></path><path d="M103,372.12a11.56,11.56,0,0,0-7.77-4.48.63.63,0,0,0-.5.09.9.9,0,0,0-.22.71,18.6,18.6,0,0,0,3.34,11,8.58,8.58,0,0,0,3.82,3.23,4.24,4.24,0,0,0,3.5-.21c1.06-.6.87-1.47.76-2.66A14.8,14.8,0,0,0,103,372.12Z" style="opacity:0.2"></path><path d="M122,375.72a10.89,10.89,0,0,1-2.58-6.53,11.38,11.38,0,0,1,1.62-5.77,30.39,30.39,0,0,1,3.48-4.68,102.66,102.66,0,0,1,.36,13.36,7.12,7.12,0,0,1-.5,2.76,1.94,1.94,0,0,1-2,1.26Z" style="fill:#92E3A9"></path><path d="M116.35,362.16a17.3,17.3,0,0,1,4.71,11,8.83,8.83,0,0,1-.67,4.31,3.44,3.44,0,0,1-3.18,2.15c-1.36-.15-2.41-1.4-3.17-2.68-1.27-2.12-2.82-5.15-2.1-7.77A14.09,14.09,0,0,1,116.35,362.16Z" style="fill:#92E3A9"></path><path d="M116.35,362.16a17.3,17.3,0,0,1,4.71,11,8.83,8.83,0,0,1-.67,4.31,3.44,3.44,0,0,1-3.18,2.15c-1.36-.15-2.41-1.4-3.17-2.68-1.27-2.12-2.82-5.15-2.1-7.77A14.09,14.09,0,0,1,116.35,362.16Z" style="opacity:0.1"></path><path d="M108,376.89c-2.25-2.1-3.16-5.6-3.06-8.89a36.11,36.11,0,0,1,2-9.57,39.87,39.87,0,0,1,5.27,10,13.54,13.54,0,0,1,1,4.31,5.65,5.65,0,0,1-1.37,4,2.72,2.72,0,0,1-3.63.38l.38.23Z" style="fill:#92E3A9"></path><g style="opacity:0.2"><path d="M108,376.89c-2.25-2.1-3.16-5.6-3.06-8.89a36.11,36.11,0,0,1,2-9.57,39.87,39.87,0,0,1,5.27,10,13.54,13.54,0,0,1,1,4.31,5.65,5.65,0,0,1-1.37,4,2.72,2.72,0,0,1-3.63.38l.38.23Z"></path></g><path d="M102.89,364c-.56,4.07-1.11,8.24-.43,12.28s2.87,8,6.27,9.43c1.41.59,3.24.6,4.19-.73a4.08,4.08,0,0,0,.41-3.29,11.34,11.34,0,0,0-1.46-3c-2.71-4.42-8.37-15.12-9-14.67Z" style="fill:#92E3A9"></path><path d="M102.89,364c-.56,4.07-1.11,8.24-.43,12.28s2.87,8,6.27,9.43c1.41.59,3.24.6,4.19-.73a4.08,4.08,0,0,0,.41-3.29,11.34,11.34,0,0,0-1.46-3c-2.71-4.42-8.37-15.12-9-14.67Z" style="fill:#92E3A9"></path><g style="opacity:0.1"><path d="M102.89,364c-.56,4.07-1.11,8.24-.43,12.28s2.87,8,6.27,9.43c1.41.59,3.24.6,4.19-.73a4.08,4.08,0,0,0,.41-3.29,11.34,11.34,0,0,0-1.46-3c-2.71-4.42-8.37-15.12-9-14.67Z"></path></g><path d="M113.4,369.46a24.55,24.55,0,0,0-2.9,7.82,13.65,13.65,0,0,0,1,8.27c1.25,2.46,3.6,4.28,6.1,4.3a5.74,5.74,0,0,0,4.89-3c1.16-2,.31-3.88-.57-5.87C120,376.44,116.62,372.88,113.4,369.46Z" style="fill:#92E3A9"></path><path d="M88.42,377.3a4.55,4.55,0,0,0-.2,3.87,9.46,9.46,0,0,0,2.15,3.19,26.44,26.44,0,0,0,22.26,8.51,2.13,2.13,0,0,0,1.77-.9,1.94,1.94,0,0,0-.55-2.22,4.56,4.56,0,0,0-2.07-.86,35.42,35.42,0,0,1-11.64-5.31C96.54,381.1,92.26,379.37,88.42,377.3Z" style="fill:#92E3A9"></path><path d="M88.42,377.3a4.55,4.55,0,0,0-.2,3.87,9.46,9.46,0,0,0,2.15,3.19,26.44,26.44,0,0,0,22.26,8.51,2.13,2.13,0,0,0,1.77-.9,1.94,1.94,0,0,0-.55-2.22,4.56,4.56,0,0,0-2.07-.86,35.42,35.42,0,0,1-11.64-5.31C96.54,381.1,92.26,379.37,88.42,377.3Z" style="opacity:0.1"></path><path d="M102.23,376.69c-.6-.88-1.35-1.91-2.33-1.8-.76.09-1.31.86-1.63,1.65-1.27,3.2.25,7.11,2.69,9.27s5.56,3,8.58,3.74l3.11.79c1.23.31,3.7-.11,2.6-2.06-.74-1.31-3.2-2-4.35-2.82A32.32,32.32,0,0,1,102.23,376.69Z" style="fill:#92E3A9"></path><path d="M102.61,402a20.12,20.12,0,0,1-10.79-4.56c-.61-.48-1.28-1.25-1-2a1.77,1.77,0,0,1,1.25-.95c3.67-1.23,7.42-2.47,11.25-2.31a13,13,0,0,1,5.27,1.36c1.29.65,4,2.26,4.34,4s-3,3.1-4.19,3.58A14.12,14.12,0,0,1,102.61,402Z" style="fill:#92E3A9"></path><path d="M102.61,402a20.12,20.12,0,0,1-10.79-4.56c-.61-.48-1.28-1.25-1-2a1.77,1.77,0,0,1,1.25-.95c3.67-1.23,7.42-2.47,11.25-2.31a13,13,0,0,1,5.27,1.36c1.29.65,4,2.26,4.34,4s-3,3.1-4.19,3.58A14.12,14.12,0,0,1,102.61,402Z" style="opacity:0.1"></path><path d="M117.93,392.41a33.47,33.47,0,0,0-11.5-.62,6.55,6.55,0,0,0-2.76.79,3.22,3.22,0,0,0-1.56,2.56,3.36,3.36,0,0,0,1.42,2.69,7.93,7.93,0,0,0,2.7,1.1c2.77.73,5.61,1.43,8.43,1.05a8.63,8.63,0,0,0,5.85-3.21C122.25,394.28,120,392.87,117.93,392.41Z" style="fill:#92E3A9"></path><path d="M117.93,392.41a33.47,33.47,0,0,0-11.5-.62,6.55,6.55,0,0,0-2.76.79,3.22,3.22,0,0,0-1.56,2.56,3.36,3.36,0,0,0,1.42,2.69,7.93,7.93,0,0,0,2.7,1.1c2.77.73,5.61,1.43,8.43,1.05a8.63,8.63,0,0,0,5.85-3.21C122.25,394.28,120,392.87,117.93,392.41Z" style="fill:#fff;opacity:0.1"></path><path d="M129.44,392.37a5.82,5.82,0,0,0,1.87-2.07,2.72,2.72,0,0,0-.17-2.8c-.88-1-5.74-2.49-7-2.77a4.86,4.86,0,0,0-3,.64c-1.39.65-2.77,1.35-4.12,2.09a6.38,6.38,0,0,0-1.88,1.39,2.78,2.78,0,0,0-.65,2.33,3.31,3.31,0,0,0,2.39,2.12,21.9,21.9,0,0,0,8.08,1.28C124.77,394.54,128.23,393.3,129.44,392.37Z" style="fill:#92E3A9"></path><g style="opacity:0.1"><path d="M129.44,392.37a5.82,5.82,0,0,0,1.87-2.07,2.72,2.72,0,0,0-.17-2.8c-.88-1-5.74-2.49-7-2.77a4.86,4.86,0,0,0-3,.64c-1.39.65-2.77,1.35-4.12,2.09a6.38,6.38,0,0,0-1.88,1.39,2.78,2.78,0,0,0-.65,2.33,3.31,3.31,0,0,0,2.39,2.12,21.9,21.9,0,0,0,8.08,1.28C124.77,394.54,128.23,393.3,129.44,392.37Z"></path></g><path d="M119.55,394.29a4.64,4.64,0,0,0-2.9,2.44,3.51,3.51,0,0,0,.57,3.85,4.23,4.23,0,0,0,2.55.85l3.33.33a2.68,2.68,0,0,0,2-.35c.77-.63.84-1.88.83-3a8.59,8.59,0,0,0-.37-3,2.16,2.16,0,0,0-2.41-1.65A26.61,26.61,0,0,0,119.55,394.29Z" style="fill:#92E3A9"></path><path d="M125,370.5a2.28,2.28,0,0,0-.59-.36.38.38,0,0,1,.2,0,.19.19,0,0,1,.12,0h0a.26.26,0,0,1,.11.08l.09.12a.33.33,0,0,1,0,.12A.05.05,0,0,1,125,370.5Z" style="fill:#92E3A9"></path><path d="M125,370.5h0a2.28,2.28,0,0,0-.59-.36.38.38,0,0,1,.2,0,.19.19,0,0,1,.12,0h0a.26.26,0,0,1,.11.08l.09.12a.33.33,0,0,1,0,.12A.05.05,0,0,1,125,370.5Z" style="fill:#92E3A9;opacity:0.1"></path><path d="M129.18,381.79a9.07,9.07,0,0,1-1.72,3,3.81,3.81,0,0,1-2.88,1.4h-.26a3.84,3.84,0,0,1-2.88-1.4,9.42,9.42,0,0,1-1.72-3,9.87,9.87,0,0,1-.71-4.68,8.09,8.09,0,0,1,2.34-4.49c.3,0,1.28-1.14,1.58-1.37l.09-.06.09-.08c.21-.16.49-.41.76-.62l.37-.25.11-.05a.24.24,0,0,1,.1-.05,2.28,2.28,0,0,1,.59.36h0c.37.27.74.61.93.75s1.28,1.37,1.59,1.37a8.08,8.08,0,0,1,2.33,4.49A9.75,9.75,0,0,1,129.18,381.79Z" style="fill:#92E3A9"></path><path d="M124.45,370.14a.24.24,0,0,0-.1.05l-.11.05-.37.25c.09-.23.21-.38.39-.39A.36.36,0,0,1,124.45,370.14Z" style="fill:#92E3A9"></path><g style="opacity:0.2"><path d="M129.18,381.79a9.07,9.07,0,0,1-1.72,3,3.81,3.81,0,0,1-2.88,1.4h-.26a3.84,3.84,0,0,1-2.88-1.4,9.42,9.42,0,0,1-1.72-3,9.87,9.87,0,0,1-.71-4.68,8.09,8.09,0,0,1,2.34-4.49c.3,0,1.28-1.14,1.58-1.37s.58-.48.94-.76a2.35,2.35,0,0,1,.58-.35,2.13,2.13,0,0,1,.59.36c.37.27.74.61.93.75s1.28,1.37,1.59,1.37a8.08,8.08,0,0,1,2.33,4.49A9.75,9.75,0,0,1,129.18,381.79Z" style="fill:#fff"></path><path d="M124.45,370.14a2.35,2.35,0,0,0-.58.35c.09-.23.21-.38.39-.39A.36.36,0,0,1,124.45,370.14Z" style="fill:#fff"></path></g><path d="M125,370.5a2.13,2.13,0,0,0-.59-.36.38.38,0,0,1,.2,0C124.82,370.11,125,370.26,125,370.5Z" style="fill:#fff;opacity:0.1"></path></g><g id="freepik--Lamp--inject-37"><g id="freepik--lamp--inject-37"><polyline points="266.44 32.76 266.44 48.7 262.5 48.7" style="fill:none;stroke:#263238;stroke-linecap:round;stroke-linejoin:round"></polyline><line x1="262.5" y1="48.7" x2="262.5" y2="32.76" style="fill:none;stroke:#263238;stroke-linecap:round;stroke-linejoin:round"></line><path d="M262.5,46.3a35.08,35.08,0,0,0-35.08,35.08h70.16A35.09,35.09,0,0,0,262.5,46.3Z" style="fill:#fff"></path><g style="clip-path:url(#freepik--clip-path-4--inject-37)"><path d="M256,46.91q1.61-.3,3.24-.45a35.08,35.08,0,0,1,31.83,34.92h-6.5A35.08,35.08,0,0,0,256,46.91Z" style="fill:#999"></path></g><path d="M262.5,46.3a35.08,35.08,0,0,0-35.08,35.08h70.16A35.09,35.09,0,0,0,262.5,46.3Z" style="fill:none;stroke:#263238;stroke-linecap:round;stroke-linejoin:round"></path></g></g></svg>
