<svg xmlns="http://www.w3.org/2000/svg" viewBox="0 0 500 500"><g id="freepik--Earth--inject-103"><ellipse cx="290.89" cy="179.46" rx="100.77" ry="101.45" style="fill:#D8AFF0"></ellipse><g style="opacity:0.30000000000000004"><path d="M253.57,224.68c.53-4.41,4-8.89,2-12.88-2.22-4.45-8.68-3.73-13.22-5.72-6.34-2.79-8.31-10.67-12.45-16.23-3.72-5-12.39-10.45-19-8.95-4.78,1.09-6.42,3.94-6.92,7.45l-.6-.1c-1.77-.19-3.85-.28-4.82-1.75-1.13-1.71,0-4.24-1.18-5.92a9.32,9.32,0,0,0-2.52-1.88c-.86-.6-1.59-1.75-1.07-2.68s1.55-.94,2.11-1.65a1.64,1.64,0,0,0,0-2c-1.82-2.15-3.84,2.24-4.85,3.27a11,11,0,0,1-.81.77h0a5.25,5.25,0,0,0,0,.56c0,.6,0,1.21,0,1.82s0,1.21,0,1.82,0,1,0,1.47,0,1,0,1.48a16.92,16.92,0,0,1,3.11,1.53c2,1.13,4.14,2.63,4.27,4.89a1.93,1.93,0,0,0,.21,1.07,1.53,1.53,0,0,0,.94.48,27.56,27.56,0,0,0,5.12.71c0,2,.17,4.15.14,6.16-.05,2.92-1,5.8-.69,8.69.47,4.08,3.31,7.43,5.78,10.71,9.4,12.56,14.47,27,20,41.74h0c1,.81,2.48,1.89,3.53,2.64.83.6,1.59,1.12,2.44,1.69s1.61,1.06,2.48,1.6c.6.39.73.49,1.36.86-.08-.18.07.12,0,0-2.22-4.86-2.22-11.6,2.54-14a10.87,10.87,0,0,0,2.7-1.42c2.12-2,.38-6.15,2.5-8.16,1.2-1.12,3.06-1,4.54-1.71,2.67-1.23,3.53-4.64,3.32-7.57S253.24,227.6,253.57,224.68Z"></path></g><g style="opacity:0.30000000000000004"><path d="M196.38,150.42c1.88-1.61,5.13-1.8,6.58.21,1,1.43.8,3.4.53,5.15-.37,2.36-.73,4.72-1.12,7.08a3.73,3.73,0,0,0,.1,2.12c.7,1.5,3.16,1.21,4.1-.13s.84-3.17.59-4.8-.59-3.36,0-4.89c1.6-3.8,7.26-3.22,10.54-5.69,2-1.53,2.95-4.1,4.16-6.35s3.24-4.5,5.79-4.38c.86,0,1.71.35,2.57.32,2.52-.08,4-3.77,2.2-5.55a6.75,6.75,0,0,1-1.12-1.15,2.07,2.07,0,0,1,.8-2.5,5.89,5.89,0,0,1,2.68-.86c2.15-.36,4.3-.69,6.45-1,2.38-.37,5.42-1.6,5.09-4-.29-2.06-3.08-3-3.49-5a7,7,0,0,0-.27-1.5c-.66-1.3-2.62-.78-3.88-.08a3.12,3.12,0,0,0-4.73-1.51c-1.28,1-1.44,2.9-1.88,4.48-1.06,3.83-4.1,6.73-7,9.42a5.85,5.85,0,0,1-3.4,1.92c-1.32.06-2.71-1.36-2.1-2.52.41-.8,1.56-1.26,1.45-2.16-.16-1.11-2.11-1-2.49-2.1.77-3.16,4.39-4.46,7.16-6.15a17.38,17.38,0,0,0,7.32-9,2.26,2.26,0,0,0,.09-1.85c-.41-.79-1.48-.92-2.39-.92-2.14,0-4.8.26-5.58,2.25-.41,1.07-.11,2.28-.37,3.39-.74,3.32-5.29,3.69-8.06,5.66a25,25,0,0,1-3.13,2.43,11.75,11.75,0,0,1-4.24.68c-.25,0-.9,0-1.16,0-.88,1.22-1.57,2.33-2.38,3.59s-1.63,2.68-2.39,4a99.63,99.63,0,0,0-8.56,19.55c-.78,2.39-1.46,5-2.06,7.41s-1,4.8-1.43,7.32a28.75,28.75,0,0,0,1.82-6.34C193.73,154.55,194.51,152,196.38,150.42Z"></path></g><g style="opacity:0.30000000000000004"><path d="M281.06,104.84c.95-1.25.67-3,1.29-4.49,1-2.4,4.21-3.26,5.32-5.62.42-.91.53-2,1.27-2.7s1.54-.67,2.2-1.18c1.49-1.14.87-3.73-.71-4.73-3.95-2.53-11.22.39-14.63,2.86-4.39,3.18-8.69,7-14.53,6.63-1.61-.11-3.28-.55-4.79,0s-2.44,2.84-1.14,3.79c.72.53,1.75.39,2.56.76,1.51.7,1.66,2.88.92,4.37s-2.06,2.6-2.93,4a7.64,7.64,0,0,0-1.08,4.62,4.18,4.18,0,0,0,1.37,3c1.81,1.45,4.58.21,6.12-1.53s2.6-4,4.59-5.19a11.41,11.41,0,0,1,3.28-1.14l7.61-1.81A5.56,5.56,0,0,0,281.06,104.84Z"></path></g><g style="opacity:0.30000000000000004"><path d="M391.65,178.69c0-1.45-.06-2.89-.13-4.32s-.14-2.88-.28-4.3c-.11-1.15-.21-2.3-.37-3.43s-.32-2.57-.51-3.75a92.34,92.34,0,0,0-2.22-10.14c-.38-1.31-1-2.71-1.44-4s-.87-2.57-1.35-3.85h0c-.51-1-1.05-1.89-1.64-2.82-5.6-8.86-13.73-15.81-19.89-24.29-2-2.76-3.57-5-7.12-5.58-5.26-.82-7.93,2.18-11.66-2.81-1-1.34-2.75-2.58-4.24-1.79L342,110.8a1.46,1.46,0,0,1,.12.71c-.08.75-1.19.95-1.83.54a6.37,6.37,0,0,1-1.4-1.8,5.15,5.15,0,0,0-7.57-.62,2.88,2.88,0,0,0-1.68-2.36,3.46,3.46,0,0,1-4.34,2.79c-.3-1,1.44-1.15,2.05-2s-.12-1.87-.83-2.52a11,11,0,0,0-6.94-2.69c-1.61,0-3.35.27-4.75-.56-.81-.48-1.39-1.28-2.22-1.74-1.77-1-4-.08-5.77.91-2.44,1.35-5,3.06-5.82,5.72s1.06,6.24,3.83,5.9a5.53,5.53,0,0,1,2.12-.24,2.55,2.55,0,0,1,1.51,2.44,7.08,7.08,0,0,0,.47,3c.48.9,1.93,1.34,2.48.5,1.31-1.25,1.15-3.34.82-5.11s-.69-3.76.36-5.21,4.1-1,3.89.8c-.12,1-1.32,1.82-1.27,2.88s1.37,1.66,2.45,1.61,2.19-.43,3.24-.15,1.91,1.64,1.15,2.42c-1.33,1.5-4.77-1.07-5.45.8-.2.47,0,1,0,1.53-.13,1.56-2.09,2.13-3.65,2.32a8.56,8.56,0,0,1-4.64-.33c-1.42-.67-2.39-2.54-1.58-3.87a1.77,1.77,0,0,0-2.44.89,5.17,5.17,0,0,0-.18,2.9c-1.65-.37-3.14,1-4.08,2.42s-1.86,3-3.47,3.53-3.86-.18-4.71,1.29c-1.1,1.91,2.09,4.33,1,6.23-.64,1.07-2.17,1-3.38,1.37-3.21.91-4.32,5.6-2.14,8.1s6.55,2.36,8.86,0c1.62-1.64,2.27-3.95,3.43-5.93s3.37-3.75,5.57-3.11a6.75,6.75,0,0,1,2.28,1.43l3.2,2.7c.69.57,1.44,1.29,1.37,2.18-.06.72-.62,1.28-.86,1.95-.67,1.93,2.12,3.76,3.88,2.71s1.94-3.75.74-5.41c-1.65-2.29-5.4-3.44-5.3-6.28,1.91-1.56,4.92.08,6,2.3s1.15,4.81,2.09,7.09,3.57,4.32,5.77,3.21c-.58-2-1.13-3.94-1.71-5.9,1.41-1.05,3,2,4.69,1.5,1-.32,1.15-1.79.7-2.78s-1.23-1.81-1.42-2.88c-.32-1.95,1.85-3.69,3.81-3.37a5,5,0,0,1,3.73,4.12,9.79,9.79,0,0,0,.51,2.28c.74,1.53,2.63,2,4.2,2.63s3.2,2.21,2.55,3.78c-.31.68-1,1.33-.77,2s1.17.89,1.17,1.56c0,.44-.48.75-.9.92-1.05.43-2.2.58-3.22,1.07a2.91,2.91,0,0,0-1.86,2.58c.12,1.6,2,2.36,2.91,3.69s.74,2.93,1.28,4.37a15.76,15.76,0,0,0,2.41,3.49c2.64,3.6,3.27,8.24,4.56,12.51.57,1.93,1.62,4.08,3.6,4.45a6.07,6.07,0,0,0,3.19-.62c2.85-1.13,5.82-2.35,7.81-4.66s2.68-6.1.62-8.38a1.54,1.54,0,0,0-1-.62,2.92,2.92,0,0,0-1.5.52,4.27,4.27,0,0,1-4.45-1,12.42,12.42,0,0,1-2.64-4l-2.36-4.76a2.78,2.78,0,0,1,3.41.32,18,18,0,0,1,2.33,2.87c2.37,3,6.28,4.27,10.06,4.72a9.46,9.46,0,0,1,2.83.59c2.83,1.29,3.64,5.45,6.62,6.34a21.26,21.26,0,0,1,2.54.57,4.67,4.67,0,0,1,2.12,3.16c.65,2.35.87,4.82,1.86,7.05s3,4.25,5.39,4.29a5.65,5.65,0,0,0,4-1.74c.12-2.2.27-4.48.27-6.71C391.68,179.61,391.68,179.15,391.65,178.69Z"></path></g><g style="opacity:0.30000000000000004"><path d="M350.87,220.51c-1.5.29-1.8,1.18-2.62,2.29-1.06,1.44-2.58,2.89-3.55,4.32-1.63,2.42-.16,6.2-2.31,8.24A17.13,17.13,0,0,0,341,236.5a2.55,2.55,0,0,0,.52,3.52,3.48,3.48,0,0,0,3.76.07,5.54,5.54,0,0,0,2.3-3.15,5.23,5.23,0,0,1,1.16-2.57c1.24-1.08,3.15-.28,4.78-.51C360.4,232.89,357.44,219.21,350.87,220.51Z"></path></g><g style="opacity:0.30000000000000004"><path d="M353.21,201.48c4-3.44,5.58-11.21.64-13-1.87-.68-4-.13-5.88-.85-2.42-.94-3.55-3.65-4.42-6.1q-3.45-9.61-6.89-19.24c-1.38-3.86-3.48-8.34-7.54-8.91-2.31-.32-4.54.78-6.83,1.19-7.87,1.44-21.11-17.62-27.1-4.79-.84-3.49-6.5-2.18-8.31.92s-2.2,7.19-5.07,9.34c-2.19,1.64-5.4,1.74-7.18,3.81-1.26,1.46-1.48,3.51-1.64,5.43-.3,3.67-.6,7.33-.91,11-.24,2.95-.44,6.11,1,8.69s5.29,4,7.48,2c1-.92,1.43-2.31,2.25-3.4a5.7,5.7,0,0,1,5.88-2,9.87,9.87,0,0,1,4.48,3.15c10.25,11,13.92,26.75,14.37,41.8.09,2.76.09,5.59,1.1,8.15,1.19,3,3.69,5.44,4.43,8.58.57,2.42,0,5.07,1.07,7.33,1.91,4.15,8.28,4.32,11.75,1.35s4.67-7.77,5.38-12.29,1.15-9.27,3.68-13.07c1.57-2.37,3.87-4.26,5-6.87,1.53-3.65.4-8,1.82-11.68C343.65,207.1,349.23,204.92,353.21,201.48Z"></path></g></g><g id="freepik--Connection--inject-103"><path d="M225.81,373.86a26.88,26.88,0,1,1,24.61-24.6A26.91,26.91,0,0,1,225.81,373.86Z" style="fill:#fafafa"></path><path d="M225.81,373.86a26.88,26.88,0,1,1,24.61-24.6A26.91,26.91,0,0,1,225.81,373.86Z" style="fill:none"></path><path d="M225.81,373.86l.43-.08,1.27-.18a18.18,18.18,0,0,0,2-.41,22.66,22.66,0,0,0,2.71-.79,27,27,0,0,0,13.83-11,27.11,27.11,0,0,0,2.64-5.31,29.61,29.61,0,0,0,.87-3c.11-.53.24-1.05.33-1.59s.14-1.09.21-1.65a11.67,11.67,0,0,0,.09-1.68c0-.56,0-1.13,0-1.71-.06-1.14-.16-2.31-.32-3.48-.12-.59-.23-1.17-.35-1.76-.07-.29-.11-.59-.19-.88l-.28-.87c-.18-.58-.37-1.17-.56-1.76l-.75-1.7-.38-.86c-.14-.28-.31-.55-.47-.83l-1-1.65-1.14-1.56-.57-.79-.66-.73a26.15,26.15,0,0,0-6.08-5.15l-1.78-1c-.61-.31-1.25-.56-1.88-.85-.32-.13-.63-.29-1-.41l-1-.31a20.16,20.16,0,0,0-2-.6,29.31,29.31,0,0,0-8.49-.69,26.87,26.87,0,0,0-23.53,19.53,27.42,27.42,0,0,0-.92,7.23,10.28,10.28,0,0,0,.08,1.76l.15,1.74c.21,1.12.4,2.25.69,3.32a27.1,27.1,0,0,0,5.88,10.78,27.55,27.55,0,0,0,8.08,6.18l2,.89c.64.28,1.3.44,1.91.66a24,24,0,0,0,3.43.84,26,26,0,0,0,4.88.39h1.71l-.43,0-1.28.06a24.75,24.75,0,0,1-4.91-.3,23.1,23.1,0,0,1-3.47-.81c-.62-.2-1.29-.36-1.94-.64l-2-.88a27.3,27.3,0,0,1-14.26-17.11c-.3-1.09-.49-2.23-.72-3.37l-.15-1.76a11.93,11.93,0,0,1-.09-1.79,26.73,26.73,0,0,1,9.33-20.7A27.28,27.28,0,0,1,221.41,320a29.38,29.38,0,0,1,8.65.71,21,21,0,0,1,2.05.61l1,.32c.34.12.65.28,1,.42.64.29,1.29.55,1.92.87l1.8,1a26.8,26.8,0,0,1,6.2,5.27l.66.74.59.8,1.15,1.59c.32.57.65,1.13,1,1.69.15.28.33.55.47.84l.39.88c.25.58.5,1.16.76,1.74s.37,1.19.56,1.78l.28.89c.08.29.13.6.19.9l.36,1.79c.15,1.19.25,2.38.31,3.54,0,.59,0,1.17-.05,1.74a13.78,13.78,0,0,1-.1,1.71c-.08.56-.15,1.12-.22,1.67s-.23,1.08-.34,1.61a31.55,31.55,0,0,1-.9,3.08,28.2,28.2,0,0,1-2.71,5.38,27.46,27.46,0,0,1-7.13,7.45,27.15,27.15,0,0,1-6.94,3.52,22.8,22.8,0,0,1-2.75.75,16.56,16.56,0,0,1-2,.36l-1.27.13A2.43,2.43,0,0,1,225.81,373.86Z" style="fill:#263238"></path><path d="M399.59,191.42a51.35,51.35,0,0,1,.22-5.92,46.29,46.29,0,0,1,.42-5.91,26.81,26.81,0,0,1,.1,5.94A25.6,25.6,0,0,1,399.59,191.42Z" style="fill:#263238"></path><path d="M394.53,214.52a49.7,49.7,0,0,1,1.48-5.73,50.5,50.5,0,0,1,1.68-5.68,25.63,25.63,0,0,1-1.17,5.82A26.65,26.65,0,0,1,394.53,214.52Z" style="fill:#263238"></path><path d="M384.59,236a47.2,47.2,0,0,1,2.69-5.27,49.63,49.63,0,0,1,2.86-5.18A41.62,41.62,0,0,1,384.59,236Z" style="fill:#263238"></path><path d="M370.27,254.78a48,48,0,0,1,3.76-4.57,46.75,46.75,0,0,1,3.91-4.45,25.73,25.73,0,0,1-3.52,4.78A26,26,0,0,1,370.27,254.78Z" style="fill:#263238"></path><path d="M352.26,270.1a45.84,45.84,0,0,1,4.64-3.67,49.57,49.57,0,0,1,4.78-3.51,25.92,25.92,0,0,1-4.46,3.92A27.14,27.14,0,0,1,352.26,270.1Z" style="fill:#263238"></path><path d="M331.37,281.19a47.6,47.6,0,0,1,5.33-2.58,48.37,48.37,0,0,1,5.42-2.4,26.76,26.76,0,0,1-5.2,2.87A26.19,26.19,0,0,1,331.37,281.19Z" style="fill:#263238"></path><path d="M308.59,287.5a48.57,48.57,0,0,1,5.76-1.36,46,46,0,0,1,5.81-1.17,41.4,41.4,0,0,1-11.57,2.53Z" style="fill:#263238"></path><path d="M285,288.77a34.16,34.16,0,0,1,5.92-.1,34.16,34.16,0,0,1,5.92.1,41.93,41.93,0,0,1-11.84,0Z" style="fill:#263238"></path><path d="M261.63,285a47.87,47.87,0,0,1,5.81,1.17,50.37,50.37,0,0,1,5.76,1.36,26,26,0,0,1-5.87-.85A26.55,26.55,0,0,1,261.63,285Z" style="fill:#263238"></path><path d="M239.67,276.21a48.72,48.72,0,0,1,5.41,2.4,46.55,46.55,0,0,1,5.33,2.58,42.29,42.29,0,0,1-10.74-5Z" style="fill:#263238"></path><path d="M220.12,262.93a50.45,50.45,0,0,1,4.77,3.5,45.84,45.84,0,0,1,4.64,3.67,26.74,26.74,0,0,1-5-3.25A26.1,26.1,0,0,1,220.12,262.93Z" style="fill:#263238"></path><path d="M203.85,245.76a50,50,0,0,1,3.91,4.45,49.51,49.51,0,0,1,3.76,4.57,25.7,25.7,0,0,1-4.15-4.23A26,26,0,0,1,203.85,245.76Z" style="fill:#263238"></path><path d="M191.64,225.51a47.3,47.3,0,0,1,2.87,5.19A49.36,49.36,0,0,1,197.2,236a26.21,26.21,0,0,1-3.15-5A26.82,26.82,0,0,1,191.64,225.51Z" style="fill:#263238"></path><path d="M184.1,203.11a49.35,49.35,0,0,1,1.67,5.68,48.64,48.64,0,0,1,1.49,5.73,26,26,0,0,1-2-5.59A25.53,25.53,0,0,1,184.1,203.11Z" style="fill:#263238"></path><path d="M181.56,179.6a48.35,48.35,0,0,1,.42,5.91,47.47,47.47,0,0,1,.21,5.92,26.9,26.9,0,0,1-.73-5.89A26.1,26.1,0,0,1,181.56,179.6Z" style="fill:#263238"></path><path d="M184.09,156.09a47.35,47.35,0,0,1-.85,5.86,46.72,46.72,0,0,1-1.05,5.83,26.15,26.15,0,0,1,.54-5.91A26.48,26.48,0,0,1,184.09,156.09Z" style="fill:#263238"></path><path d="M191.64,133.68a47.13,47.13,0,0,1-2.1,5.54,48.6,48.6,0,0,1-2.28,5.46,25.48,25.48,0,0,1,1.8-5.66A26.25,26.25,0,0,1,191.64,133.68Z" style="fill:#263238"></path><path d="M203.85,113.43a51.38,51.38,0,0,1-3.25,4.95,48.72,48.72,0,0,1-3.4,4.84,26.1,26.1,0,0,1,3-5.13A26.37,26.37,0,0,1,203.85,113.43Z" style="fill:#263238"></path><path d="M220.11,96.27a49.84,49.84,0,0,1-4.23,4.15,45.84,45.84,0,0,1-4.37,4,26.6,26.6,0,0,1,4-4.37A25.9,25.9,0,0,1,220.11,96.27Z" style="fill:#263238"></path><path d="M239.67,83a50.38,50.38,0,0,1-5,3.15,50.47,50.47,0,0,1-5.12,3,25.57,25.57,0,0,1,4.85-3.42A26.08,26.08,0,0,1,239.67,83Z" style="fill:#263238"></path><path d="M261.62,74.23a50.66,50.66,0,0,1-5.57,2A47.28,47.28,0,0,1,250.41,78a26.26,26.26,0,0,1,5.47-2.28A25.78,25.78,0,0,1,261.62,74.23Z" style="fill:#263238"></path><path d="M285,70.42a48.94,48.94,0,0,1-5.88.74,48.57,48.57,0,0,1-5.89.53A42.18,42.18,0,0,1,285,70.42Z" style="fill:#263238"></path><path d="M308.58,71.69a49.85,49.85,0,0,1-5.9-.54,48.2,48.2,0,0,1-5.88-.73,25.86,25.86,0,0,1,5.94.22A25.49,25.49,0,0,1,308.58,71.69Z" style="fill:#263238"></path><path d="M331.37,78a47.9,47.9,0,0,1-5.64-1.8,48.07,48.07,0,0,1-5.58-2,26.46,26.46,0,0,1,5.74,1.49A25.86,25.86,0,0,1,331.37,78Z" style="fill:#263238"></path><path d="M352.25,89.09a48.08,48.08,0,0,1-5.12-3,48.67,48.67,0,0,1-5-3.14,26,26,0,0,1,5.29,2.69A25.57,25.57,0,0,1,352.25,89.09Z" style="fill:#263238"></path><path d="M370.26,104.4a48.62,48.62,0,0,1-4.37-4,47.87,47.87,0,0,1-4.22-4.14,26.25,26.25,0,0,1,4.58,3.76A26.32,26.32,0,0,1,370.26,104.4Z" style="fill:#263238"></path><path d="M384.59,123.21a45.94,45.94,0,0,1-3.41-4.84,47.15,47.15,0,0,1-3.25-5,26,26,0,0,1,3.68,4.66A26.49,26.49,0,0,1,384.59,123.21Z" style="fill:#263238"></path><path d="M394.53,144.67a49.14,49.14,0,0,1-2.29-5.47,51.3,51.3,0,0,1-2.1-5.53,26,26,0,0,1,2.59,5.34A26.63,26.63,0,0,1,394.53,144.67Z" style="fill:#263238"></path><path d="M399.59,167.76a49,49,0,0,1-1-5.83,47.08,47.08,0,0,1-.85-5.86,26.82,26.82,0,0,1,1.37,5.78A25.71,25.71,0,0,1,399.59,167.76Z" style="fill:#263238"></path><path d="M233.49,322c-.13-.06,3.86-9.12,8.92-20.24s9.26-20.09,9.39-20-3.86,9.12-8.92,20.24S233.62,322.06,233.49,322Z" style="fill:#263238"></path><path d="M226.12,347.52a7.06,7.06,0,0,0,4.22-6.55,6.65,6.65,0,1,0-13.28-.06,7.08,7.08,0,0,0,4.23,6.61c-10.22,1.54-9.76,12.65-9.76,12.65l24.18.11S236.26,349.05,226.12,347.52Z" style="fill:#D8AFF0"></path><path d="M425.82,306.45A26.89,26.89,0,1,1,440.5,274.9,26.92,26.92,0,0,1,425.82,306.45Z" style="fill:#fafafa"></path><path d="M425.82,306.45A26.89,26.89,0,1,1,440.5,274.9,26.92,26.92,0,0,1,425.82,306.45Z" style="fill:none"></path><path d="M425.82,306.45a1.78,1.78,0,0,1,.37-.23l1.13-.6a19.8,19.8,0,0,0,1.77-1.08,22.53,22.53,0,0,0,2.28-1.68,27.82,27.82,0,0,0,5.2-5.69,27.52,27.52,0,0,0,4.68-15.25,28.29,28.29,0,0,0-.22-3.16c-.08-.53-.13-1.07-.23-1.61s-.25-1.07-.38-1.61a11.85,11.85,0,0,0-.48-1.61l-.55-1.62c-.45-1.06-.95-2.12-1.5-3.17l-.93-1.53c-.16-.25-.31-.51-.48-.76l-.56-.72c-.37-.49-.75-1-1.13-1.46l-1.29-1.34-.65-.68c-.23-.22-.48-.41-.72-.62l-1.46-1.22-1.6-1.08-.82-.54-.86-.46A26.17,26.17,0,0,0,419.9,256l-2-.35c-.68-.08-1.38-.1-2.06-.16l-1-.06-1,0c-.7.05-1.4,0-2.1.13a28.86,28.86,0,0,0-8.2,2.26A26.85,26.85,0,0,0,388,284.25a27.59,27.59,0,0,0,1.61,7.11,11.67,11.67,0,0,0,.68,1.63l.73,1.57c.6,1,1.15,2,1.79,2.89a27,27,0,0,0,9.23,8.1,27.36,27.36,0,0,0,9.71,3.05l2.17.15c.7,0,1.38,0,2,0a25.3,25.3,0,0,0,3.52-.38A25.93,25.93,0,0,0,424.2,307l1.2-.44a1.77,1.77,0,0,1,.42-.13s-.13.07-.4.18l-1.18.49a24.32,24.32,0,0,1-4.72,1.41A24.89,24.89,0,0,1,416,309c-.66,0-1.34.1-2,.06l-2.21-.14a27.27,27.27,0,0,1-19.25-11.18c-.66-.92-1.22-1.93-1.83-2.93l-.75-1.6a12,12,0,0,1-.7-1.65,28,28,0,0,1-1.66-7.23,27.33,27.33,0,0,1,15.68-26.93,30.05,30.05,0,0,1,8.37-2.3c.7-.11,1.42-.08,2.13-.13l1.06,0c.36,0,.71,0,1.06.06.7.05,1.41.07,2.1.16l2.06.36a26.8,26.8,0,0,1,7.62,2.82l.88.47.82.55,1.63,1.11,1.49,1.25c.24.21.5.41.73.63l.66.69,1.31,1.37,1.15,1.49.56.73c.18.25.33.52.49.78l.95,1.56c.55,1.07,1.05,2.15,1.5,3.22.19.56.37,1.11.56,1.65a12.69,12.69,0,0,1,.48,1.64c.13.56.25,1.1.37,1.65s.16,1.09.23,1.63a27,27,0,0,1,.21,3.2,28,28,0,0,1-.7,6A26.88,26.88,0,0,1,431.49,303a21,21,0,0,1-2.32,1.65,16.46,16.46,0,0,1-1.8,1l-1.15.56Z" style="fill:#263238"></path><path d="M417.08,281.37a7.09,7.09,0,0,0,4.22-6.55,6.65,6.65,0,1,0-13.28-.07,7.06,7.06,0,0,0,4.23,6.62C402,282.91,402.49,294,402.49,294l24.17.11S427.21,282.9,417.08,281.37Z" style="fill:#D8AFF0"></path><path d="M393.32,265.61c-.09.11-4.45-3.19-9.74-7.38s-9.5-7.68-9.41-7.79,4.45,3.19,9.73,7.38S393.41,265.5,393.32,265.61Z" style="fill:#263238"></path><path d="M167.52,92.91A26.88,26.88,0,1,1,192.13,68.3,26.92,26.92,0,0,1,167.52,92.91Z" style="fill:#fafafa"></path><path d="M167.52,92.91A26.88,26.88,0,1,1,192.13,68.3,26.92,26.92,0,0,1,167.52,92.91Z" style="fill:none"></path><path d="M167.52,92.91a2.26,2.26,0,0,1,.43-.08l1.27-.19a15.81,15.81,0,0,0,2-.41,20.94,20.94,0,0,0,2.71-.79,27.22,27.22,0,0,0,16.47-16.29,26.68,26.68,0,0,0,.87-3c.11-.52.25-1,.33-1.59l.21-1.64a13.41,13.41,0,0,0,.1-1.68l0-1.71c-.06-1.15-.16-2.32-.31-3.49l-.36-1.76c-.06-.29-.11-.59-.19-.88l-.28-.87c-.18-.58-.37-1.16-.56-1.75L189.52,55l-.38-.86c-.14-.28-.31-.55-.46-.82l-1-1.66c-.38-.51-.75-1-1.13-1.56l-.58-.79-.66-.72a26.19,26.19,0,0,0-6.08-5.16l-1.78-1c-.61-.31-1.25-.57-1.88-.85-.32-.14-.63-.29-1-.41l-1-.32c-.67-.19-1.32-.46-2-.6a29.24,29.24,0,0,0-8.48-.68A26.85,26.85,0,0,0,147.91,46a27.12,27.12,0,0,0-8.28,13.07,27.5,27.5,0,0,0-.92,7.24,11.52,11.52,0,0,0,.08,1.76l.15,1.73c.22,1.13.4,2.25.69,3.32a27,27,0,0,0,5.89,10.78,27.42,27.42,0,0,0,8.08,6.18l2,.9c.64.28,1.3.44,1.91.65a24.77,24.77,0,0,0,3.43.85,26.88,26.88,0,0,0,4.88.39h1.28a2,2,0,0,1,.43,0,2.3,2.3,0,0,1-.43,0l-1.28.06a24.93,24.93,0,0,1-8.38-1.1c-.62-.21-1.29-.37-1.94-.64l-2-.89a27.24,27.24,0,0,1-14.26-17.1c-.3-1.09-.49-2.23-.71-3.38l-.16-1.76a11.86,11.86,0,0,1-.09-1.79,28,28,0,0,1,.92-7.36,27.31,27.31,0,0,1,24-19.92,29.65,29.65,0,0,1,8.64.7c.71.14,1.37.41,2,.61l1,.32c.33.13.65.28,1,.42.64.29,1.3.56,1.92.87L179.54,43a26.67,26.67,0,0,1,6.19,5.26l.67.74.58.8,1.15,1.6c.33.56.65,1.13,1,1.68.16.29.33.56.47.84l.39.88.76,1.74c.19.6.38,1.2.56,1.79l.28.88c.08.3.13.6.19.9l.36,1.79c.15,1.19.25,2.38.31,3.55,0,.58,0,1.16,0,1.74a12,12,0,0,1-.1,1.7c-.07.56-.15,1.12-.22,1.67s-.23,1.08-.34,1.62a30.44,30.44,0,0,1-.9,3.08,27.63,27.63,0,0,1-2.71,5.38A27.1,27.1,0,0,1,181,88.11,27.42,27.42,0,0,1,174,91.64a20.5,20.5,0,0,1-2.75.74,13.29,13.29,0,0,1-2.05.36l-1.27.14A2.43,2.43,0,0,1,167.52,92.91Z" style="fill:#263238"></path><path d="M167.84,66.49a7.1,7.1,0,0,0,4.22-6.55,6.66,6.66,0,1,0-13.29-.06A7.08,7.08,0,0,0,163,66.49c-10.22,1.54-9.75,12.65-9.75,12.65l24.17.11S178,68,167.84,66.49Z" style="fill:#D8AFF0"></path><path d="M209.14,107c-.1.11-6-4.57-13.1-10.45s-12.86-10.74-12.77-10.85,5.95,4.57,13.1,10.45S209.23,106.9,209.14,107Z" style="fill:#263238"></path><path d="M342.07,60a19.39,19.39,0,1,1,17.74-17.74A19.41,19.41,0,0,1,342.07,60Z" style="fill:#fafafa"></path><path d="M342.07,60a19.39,19.39,0,1,1,17.74-17.74A19.41,19.41,0,0,1,342.07,60Z" style="fill:none"></path><path d="M342.07,60a1.24,1.24,0,0,1,.31-.06l.91-.15a11.53,11.53,0,0,0,1.46-.3A16,16,0,0,0,346.7,59a19.72,19.72,0,0,0,11.84-11.74,19.85,19.85,0,0,0,1-4.52,19,19,0,0,0-1.67-9.95,22.3,22.3,0,0,0-1.29-2.4l-.82-1.12-.41-.57-.47-.52a18.9,18.9,0,0,0-4.38-3.7,19.64,19.64,0,0,0-5.47-2.3,20.71,20.71,0,0,0-6.1-.49,19.15,19.15,0,0,0-12.7,31.88A19.81,19.81,0,0,0,332,58l1.43.65c.47.2.94.31,1.38.47a17,17,0,0,0,2.47.61,19.33,19.33,0,0,0,3.51.3h.92l.32,0-.31,0-.93,0a18.25,18.25,0,0,1-6.05-.77c-.45-.15-.93-.26-1.41-.46l-1.46-.64a19.93,19.93,0,0,1-6-4.47,19.67,19.67,0,0,1-4.37-7.89,19.65,19.65,0,0,1,17.3-24.76,21.46,21.46,0,0,1,6.26.51A19.86,19.86,0,0,1,350.77,24a19.45,19.45,0,0,1,4.48,3.81l.48.54.43.58.83,1.16a23.4,23.4,0,0,1,1.32,2.46,19.58,19.58,0,0,1,.6,14.8,19.5,19.5,0,0,1-12.14,11.8,16.39,16.39,0,0,1-2,.54,12.34,12.34,0,0,1-1.48.25l-.92.09A1,1,0,0,1,342.07,60Z" style="fill:#263238"></path><path d="M342.29,41a5.09,5.09,0,0,0,3-4.72,4.8,4.8,0,1,0-9.58-.05A5.09,5.09,0,0,0,338.81,41c-7.37,1.11-7,9.12-7,9.12l17.43.09S349.6,42.14,342.29,41Z" style="fill:#D8AFF0"></path><path d="M335.4,59.41A79.61,79.61,0,0,1,332,67.93a80.31,80.31,0,0,1-3.9,8.31,82.71,82.71,0,0,1,3.42-8.52A84.13,84.13,0,0,1,335.4,59.41Z" style="fill:#263238"></path><path d="M435.92,171.65a24.9,24.9,0,1,1,22.79-22.79A24.93,24.93,0,0,1,435.92,171.65Z" style="fill:#fafafa"></path><path d="M435.92,171.65a24.9,24.9,0,1,1,22.79-22.79A24.93,24.93,0,0,1,435.92,171.65Z" style="fill:none"></path><path d="M435.92,171.65a2.59,2.59,0,0,1,.39-.08l1.17-.17a14.62,14.62,0,0,0,1.89-.38,21.13,21.13,0,0,0,2.51-.73,25.69,25.69,0,0,0,6.33-3.31,24.53,24.53,0,0,0,10.21-17.59,24.44,24.44,0,0,0-2.14-12.81l-.36-.8c-.13-.26-.28-.51-.43-.76l-.88-1.53L453.56,132l-.53-.73-.61-.67a23.91,23.91,0,0,0-5.64-4.77,24.62,24.62,0,0,0-7-3,27,27,0,0,0-7.85-.64,24.86,24.86,0,0,0-21.78,18.08,25.39,25.39,0,0,0-.86,6.69,9.84,9.84,0,0,0,.08,1.63c0,.54.09,1.07.13,1.6.21,1,.37,2.09.64,3.08a25,25,0,0,0,5.45,10,25.37,25.37,0,0,0,7.48,5.72l1.84.83c.6.26,1.21.41,1.77.61a23.22,23.22,0,0,0,3.18.78,24.36,24.36,0,0,0,4.52.37h1.18l.41,0-.41,0-1.18.05a22.23,22.23,0,0,1-4.55-.27,23.18,23.18,0,0,1-3.22-.74c-.57-.2-1.19-.34-1.79-.6l-1.88-.81a25.59,25.59,0,0,1-7.62-5.75,25.28,25.28,0,0,1-5.6-10.11c-.27-1-.45-2.06-.66-3.13-.05-.53-.1-1.08-.15-1.63a13.09,13.09,0,0,1-.08-1.66,26.44,26.44,0,0,1,.85-6.82,25.33,25.33,0,0,1,22.21-18.47,27.54,27.54,0,0,1,8,.65,25.62,25.62,0,0,1,7.19,3,24.66,24.66,0,0,1,5.74,4.88l.62.69.54.74,1.07,1.48c.3.52.6,1.05.9,1.56.14.26.3.52.43.78l.36.82a24.77,24.77,0,0,1,2.14,13.06,25,25,0,0,1-16.91,21,18.2,18.2,0,0,1-2.54.69,13.86,13.86,0,0,1-1.9.33l-1.18.13Z" style="fill:#263238"></path><path d="M436.2,147.25a6.54,6.54,0,0,0,3.91-6.07,6.16,6.16,0,1,0-12.3-.06,6.55,6.55,0,0,0,3.92,6.13c-9.47,1.43-9,11.72-9,11.72l22.39.1S445.59,148.67,436.2,147.25Z" style="fill:#D8AFF0"></path><path d="M409.74,152.94a37,37,0,0,1-6,1.81,37.87,37.87,0,0,1-6.09,1.31,37,37,0,0,1,6-1.81A37.87,37.87,0,0,1,409.74,152.94Z" style="fill:#263238"></path></g></svg>