<svg xmlns="http://www.w3.org/2000/svg" viewBox="0 0 500 500"><g id="freepik--Icons--inject-113"><g id="freepik--icons--inject-113"><path d="M45.82,152.84A17.13,17.13,0,1,1,63,135.71,17.14,17.14,0,0,1,45.82,152.84Zm0-33.51A16.38,16.38,0,1,0,62.2,135.71,16.39,16.39,0,0,0,45.82,119.33Z" style="fill:#e0e0e0"></path><path id="freepik--musical-note--inject-113" d="M41.31,126.59,39,137.15a2.94,2.94,0,0,0-.89-.37,2.83,2.83,0,1,0,2.18,3.36l2-9.47,10.08-.45h0l-2,9.39a2.94,2.94,0,0,0-.89-.37,2.83,2.83,0,1,0,2.18,3.36h0l3.35-15.67Z" style="fill:#e0e0e0"></path><path d="M395.2,173.5a10.93,10.93,0,1,1,10.94-10.93A10.94,10.94,0,0,1,395.2,173.5Zm0-21.11a10.18,10.18,0,1,0,10.19,10.18A10.2,10.2,0,0,0,395.2,152.39Z" style="fill:#e0e0e0"></path><path id="freepik--Pin--inject-113" d="M395.2,155.52a5,5,0,0,0-4.95,5c0,4.7,4.95,9.14,4.95,9.14s5-4.44,5-9.14A5,5,0,0,0,395.2,155.52Zm0,7a2.4,2.4,0,1,1,2.4-2.4A2.4,2.4,0,0,1,395.2,162.57Z" style="fill:#e0e0e0"></path><path d="M193.58,428.49a19,19,0,1,1,19-19A19,19,0,0,1,193.58,428.49Zm0-37.24a18.25,18.25,0,1,0,18.25,18.25A18.27,18.27,0,0,0,193.58,391.25Z" style="fill:#e0e0e0"></path><path d="M204.22,400.74H183a1.61,1.61,0,0,0-1.62,1.61v13A1.61,1.61,0,0,0,183,417h7.92l2.1,4.21a.68.68,0,0,0,1.22,0L196.3,417h7.92a1.61,1.61,0,0,0,1.61-1.61v-13A1.61,1.61,0,0,0,204.22,400.74Zm-8.95,12.49-1.69,1.08-1.69-1.08c-1.25-.8-4.58-2.93-4.58-6.22a3.15,3.15,0,0,1,6.27-.41,3.15,3.15,0,0,1,6.27.41C199.85,410.3,196.52,412.43,195.27,413.23Z" style="fill:#e0e0e0"></path><path d="M250,95.84a17.42,17.42,0,1,1,17.42-17.42A17.43,17.43,0,0,1,250,95.84Zm0-34.09a16.67,16.67,0,1,0,16.67,16.67A16.68,16.68,0,0,0,250,61.75Z" style="fill:#e0e0e0"></path><path d="M256.08,78.87H243.93a3.33,3.33,0,0,0-3.3,2.82l-.81,5.25c3.08,7,17.28,7,20.37,0l-.82-5.25A3.32,3.32,0,0,0,256.08,78.87Z" style="fill:#e0e0e0"></path><circle cx="250" cy="70.97" r="5.78" style="fill:#e0e0e0"></circle><path d="M465.32,149.92a19.23,19.23,0,1,1,19.22-19.23A19.26,19.26,0,0,1,465.32,149.92Zm0-37.71a18.48,18.48,0,1,0,18.47,18.48A18.5,18.5,0,0,0,465.32,112.21Z" style="fill:#e0e0e0"></path><path d="M480.6,133.83a3.52,3.52,0,0,1-3.52,3.52h-9.57v-4h2.69l-4.88-5.92-4.89,5.92h2.69v4h-9.57a3.52,3.52,0,0,1,0-7h1.06v-.62a5.7,5.7,0,0,1,5.72-5.72,5.64,5.64,0,0,1,3.14,1,6.41,6.41,0,0,1,12.54,1.9v3.49h1.07A3.51,3.51,0,0,1,480.6,133.83Z" style="fill:#e0e0e0"></path><path d="M293.7,428.62a13.41,13.41,0,1,1,13.41-13.41A13.43,13.43,0,0,1,293.7,428.62Zm0-26.07a12.66,12.66,0,1,0,12.66,12.66A12.68,12.68,0,0,0,293.7,402.55Z" style="fill:#e0e0e0"></path><path d="M294.84,424.05h-2.47a.87.87,0,0,1-.62-.26.85.85,0,0,1-.26-.62v-1.1a6.76,6.76,0,0,1-1.43-.56,5.75,5.75,0,0,1-1.32-.93,4.18,4.18,0,0,1-.88-1.17,3.15,3.15,0,0,1-.34-1.31.79.79,0,0,1,.23-.57.76.76,0,0,1,.54-.23h2.46a1.51,1.51,0,0,1,.57.09,1.81,1.81,0,0,1,.4.26l.26.28a1.75,1.75,0,0,0,.34.29,2.08,2.08,0,0,0,.54.27,2.78,2.78,0,0,0,.83.11,5.12,5.12,0,0,0,1.55-.2c.41-.13.41-.32.41-.43a.21.21,0,0,0-.1-.17,2.23,2.23,0,0,0-.62-.29,11.84,11.84,0,0,0-1.21-.3c-.51-.1-1.11-.22-1.8-.38a5.58,5.58,0,0,1-3-1.49,4,4,0,0,1-1-2.84,3.76,3.76,0,0,1,.27-1.41,4.14,4.14,0,0,1,.77-1.24,5.46,5.46,0,0,1,1.23-1,6.29,6.29,0,0,1,1.32-.54v-1.1a.89.89,0,0,1,.88-.89h2.47a.85.85,0,0,1,.62.26.89.89,0,0,1,.26.63v1.12a6,6,0,0,1,1.34.55,5.56,5.56,0,0,1,1.26.93,4.53,4.53,0,0,1,.84,1.1,2.85,2.85,0,0,1,.35,1.18.8.8,0,0,1-.24.57.74.74,0,0,1-.53.23h-2.47a1.44,1.44,0,0,1-.59-.11,2,2,0,0,1-.41-.29c-.06,0-.12-.12-.21-.21a1,1,0,0,0-.27-.21,1.88,1.88,0,0,0-.47-.21,3.78,3.78,0,0,0-1.36,0,2,2,0,0,0-.49.13.53.53,0,0,0-.27.19.29.29,0,0,0-.07.22.28.28,0,0,0,.07.21,1.25,1.25,0,0,0,.47.26,8.15,8.15,0,0,0,1.06.3l1.73.35a10.27,10.27,0,0,1,1.88.55,4.76,4.76,0,0,1,1.4.87,3.53,3.53,0,0,1,.86,1.27,4.46,4.46,0,0,1,.28,1.67,3.82,3.82,0,0,1-.33,1.6,4.09,4.09,0,0,1-.93,1.29,5.32,5.32,0,0,1-1.43.92,6.64,6.64,0,0,1-1.47.45v1a.89.89,0,0,1-.88.88Zm-6.55-6a2.2,2.2,0,0,0,.24,1,3.55,3.55,0,0,0,.72,1,5.41,5.41,0,0,0,1.16.81,6.22,6.22,0,0,0,1.54.56l.29.07v1.69a.12.12,0,0,0,0,.09.09.09,0,0,0,.09,0h2.47a.14.14,0,0,0,.13-.13v-1.66l.32-.05a6.48,6.48,0,0,0,1.6-.46,4.35,4.35,0,0,0,1.21-.78,3,3,0,0,0,1-2.34,3.91,3.91,0,0,0-.23-1.4,2.64,2.64,0,0,0-.67-1,4.15,4.15,0,0,0-1.18-.73,9.55,9.55,0,0,0-1.74-.5l-1.74-.36a7.47,7.47,0,0,1-1.17-.33,1.83,1.83,0,0,1-.74-.44,1.11,1.11,0,0,1,0-1.44,1.46,1.46,0,0,1,.56-.4,3,3,0,0,1,.67-.17,4.17,4.17,0,0,1,1.67.07,2.91,2.91,0,0,1,.66.28,2.27,2.27,0,0,1,.42.34l.17.18a1.43,1.43,0,0,0,.22.15.76.76,0,0,0,.27,0h2.47a1.75,1.75,0,0,0-.24-.88,3.92,3.92,0,0,0-.71-.92,5.49,5.49,0,0,0-1.09-.8,5.91,5.91,0,0,0-1.44-.56L295,409v-1.7a.11.11,0,0,0,0-.1.12.12,0,0,0-.09,0h-2.47a.12.12,0,0,0-.09,0,.14.14,0,0,0,0,.1v1.68L292,409a5.83,5.83,0,0,0-1.42.55,4.2,4.2,0,0,0-1,.81,3.26,3.26,0,0,0-.64,1,3.1,3.1,0,0,0-.21,1.13,3.29,3.29,0,0,0,.79,2.33,4.91,4.91,0,0,0,2.64,1.27l1.79.38a11,11,0,0,1,1.29.32,2.69,2.69,0,0,1,.85.41.92.92,0,0,1,.39.76,1.16,1.16,0,0,1-.93,1.14,5.72,5.72,0,0,1-1.78.24,3,3,0,0,1-1.81-.52,2.64,2.64,0,0,1-.46-.4l-.22-.23-.18-.12a.83.83,0,0,0-.27,0Z" style="fill:#e0e0e0"></path><path d="M409.4,338.91a14,14,0,1,1,14-13.94A14,14,0,0,1,409.4,338.91Zm0-27.15A13.2,13.2,0,1,0,422.6,325,13.22,13.22,0,0,0,409.4,311.76Z" style="fill:#e0e0e0"></path><path d="M415.56,323.87l-8.83-4.72a1.24,1.24,0,0,0-1.83,1.09v9.45a1.24,1.24,0,0,0,1.83,1.09l8.83-4.72A1.25,1.25,0,0,0,415.56,323.87Z" style="fill:#e0e0e0"></path><path d="M38.7,348.07a10.83,10.83,0,1,1,10.82-10.83A10.84,10.84,0,0,1,38.7,348.07Zm0-20.9a10.08,10.08,0,1,0,10.07,10.07A10.08,10.08,0,0,0,38.7,327.17Z" style="fill:#e0e0e0"></path><path d="M45.56,335.38a.16.16,0,0,0,.09-.19A8.55,8.55,0,0,0,45.2,334a7.35,7.35,0,0,0-.64-1.05.15.15,0,0,0-.2-.05l-1.09.53a5.8,5.8,0,0,0-1.42-1.25l.39-1.15a.16.16,0,0,0-.08-.19,7.09,7.09,0,0,0-2.32-.79.15.15,0,0,0-.18.11l-.39,1.14a5.8,5.8,0,0,0-1.9.12l-.53-1.08a.18.18,0,0,0-.2-.09,8.43,8.43,0,0,0-1.14.45,8.34,8.34,0,0,0-1,.63.16.16,0,0,0-.05.21l.53,1.09a5.87,5.87,0,0,0-1.26,1.42l-1.14-.39a.16.16,0,0,0-.19.08,7.11,7.11,0,0,0-.8,2.32.17.17,0,0,0,.11.18l1.15.39a5.8,5.8,0,0,0,.12,1.9l-1.08.53a.17.17,0,0,0-.09.19,6.23,6.23,0,0,0,.45,1.15,6.79,6.79,0,0,0,.63,1.05.16.16,0,0,0,.21.05l1.08-.53a5.85,5.85,0,0,0,1.43,1.25l-.39,1.15a.17.17,0,0,0,.08.2,7.07,7.07,0,0,0,2.32.78.15.15,0,0,0,.18-.11l.39-1.14A5.76,5.76,0,0,0,40,343l.54,1.08a.17.17,0,0,0,.19.09,7.4,7.4,0,0,0,1.15-.45,7.89,7.89,0,0,0,1.05-.63.16.16,0,0,0,0-.21l-.53-1.08a6,6,0,0,0,1.25-1.43l1.14.39a.18.18,0,0,0,.2-.08,7.09,7.09,0,0,0,.79-2.32.17.17,0,0,0-.11-.18l-1.14-.39a6,6,0,0,0-.12-1.89Zm-4.51,4.31a3.41,3.41,0,0,1-5.74-2.09,3.27,3.27,0,0,1,1-2.81,3.41,3.41,0,0,1,5.74,2.09A3.24,3.24,0,0,1,41.05,339.69Z" style="fill:#e0e0e0"></path><path d="M201.52,41.2A12.23,12.23,0,1,1,213.74,29,12.24,12.24,0,0,1,201.52,41.2Zm0-23.7A11.48,11.48,0,1,0,213,29,11.49,11.49,0,0,0,201.52,17.5Z" style="fill:#e0e0e0"></path><g id="freepik--Like--inject-113"><path d="M198.39,27.65s1.25-3,1.33-3.5a14.22,14.22,0,0,0-.55-2.66c-.07-.35,1.53-.81,2.3.32a5.12,5.12,0,0,1,1,3.38l4-.82a1.25,1.25,0,0,1,1.44,1,1.36,1.36,0,0,1-.4,1.29,1.13,1.13,0,0,1,1,.95,1.26,1.26,0,0,1-.71,1.4,1.55,1.55,0,0,1,.45.9,1.41,1.41,0,0,1-.87,1.39,2.54,2.54,0,0,1,.36.86,1.42,1.42,0,0,1-1.21,1.55l-6.56,1.36Z" style="fill:#e0e0e0"></path><rect x="195.4" y="27.83" width="2.92" height="8.82" transform="translate(-2.44 40.69) rotate(-11.73)" style="fill:#e0e0e0"></rect></g><path d="M88.36,311.92a16.13,16.13,0,1,1,16.12-16.12A16.14,16.14,0,0,1,88.36,311.92Zm0-31.5a15.38,15.38,0,1,0,15.37,15.38A15.4,15.4,0,0,0,88.36,280.42Z" style="fill:#e0e0e0"></path><polygon points="98.52 289.13 78.19 289.13 88.36 296.2 98.52 289.13" style="fill:#e0e0e0"></polygon><polygon points="99.68 301.51 99.68 290.1 92.87 294.94 91.61 295.84 88.36 298.15 85.05 295.8 78.25 302.46 98.46 302.46 91.8 296.02 93.04 295.11 99.68 301.51" style="fill:#e0e0e0"></polygon><polygon points="83.79 294.9 77.02 290.1 77.02 301.53 83.67 295.1 84.86 295.98 85.05 295.8 83.79 294.9 83.79 294.9" style="fill:#e0e0e0"></polygon><path d="M468.44,340.06a10.62,10.62,0,1,1,10.61-10.61A10.62,10.62,0,0,1,468.44,340.06Zm0-20.48a9.87,9.87,0,1,0,9.86,9.87A9.88,9.88,0,0,0,468.44,319.58Z" style="fill:#e0e0e0"></path><path d="M470.63,333.13a2.2,2.2,0,1,1-2.19-2.2A2.2,2.2,0,0,1,470.63,333.13Z" style="fill:#e0e0e0"></path><path d="M468.43,327.33a5.81,5.81,0,0,0-5.11,3.07.87.87,0,0,0,.23,1.09h0a.85.85,0,0,0,1.28-.26,4.06,4.06,0,0,1,7.19,0,.85.85,0,0,0,1.28.26h0a.87.87,0,0,0,.23-1.09A5.81,5.81,0,0,0,468.43,327.33Z" style="fill:#e0e0e0"></path><path d="M468.43,323.81a9.3,9.3,0,0,0-7.84,4.32.86.86,0,0,0,.18,1.16h0a.86.86,0,0,0,1.26-.22,7.58,7.58,0,0,1,12.81,0,.86.86,0,0,0,1.26.23h0a.88.88,0,0,0,.19-1.17A9.32,9.32,0,0,0,468.43,323.81Z" style="fill:#e0e0e0"></path><path d="M250,482.55a10.94,10.94,0,1,1,10.94-10.94A11,11,0,0,1,250,482.55Zm0-21.13a10.19,10.19,0,1,0,10.19,10.19A10.2,10.2,0,0,0,250,461.42Z" style="fill:#e0e0e0"></path><polygon points="250 464.41 252.12 468.7 256.85 469.38 253.43 472.72 254.23 477.44 250 475.21 245.77 477.44 246.57 472.72 243.15 469.38 247.88 468.7 250 464.41" style="fill:#e0e0e0"></polygon><rect x="141.05" y="47.2" width="53.44" height="0.75" transform="translate(-1.18 90.77) rotate(-30.18)" style="fill:#e0e0e0"></rect><rect x="224.45" y="30.27" width="0.75" height="40.86" transform="translate(20.14 156.64) rotate(-40.07)" style="fill:#e0e0e0"></rect><rect x="266.88" y="74.84" width="59.38" height="0.75" transform="translate(-6.33 32.09) rotate(-6.13)" style="fill:#e0e0e0"></rect><rect x="45.45" y="152.42" width="0.75" height="38.13" transform="translate(-8.3 2.44) rotate(-2.79)" style="fill:#e0e0e0"></rect><polygon points="389.89 153.37 377.55 117.66 378.26 117.41 390.6 153.13 389.89 153.37" style="fill:#e0e0e0"></polygon><rect x="429.18" y="185.28" width="73.56" height="0.75" transform="translate(235.04 630.92) rotate(-84.31)" style="fill:#e0e0e0"></rect><rect x="422.16" y="80.25" width="0.75" height="58.19" transform="translate(116.76 420.78) rotate(-60.03)" style="fill:#e0e0e0"></rect><polygon points="405.9 161.31 405.62 160.61 450.91 142.66 451.19 143.36 405.9 161.31" style="fill:#e0e0e0"></polygon><polygon points="418.38 314.75 417.78 314.31 434.45 291.49 435.05 291.93 418.38 314.75" style="fill:#e0e0e0"></polygon><polygon points="423.83 375.99 423.31 375.45 461.86 337.24 462.38 337.77 423.83 375.99" style="fill:#e0e0e0"></polygon><polygon points="240.74 465.55 205.55 423.75 206.12 423.27 241.32 465.07 240.74 465.55" style="fill:#e0e0e0"></polygon><rect x="248.29" y="445.26" width="48.22" height="0.75" transform="translate(-248.68 410) rotate(-54.65)" style="fill:#e0e0e0"></rect><rect x="306.21" y="409.12" width="62.82" height="0.75" transform="translate(-68.91 68.31) rotate(-10.49)" style="fill:#e0e0e0"></rect><rect x="36.48" y="261.58" width="0.75" height="65.29" transform="translate(-5.52 0.74) rotate(-1.08)" style="fill:#e0e0e0"></rect><rect x="95.98" y="311.04" width="0.75" height="65.2" transform="translate(-59.34 22.5) rotate(-10.2)" style="fill:#e0e0e0"></rect><rect x="54.11" y="114.05" width="33.16" height="0.75" transform="translate(-47.34 49.92) rotate(-29.64)" style="fill:#e0e0e0"></rect><path d="M405.6,447.3a38.78,38.78,0,1,1,38.77-38.77A38.82,38.82,0,0,1,405.6,447.3Zm0-76.8a38,38,0,1,0,38,38A38.07,38.07,0,0,0,405.6,370.5Z" style="fill:#e0e0e0"></path><path d="M91.66,449.85a38.78,38.78,0,1,1,38.78-38.78A38.81,38.81,0,0,1,91.66,449.85Zm0-76.8a38,38,0,1,0,38,38A38.07,38.07,0,0,0,91.66,373.05Z" style="fill:#e0e0e0"></path><path d="M448.59,295.74A38.78,38.78,0,1,1,487.37,257,38.82,38.82,0,0,1,448.59,295.74Zm0-76.8a38,38,0,1,0,38,38A38.07,38.07,0,0,0,448.59,218.94Z" style="fill:#e0e0e0"></path><path d="M51.83,266.36A38.78,38.78,0,1,1,90.6,227.59,38.81,38.81,0,0,1,51.83,266.36Zm0-76.8a38,38,0,1,0,38,38A38.07,38.07,0,0,0,51.83,189.56Z" style="fill:#e0e0e0"></path><path d="M361.55,122.67a38.78,38.78,0,1,1,38.78-38.78A38.83,38.83,0,0,1,361.55,122.67Zm0-76.81a38,38,0,1,0,38,38A38.07,38.07,0,0,0,361.55,45.86Z" style="fill:#e0e0e0"></path><path d="M115.09,122.67a38.78,38.78,0,1,1,38.78-38.78A38.82,38.82,0,0,1,115.09,122.67Zm0-76.81a38,38,0,1,0,38,38A38.07,38.07,0,0,0,115.09,45.86Z" style="fill:#e0e0e0"></path></g></g><g id="freepik--Line--inject-113"><path d="M249.86,454.43a204.45,204.45,0,0,1-152-341.11c75.38-83.9,205-90.83,288.85-15.46A204.46,204.46,0,0,1,249.86,454.43Zm.26-407.85A203.26,203.26,0,1,0,386,98.62,203,203,0,0,0,250.12,46.58Z" style="fill:#BA68C8"></path></g><g id="freepik--World--inject-113"><g id="freepik--world--inject-113"><path d="M157.35,353.15a138.64,138.64,0,1,0-44.93-120.36A138.64,138.64,0,0,0,157.35,353.15Z" style="fill:#BA68C8"></path><path d="M157.35,353.15a138.64,138.64,0,1,0-44.93-120.36A138.64,138.64,0,0,0,157.35,353.15Z" style="fill:#fff;opacity:0.85"></path><g style="opacity:0.30000000000000004"><path d="M134.91,174.17a4,4,0,0,0,2.62.13,6.86,6.86,0,0,0,1.38-.65c.54-.31,1.67-1.56,2.09-1.49s.06,1.56-.3,2.43a12.69,12.69,0,0,1-2.56,3.7c-1.65,1.58-2.73,2-4,2.07-.45,0-2.31,0-2.84.84s-.26,1.12.13,1.27a4.59,4.59,0,0,0,2-.13,1.39,1.39,0,0,1,.86,0c.78.35-.14,2.56.52,3.06.4.3,1.13,0,1.69-.19a11.52,11.52,0,0,0,2.53-.8,7.52,7.52,0,0,0,1.44-1.05,30.9,30.9,0,0,1,3.66-2.29,2.25,2.25,0,0,0,1.28-2.69c-.24-1-1.08-.74-2-.18-1.28.75-2.7,1.85-3.08,2s-.58.21-.5-.11c.14-.62,1.67-1.56,1.95-1.77.59-.45,1.18-.93,1.76-1.38,1-.76,2.11-1.49,2.58-1.83a6.88,6.88,0,0,0,.86-.71,6.2,6.2,0,0,0,1.1-1.4c.5-1.12-.18-1.44.3-2.45a7.54,7.54,0,0,1,1.64-1.94,22.07,22.07,0,0,0,1.78-1.92c1-1.4.62-2.64,1.22-4.17a8.89,8.89,0,0,1,1.42-2.34c.83-1,2-2.24,2.62-3,.38-.48.74-1,1.11-1.43a9.65,9.65,0,0,0,1.15-1.9c.21-.45.37-1,.56-1.4a3.26,3.26,0,0,1,.74-1,6.74,6.74,0,0,0,1.82-3.41c.28-1.67-.77-1-1.1-1.24-.57-.42-1.27-.16-2,.17-1.67.75-3.54,2.17-5.46,3.27q-3.54,3.42-6.88,7.12c-1.9,2.13-3.71,4.31-5.47,6.51A4,4,0,0,0,143,164c1.28,0,2.93-1.8,4.38-2.73.64-.41,2.55-1.94,2.85-1.32.47,1-1.62,2.83-2.07,3.21a3.1,3.1,0,0,0-.93,1.13c-.39.94-1.11,2.25-1.87,2a3.24,3.24,0,0,0-1.41-.38.88.88,0,0,0-.79.71c-.27.85-1.32,2.39-1.76,1.6-.27-.46-.41-1.17-.86-1.28s-.82.05-1.16-.08l-.18-.11c-1.72,2.29-3.37,4.61-4.93,7A2.66,2.66,0,0,0,134.91,174.17Z" style="fill:#BA68C8"></path><path d="M280.08,138.55a17.2,17.2,0,0,1,3.26-3.66c.59-.5,1.21-1,1.85-1.44.39-.28.78-.55,1.18-.81a7.8,7.8,0,0,0,1-.52,1.09,1.09,0,0,0-.53-1.82,1.89,1.89,0,0,0-.46-.11,1.35,1.35,0,0,0-1,.4,9.51,9.51,0,0,1-2.63,1.38c-3.91,1.39-6.77,3.67-7.17,7.62a20.38,20.38,0,0,0-.2,4.2c.1.51.19,1-.31,1.23-.32.14-.44.29-.2.7a5.1,5.1,0,0,0,2.93,1.88,18.73,18.73,0,0,0,2,.65,2.46,2.46,0,0,0,2.36-.65c.31-.46-.45-1.19-.93-1.74l-.57-.6a6.76,6.76,0,0,1-1.19-2.23,5.76,5.76,0,0,1-.22-1.53A5.94,5.94,0,0,1,280.08,138.55Z" style="fill:#BA68C8"></path><path d="M218,138c.44.26.87.67,1.31,1a6.88,6.88,0,0,0,1.62.79,15.71,15.71,0,0,1,1.94.77,1.27,1.27,0,0,1,.25.21c.28.31.12.26.17.53.09.49.47.69,1,.82s.91.31,1.38.48c.77.28,2.05.15,2.08-.58a5.66,5.66,0,0,0-.22-1.44,10.19,10.19,0,0,1-.51-2.37,3,3,0,0,0,0-.34c0-.19.34-.53,1-.37.45.11.94.28,1.2.34s.36.07.47.11c.26.09.35.45.38.58a.32.32,0,0,0,.15.21,1,1,0,0,0,.53.18,5.89,5.89,0,0,0,1.83.18,2.13,2.13,0,0,0,.66-.2.68.68,0,0,0-.15-1.17,20,20,0,0,1-2.82-.66,6.45,6.45,0,0,1-1.74-1.09c-1-.89-.26-1.31.4-1.48a8.69,8.69,0,0,0,1.53-.55,3.44,3.44,0,0,0,1.71-1.66,1.61,1.61,0,0,0-.38-1.21l-.11-.08a2.29,2.29,0,0,0-2.26-.09c-.82.28-1.73.55-2.6.76a5.49,5.49,0,0,1-1.18.27,3.07,3.07,0,0,0-.92.07,3.71,3.71,0,0,0-1.3,1,2.89,2.89,0,0,1-1.61.95c-.36.07-1,0-.93.48.12.67,1.1,1.06,1.41,1.65s-.37.41-.82.13-.59-.86-1-1.12-.6-.05-.61.16c0,.37.21.86-.55.59-.42-.15-.67-.43-1.11-.45-.75,0-2.16.87-1.23,1.94A3.6,3.6,0,0,0,218,138Z" style="fill:#BA68C8"></path><path d="M234.27,199.12c-.94-.89-2.65-1-2.85-2.71-.07-.55.47-1.2.12-1.75-.19-.3-.54-.27-.81-.36s-1.56-.75-1.58-1.24c0-.32-2.71.12-2.22,1,.72,1.26-1.35,2.27-.12,2.86l.15.08c.09,0,0,.86.36,1.79s1.76.95,2.06,1.74,1.43-.18,2.05.44,1,2.17.35,2.66.06,2-.34,2.48c-.26.32-.54.63-.1,1.09.26.27,1-.57,1.23.19s-.74,1.08-.28,1.67,1.1.12,1.5,0c1.69-.61,3.88-1.72,4.64-3.6.3-.72.82-2.45-.16-2.83-.37-.14-.77,0-1.16-.27a5.07,5.07,0,0,1-1.15-1.16A18.26,18.26,0,0,0,234.27,199.12Z" style="fill:#BA68C8"></path><path d="M118.46,287.52c.7.43,2.2,2.15,2.93,1.92,1.28-.39-.92-2.59-1.32-2.9s-3.72-3.67-3.68-3.72a.51.51,0,0,0,.08-.55c-.08-.15-.9-.47-1.52-.9.38,1.66.8,3.3,1.24,4.95C116.89,286.81,117.93,287.2,118.46,287.52Z" style="fill:#BA68C8"></path><path d="M325,303.77a46.09,46.09,0,0,0-.29-10.06c-.1-.64-.22-1.31-.38-2a6,6,0,0,0-1.1-2.43,5,5,0,0,1-.55-.46,4.63,4.63,0,0,1-.37-.46,2.21,2.21,0,0,0-.47-.49c-.29-.21-1.09.39-1.06,1.35,0,.61.16,1.29.21,1.74.32,2.45-1.32,4.06-2,6.08-1,2.82.14,5.25.71,7.82.37,1.67.14,4.12,1.1,5.44C324,314.64,324.86,306.34,325,303.77Z" style="fill:#BA68C8"></path><path d="M387.09,257.05a1.7,1.7,0,0,0-1.45-.56,22,22,0,0,0-3.38.88,4.4,4.4,0,0,1-1.89.17,1.86,1.86,0,0,1-.95-.45c-.64-.58-.67-1.6-.82-2.59a3.71,3.71,0,0,0-1.48-2.52c-.32-.28-.64-.59-1-.85-.52-.42-1.14-.52-1.65-1a3.11,3.11,0,0,1-1.16-1.76,2,2,0,0,1,.24-1.25,3.49,3.49,0,0,0-.21-2.65c-.28-.47-.6-.89-.82-1.22a16.33,16.33,0,0,0-1.36-1.7c-.23-.27-.53-.4-.76-.67A14.78,14.78,0,0,1,367,234c-.1-.76,0-1.56.61-1.69a1.06,1.06,0,0,1,.6.08,6.08,6.08,0,0,1,1.45,1c.4.35.8.69.9.65,1.26-.43,2.51,4.23,3.72,1.88.37-.73,1-1.26,1.43-2a8,8,0,0,0,.45-.93,7.19,7.19,0,0,0,.45-2.83,6,6,0,0,0-.42-1.76,12.69,12.69,0,0,0-3.72-4.47c-.57-.36-.92-.51-1.16-1.32-.5-1.74.48-4.11,2.13-4a2.49,2.49,0,0,0,2.61-1.22,11.86,11.86,0,0,1,2.36-3.25c1.35-1.07,3.2-2.27,4.06-3.88.07-.15.15-.29.23-.45a137.38,137.38,0,0,0-6-16.19c-.25-.57-.67-1.49-1-2.28a139.12,139.12,0,0,0-57-61.92,8.09,8.09,0,0,1-.83.27,20.29,20.29,0,0,0-3.82,1.23,3.54,3.54,0,0,0-1.66,2.58,3.32,3.32,0,0,1-.72,1.75,3.59,3.59,0,0,1-2,.92c-.54.13-1.61.34-1.18,1.19s2.09,1.64,2.77,2.32c1.54,1.54-1.33.68-2.06.46a7.14,7.14,0,0,0-2.48-.42c-.46,0-1.53,0-1.43.53s.81,1.11,1.18,1.49c.54.58.66.8.2,1.07s-1,.5-1.5.77a5.25,5.25,0,0,1-2.62.77c-1.26-.06-2.41-1.09-3.31-2.17a3.74,3.74,0,0,0-1.55-1.37,3.35,3.35,0,0,0-1.78-.35c-1.17.18-1.06,1.31-.54,2.4s-.45,1.67.15,2.66a7.49,7.49,0,0,0,2.75,2.22c.84.5,2.25,1.15,2.14,2-.15,1.24-1.91.75-3.15.34-1.67-.56-3.32-.89-5-1.46a9.37,9.37,0,0,0-4.3-.35c-.74.11-1.09.6,0,1.28.49.32,2,.73,2.09,1.5s-1.63,1-2.14,1.16a18.65,18.65,0,0,1-4.41,1.28c-1.2.13-2.55-.05-3.55.44a6.07,6.07,0,0,0-1.31.85,3.63,3.63,0,0,0-.92,1.92.73.73,0,0,1-.3.48,2.11,2.11,0,0,1-.53.31,1.78,1.78,0,0,1-2-1.07c-.2-.67-.38-1.41-1.08-1.65a2.91,2.91,0,0,0-2.33.38.91.91,0,0,0-.26.81c.05.55.74,1.92.88,3a2.3,2.3,0,0,1-.27,1.64,6.22,6.22,0,0,1-1,.88,2.7,2.7,0,0,0-.8,1.67c-.25,1.25-.42,2.38-1.5,2.93s-2.05.31-3.47-.63a28.32,28.32,0,0,1-3-2.11c-1.39-1.22.94-1.05,1.55-1.07.9,0,1.72-.3,2.6-.4a8.54,8.54,0,0,0,2.11-.48c.53-.2,1.48-.58,1.16-1.47-.69-1.95-5.21-3.11-6.53-3.5-.64-.19-1.28-.35-1.91-.5-1-.25-2.82-.64-4-.86a5.47,5.47,0,0,0-2-.12c-1,.21-1.36,1.66-2.92.06a3,3,0,0,0-2.5-1.23,9.57,9.57,0,0,0-5.39,1.75,5.11,5.11,0,0,0-1.11,1.16c-.52.73-.92,2-1.37,2.42a1.84,1.84,0,0,1-1,.48c-2.34.39-2.58,2.64-2.06,5.46.14.75.41,1.58.48,2.33a4.83,4.83,0,0,1-.07,1.27c-.12.67-.44,2.21-.65,3.48-.13.76-.28,1.54-.42,2.35-.37,2.26-.87,4.6-1.39,7a8.32,8.32,0,0,0,.24,5.33,5.32,5.32,0,0,0,3.07,2.56,3.6,3.6,0,0,0,3.68-.77c1.54-1.1,2.52-.44,3.92,1.4.6.8,1.24,1.8,2.15,2.14a3.2,3.2,0,0,0,2.71-.29c.83-.59.87-1.68.42-2.84a3.49,3.49,0,0,1-.12-2.95,2.83,2.83,0,0,0-.56-2.77c-1-1.44-2.69-3.13-3.22-4.11a4.79,4.79,0,0,1-.57-1.82,8.26,8.26,0,0,1,0-1.58c.1-.81.81-2.44,1.24-3.9a8.78,8.78,0,0,0,.37-2.89,4.46,4.46,0,0,1,.1-1.36,1.87,1.87,0,0,1,1.83-1,1.78,1.78,0,0,1,1.3.64,4.07,4.07,0,0,1,.53,3c-.17,1.08-.94,1.53-1.19,2.53s.24,2.49.66,3.72.79,2.73,1.73,3.54c1.17,1,2.69.24,3.72-.15.46-.17,1-.37,1.53-.52a5.65,5.65,0,0,1,2.39-.18c.42.12,1.08,1,.77,1.35a2.18,2.18,0,0,1-.7.39c-1,.44-2.14.63-3.16,1-.65.25-1.73.5-1.54,1.57.15.82,1.1,1.26,1.66,1.63s1.21.79,1.28,1.53a.65.65,0,0,1-.6.73,3.19,3.19,0,0,1-1.73-.56c-.35-.21-.87-.66-1.16-.38-.47.45.43,2.34.64,2.95a5.66,5.66,0,0,1,.43,3.26c-.61,2.09-2.91,2.69-4.72,3.14a19.67,19.67,0,0,1-3.45.31,6,6,0,0,1-2.27-.1c-1.76-.64-1.76-3.59-2.55-5.11-.93-1.8-2.15,0-2.11,1.21.06,1.91,2.09,3.58,2,5.42-.06,1.28-1.45,1.72-2.25,2.34a4,4,0,0,0-1.1,3.9,3.57,3.57,0,0,1-.6,2.14c-.41.9-.94,1.7-1.39,2.54a2.57,2.57,0,0,1-1.49,1.37c-.44.13-1.17,0-1.4.38s.16,1-.42,1.48-1.61.42-2.32.74c-.47.21-1.1.77-.43,1.26a7.71,7.71,0,0,0,2.31.64,4.54,4.54,0,0,1,2.72,3c.77,1.94.75,3.67-1.06,4.39s-3.69.85-5.29,2.23c-1.39,1.21-.43,4.29.09,6A3.5,3.5,0,0,0,234,232c.44.42.76,1.05,1.28,1.33a2.69,2.69,0,0,0,2.12,0,2.48,2.48,0,0,1,2.15.14,2.92,2.92,0,0,0,.51.2c.29.06.45-.74.94-1a3.85,3.85,0,0,1,1-.26,3.36,3.36,0,0,0,1-.22c.29-.17.33-.52.53-.67a3.22,3.22,0,0,0,.93-2.7c0-.51,0-1,0-1.53a16.18,16.18,0,0,1,.35-1.71,8.55,8.55,0,0,1,.1-1.25c.24-.81.88-.87,1.45-1.27a2.12,2.12,0,0,0,.87-2.21c-.08-.76-.36-1.58.23-2.08s1.25-.17,1.83-.32c1-.26,1.59-1.19,2.28-1.9,1.39-1.42,2.89-1.28,4.45.18a15.35,15.35,0,0,0,2.22,1.82c.62.38,1.29.51,1.91.9.77.49,1.64.78,2.38,1.25.89.56,1.11,1.86,1.18,2.85,0,.4-.1,1.07.27,1.33s.69-.21.83-.52c.48-1,.07-1.9-.27-3-.15-.5-.4-1.09,0-1.36.15-.11.4-.06.62-.06s0-1.06-.86-1.39a2.83,2.83,0,0,0-1.49-.22c-.36.07-1.62-.9-2-1.11a21.5,21.5,0,0,1-2.68-1.74,4.55,4.55,0,0,1-1.64-1.95c-.36-1.24.89-1.5,1.72-1.16.67.28.93,1,1.44,1.5,1.11,1.17,2.61,1,3.88,1.43.9.29,1.09,1,1.67,1.77a12.1,12.1,0,0,1,1.38,1.8c.25.5.24.58.68.88a9,9,0,0,0,1.3.68,5.42,5.42,0,0,1,1.24.54c.4.31.27.31.33.74.13.94.37,1.86,1.33,2.11s.66-1.43.78-2.18a1.74,1.74,0,0,0-.18-1.51c-.3-.43-.88-.59-1.22-1-.84-1,.28-1.24.7-1.79s1-1.74,2.13-1.32c.65.25.66.68.79,1.3a5.74,5.74,0,0,0,1,1.8,8.06,8.06,0,0,0,1,1.77A4.88,4.88,0,0,0,280.7,222c.59-.17,1-.81,1.64-.84.27,0,.5.16.77.2a3.11,3.11,0,0,0,1.35-.24c.58-.21,1.08-.58,1.68-.75,1-.29,1.32-.1,1.41,1.09a42.85,42.85,0,0,0,.59,5.36c.13.66.78,2.21.52,2.79s-1.56,0-2.1-.13a9.15,9.15,0,0,0-4.62.57,17.29,17.29,0,0,1-2.31.75,4.39,4.39,0,0,1-2.3.2c-1.39-.56-5-2.25-5.68,0-.43,1.52.71,3.81-1.37,4a9.49,9.49,0,0,1-2.95-.55,21.46,21.46,0,0,0-4.42-.45,5.11,5.11,0,0,1-3-.8c-1.27-.9.12-1.72-.06-2.94a3.37,3.37,0,0,0-1.83-2.57,4,4,0,0,0-2.53.29c-.42.14-.83.14-1.25.26A5.86,5.86,0,0,0,253,229a13.42,13.42,0,0,1-2.87,1.17c-.53.17-1.05.33-1.56.51-.3.11-1.13.25-1.31.55-1,1.57-2.23,3.33-4.08,3.74-1.16.25-2.22.17-3.22,1a11.26,11.26,0,0,0-2.32,3c-.54.91-1,1.86-1.5,2.82-.56,1.12-.17,2.27.21,3.51a3.32,3.32,0,0,1,0,2.22,7.65,7.65,0,0,1-1.85,3.2,7.14,7.14,0,0,0-2.18,3.38,21.29,21.29,0,0,0-.52,3.94,11.29,11.29,0,0,0,2.62,7.56c.5.54.25,2.74.32,3.46a6.56,6.56,0,0,0,1.29,3.67,6.26,6.26,0,0,0,2,1.72c1.56.83,2.77,2.31,4.23,3.46a25.9,25.9,0,0,0,4.37,2.87,9.52,9.52,0,0,0,6.15,1,5.69,5.69,0,0,0,2.71-1.26,4,4,0,0,1,1.39-.82,9.27,9.27,0,0,0,2.9-1.71c.43-.45.85-.94,1.23-1.37a3.61,3.61,0,0,1,3.17-1.46,5,5,0,0,1,1.57.47,14,14,0,0,0,3.07,1.11,4.05,4.05,0,0,0,1.5-.09,3.75,3.75,0,0,1,2.51.36c2.11,1.13,1.86,3.57,1.49,5.74-.34,2,.91,3.59,2.12,4.8.59.58,1.07,1.2,1.65,1.74a7.36,7.36,0,0,1,1.76,2c.38.76.8,1.43,1.19,2.13a18.22,18.22,0,0,1,1.6,4.62c.14.79.25,1.6.32,2.41,0,.39.07.79.1,1.19a13.52,13.52,0,0,1,0,2.21,6.32,6.32,0,0,0-.09,1,12.71,12.71,0,0,0,.3,2.44c.28,1.33.71,3.68,1,5a11.64,11.64,0,0,0,.74,2.32,59.82,59.82,0,0,0,5.6,9c.95,1.37,1.84,2.83,2.77,4.19.47.69.88,1.47,1.4,2.13a11.44,11.44,0,0,1,1.22,2.42c.83,1.68,1.72,2.59,3.24,2.59a6.52,6.52,0,0,0,3.46-1.52,15.51,15.51,0,0,0,5.36-6.48,19.75,19.75,0,0,0,1.36-5.64,11.7,11.7,0,0,0,.16-2.73c-.07-1-.25-1.95-.26-2.94,0-1.5-.12-3.11-.05-4.6.1-2.34-.1-4.28.94-6.34a29.67,29.67,0,0,1,1.65-2.68c.91-1.42,2.64-3.82,2.07-6-2.71-10.48-8-17.7-.92-28.05,1.7-3.48,3.61-9,3.31-13.54-.15-2.16-1.86-3-3-2.17a20.12,20.12,0,0,1-2.1,1.5c-.67.41-1.4.72-2.08,1.08a3.8,3.8,0,0,1-2.27.11,2.23,2.23,0,0,1-1.79-1.12c-.5-.71-.62-1.54-1-2.27a3.91,3.91,0,0,0-1.78-1.33,15,15,0,0,1-3.91-3.11,18.13,18.13,0,0,1-2.63-4.46A8.35,8.35,0,0,0,293.5,240a22.7,22.7,0,0,1-2.4-2.56c-.74-.92-3.4-4-2.19-5.21,1-.91,2.76,2.1,3.41,2.84,1.27,1.49,2.57,2.8,3.87,4.08l2,2c1.12,1.09,2.47,2.44,3,3,.33.33.65.68,1,1a10.35,10.35,0,0,1,1.8,2c1.44,3.14,2.94,4.63,4.72,4,1.63-.59,3.55-3,4.82-4.32a52.3,52.3,0,0,0,6.15-7.4,11.4,11.4,0,0,0,.89-2.66,8.8,8.8,0,0,0,.58-3.15,1.86,1.86,0,0,0-1.35-1.86c-.55-.15-1,.2-1.53,0s-.93-1.12-1.45-1.54c-1-.81-1.56.14-2.21.82s-2,2.18-2.95,1.76c-.68-.3-.54-.93-1-1.42s-.69-.12-1.13-.13c-1.12,0-2-1.41-2.75-2.25-.58-.64-1.89-2.07-1.88-3.06,0-1.66,2.19-.08,2.81.32a25.92,25.92,0,0,1,2.31,1.3,3.6,3.6,0,0,0,1.95.74,12.51,12.51,0,0,0,2.14.3c.53,0,1-.38,1.55-.34a1.89,1.89,0,0,1,.93.32,5.22,5.22,0,0,0,3.85.67c1.43-.41,2.8-1.18,4.1-1.68a6.53,6.53,0,0,1,3.24-.62,6.16,6.16,0,0,1,3.57,2c.71.89,1.48,2.21,2.65,2.43s1.13-2.36,1.89-2c.41.22.65,1.18.81,1.6a14.69,14.69,0,0,0,.72,1.56c.6,1.17,1.19,2.36,1.8,3.56a64.85,64.85,0,0,0,4.06,7.16c.74,1.07,1.84,2.7,3,2.79.52,0,1.09-.84,1.28-1.4a6,6,0,0,0,.17-1.8,18.16,18.16,0,0,0-.12-2.34,26.74,26.74,0,0,1-.11-4.34,14.81,14.81,0,0,1,.36-1.92,15.32,15.32,0,0,1,1.22-3.33,12.92,12.92,0,0,0,1.26-2.32c.11-.36.22-.72.32-1.09a20.13,20.13,0,0,1,.74-2.07,2.11,2.11,0,0,1,.57-.84,5.32,5.32,0,0,1,1-.44c.68-.33.74-1,1.25-1.5s1.23-.17,1.73.15c1.41.93,2,2.9,2.62,4.51.31.8.67,1.83,1.48,1.7s1.15-.76,1.95-.28,1.26,1.82,1.89,2.66,1.46,1,1.86,2c.26.64,0,.83-.1,1.41s.12.91.43,1.4a3.35,3.35,0,0,1,.56,1.79,5.37,5.37,0,0,0,.05,1.79.8.8,0,0,0,.75.56,2.41,2.41,0,0,1,1.49,1.17c.2.38.38.79.53,1.07a6.09,6.09,0,0,0,.7,1.24c.11.13.21.21.31.31a3.17,3.17,0,0,1,.62,1.4,1.07,1.07,0,0,1-.2,1c-.21.18-.56.11-.92,0s-1.29-.51-1.76-.63a1.84,1.84,0,0,0-.83-.08c-1.41.28,1,3.14,1.49,3.57s.83.6,1.23,1a4.14,4.14,0,0,1,.88,1.38,17.75,17.75,0,0,0,2.15,2.87,13.44,13.44,0,0,0,2.33,2.32,6.4,6.4,0,0,0,1.31.75c.13.06,1.34.31,1.35.36.88,4,3.53.65,5.25,1.48,1.38.8,2.62,0,3.91-.46a6.07,6.07,0,0,0,1-.48c0-.36,0-.73.05-1.1A1.61,1.61,0,0,1,387.09,257.05ZM288.3,211.3a14.56,14.56,0,0,1-3.8,0c-1.8-.09-4.23,1.24-5.75,2a5.29,5.29,0,0,1-2.4.73c-1.78,0-1.84-4-1.65-6a7.77,7.77,0,0,1,.68-3c.91-1.55,3.92-.68,3.62-.11s.44.87.68,1.32.82.76,1.16.2-.8-2.52.45-3.72a5.21,5.21,0,0,1,.5-.41c1.36-1.06,2.37-.42,2.69,1.62a4.11,4.11,0,0,0,.44,1.4c1.05,1.85,3.12,1.54,3.19,1.76s.91.28,1.72.83S290,210.92,288.3,211.3Zm19.38,1.06c.1,1.58-1.55,2.39-3.46,2s-2.79-3.08-3.27-4.85-3.75-2.67-4.62-4.59c-1.55-3.4.67-7,2.91-7.38,1.73-.33,1.29,2.48.93,4.35-.12.65.3,1.09,1.07,1.69,1.6,1.24,3.29,1.54,4.22,2.06s.28,1.65-.54,2.19S307.54,210.35,307.68,212.36Z" style="fill:#BA68C8"></path><path d="M222.55,340c.25-1.32,1.76-3,2.95-3.89.93-.73,1.62-.95,2-2.44a9.24,9.24,0,0,0-.65-5.19c-.52-1.05-.34-2.28-.71-3a18.2,18.2,0,0,1-2.2-5.06c-.63-3.34,1.72-6.17,1.16-9.69-.35-2.2-3.11-3.65-4.85-3.95s-4.24-2.56-6-2.05l-.56.16c-1.75.5-5-1.09-6.9-1.28a9.74,9.74,0,0,0-1.32,0c-1.88,0-4.5-1.52-6-3.27s-2.88-3.1-4.52-3.51c-2.21-.53-4.36,1.74-6.56.12a8.94,8.94,0,0,0-3.08-1.61,9.59,9.59,0,0,1-3.21-1.36c-1.44-1.08-2.06.2-3.43,0-.8-.13-1.15-.44-2-.21-1.07.29-2.12.7-3.2.88-.89.14-1.33-.22-2.17-.57-1.93-.8-4.22.8-4.85,2.44-.31.81-.21,1.89-.53,2.64-.65,1.5-3.14,1.09-4.65.74a8.26,8.26,0,0,1-3.25-1.56c-1.14-.94-1.85-1.07-2.21-2.58-.27-1.08-.43-2.54-1.46-3.27a3.51,3.51,0,0,0-2.78-.23c-.7.15-1.52.69-2.29.49a2.59,2.59,0,0,1-1.69-2c0-.61.52-1.11.68-1.65a2.26,2.26,0,0,0,.12-.94c0-.16-.37-.78-.35-.83.31-1.35-.15-2-.89-2.07-1.32-.18-3,1.45-2.89,3s-2,3.23-3.77,3c-3.39-.52-6.38-5.82-6.46-9.93,0-1.88,1.21-4.82,2.73-5.45,1.23-.52,2.73-.36,4.22-.63.63-.06.5-.48.37-.9-.2-.69,1.17-1,2.15-1.34a5.32,5.32,0,0,1,4.74.75,12.38,12.38,0,0,1,1.73,2.12c1.13,1.57,3.76,2,2.79.19-.61-1.11-1.61-2.45-2.33-3.72-1-1.74-.22-4.61.72-5.92a24.61,24.61,0,0,0,1.68-2.4,4.34,4.34,0,0,0,.71-2.56c-.2-1-1.14-1.8-1.36-2.94a5.78,5.78,0,0,1,0-2.38,7.28,7.28,0,0,1,1.78-3.43c.82-.82,2.57-1.1,2.76-2.6s0-2.34.77-3.71a10.31,10.31,0,0,1,1.86-2.22c1.14-1.07,1.06,1.49,2.63.86a13.79,13.79,0,0,0,4-3.47c1.23-1.46,1.42-3.41.79-3.86s-1.19,3-2.83,3.05a3,3,0,0,1-.52,0c-1.62-.32-2-2.84-2.26-2.72s-.35-.3,0-.56.14-3-1.27-2c-.24.18-.49.39-.74.62-1.33,1.21-1.83,0-.51-1.21,2.1-2,4.92-3,7.47-4.38,1.54-.85,2.34-.13,1.85,1.93s-.69,3.39.57,3.31c1.69-.09,3.43-1.34,3.62-.71.12.41.25.78.69.23.66-.82,1.89.33,2.33-.89a1.81,1.81,0,0,0-.59-1.73c-.66-.75-1.6-2.16-2.58-1.94s-1.8-2.19-1.76-4.34c0-.22,0-.45,0-.66-.05-2.14-2.9-3.12-4.37-3.88-4.35-2.24-3-2.77-5.8-6.76-1-1.47-2.4-.83-3.37.93-.52.94-1.1,1.67-1.66,1.74-1.46.17-1.55-4.34-2.59-4.53-.57-.11-1.28,0-1.75-.81-.79-1.42-2.41-1.57-3.81-.91s-2.2,3.52-1.78,5-.43,4.19.31,5.14,2,3.5,1.28,5.39c-.46,1.13-1.26,2.12-1.61,3.24-.61,2,1.25,4.36.82,5.5a1.14,1.14,0,0,1-1.38.85,4.32,4.32,0,0,1-2.5-2.25c-.82-2.33-.21-4-2.36-4a21.41,21.41,0,0,1-8.26-1.61c-1.21-.54-1.3-1.63-1.86-2.93s-1.82-1.4-.67-3.69c.72-1.44,2-2.66,2.27-4.6s-1.36-1.61-.63-3.27,3.2-1.69,4.2-2.46a2.5,2.5,0,0,0,1.13-1.57c.25-1.36-.72-1.18-1.05-1.74-.11-.18.23-.39.58-.55a3.78,3.78,0,0,0,1.34-.76,2.43,2.43,0,0,0,.5-.91,6.2,6.2,0,0,1,.22-1,1.74,1.74,0,0,1,.72-.73,4.8,4.8,0,0,0,1.74-1.19,7,7,0,0,0,1.88-3.07,5.73,5.73,0,0,0,.06-2.46c-.21-.39-.73-.21-.82-.89-.3-2.24,2-2.85,2.78-3.2,1.11-.54,2.43-1.22,2.5,1.06,0,1,.26,3.41,1.24,1.81.56-.9.76-1.32,1.33-.76a2.05,2.05,0,0,1,.94,1.82,2.75,2.75,0,0,1-.87,2c-.71.79-1,4.16-2.3,4.74-.21.09-.43.18-.63.28-1.3.63-.61,3.82.6,2.87s2.93-.45,4.08.44c1.61,1.26,3.91,2.49,4.87,2.25,1.43-.37-.13-3.28.52-3.71a3.91,3.91,0,0,1,1.19-.63c.24-.05,0-1.94-.06-2.13a2.85,2.85,0,0,0-.85-1.37c-.76-.62-1.68-.48-2.25-1.63-.63-1.3.49-2.86,1.32-2.56.4.15.71.65,1,1.15.51.79,1.35,1.1,1.65.86a2.09,2.09,0,0,0,.49-.61c.33-.66.18-1.33.41-2,.39-1.06,1.25-1,1.63-2a1.2,1.2,0,0,0-.71-1.73c-1.25-.56-2.56-.75-3.75-1.25-.25-.11-.48-.15-.69-.27-.37-.2-.66-1.26-.68-2.1a9.11,9.11,0,0,0-.12-1.44,2.16,2.16,0,0,0-1.09-1.27,7.06,7.06,0,0,0-1.52-.88c-.88-.35-2.71,0-3.54-.94s-1.52-2.2-2.46-1.9c-.11,0-.41.48-.55.58a1,1,0,0,1-.64.19c-.42,0-.73-.31-1.12-.41a2.44,2.44,0,0,0-2.47.79,9.31,9.31,0,0,1-1,.88,11,11,0,0,1-2,.87,9.84,9.84,0,0,0-2.44,2.55,8.13,8.13,0,0,0-1.13,2.13c-.38,1.23-.5,3.07.24,3.1s1.91-.65,2.77-.78,2.63-.63,2.29,1.42c-.26,1.54-1.89,1.49-1.74,3.23,0,.57.36,1,.17,1.76a7,7,0,0,1-.89,1.77,9.87,9.87,0,0,1-1,1.33c-.48.51-1.29.52-1.35-.32-.06-.68.47-1.34.49-2.06a.79.79,0,0,0-.72-.91,1.82,1.82,0,0,0-.62,0,1.79,1.79,0,0,1-1.19-.53,3.51,3.51,0,0,1-.47-.67c-.24-.42-.58-.79-.83-1.25a3.86,3.86,0,0,1,.08-2.94c.19-.29.42-.57.66-1a16.74,16.74,0,0,0,1.19-2.57c.72-1.91.66-3.57-.54-3.17s-2.79,2.28-3.23,4.49a21.47,21.47,0,0,1-.72,3.8c-.44,1.15-1.17,2.09-1.56,3.23a19.37,19.37,0,0,0-.36,3c-.21,1-.45.86-.93,1.33-1.08,1-.52,3.17-1.52,4.43a3.24,3.24,0,0,1-1.18.76,4.6,4.6,0,0,1-2.18.52c-.21,0-.5,0-.44-.51.09-.7.67-1,1-1.35a6.43,6.43,0,0,0,1.29-4.65c-.21-.73-.88-.54-1.32-.78a3,3,0,0,1-1.2-2.78c-1.35,3.44-2.56,6.93-3.63,10.44a.67.67,0,0,1,.67.29c.21.33.13.79,0,1.41a10,10,0,0,0-.23,1.17c-.09.64-.54,3.05-1.32,2.73a3.66,3.66,0,0,1-.57-.33,135.88,135.88,0,0,0-3.46,17.92,139.82,139.82,0,0,0,2.18,47.09,1.16,1.16,0,0,1,1.19.06c1.44.79,2.75,3.44,4.2,4.25,2.42,1.33,5.26,3,7,5.35,1.12,1.5,2.74,3.75,4.42,4.36,3.27,1.19,7,1.85,9.89,1s7.13,3.56,9.61,1.45c.3-.26,2.32,1.82,2.6,2.09a10.6,10.6,0,0,0,3.71,2.1,22.11,22.11,0,0,0,4.3.93c2.66.39,5.94,1.21,6.18,5.06.15,2.33-.39,4.68-.54,7s-.07,4.84,1.6,6.83,3.85,3.12,5.49,5,1.82,4.77,3.56,6.86c2.17,2.61,4.55,2.65,7.69,3.22a10.16,10.16,0,0,1,6.21,3.37A88.75,88.75,0,0,1,202,352.38c3.77,6,7.16,12.48,12.16,17.49a29.27,29.27,0,0,0,8.25,6.14c2,.95,3.8.66,3.22-2-.35-1.6-1.89-2.69-2.78-4s-.54-2.71-.87-4.22c-.27-1.25-1.77-2.93-1.1-4.13s2.12-.77,2.34-2.21c.28-1.83-1.71-2.24-2.27-3.51s1.69-1.75,2.15-3.08c.3-.84-.13-1.78,0-2.63.12-.69.45-.87.75-1.4a7.27,7.27,0,0,0,.57-3.4C224.37,343.57,222.2,341.84,222.55,340Zm-88.66-92.05c1.11-1.55,3-4.91,4.4-4.47a5.08,5.08,0,0,1,1.9,1.59c1.13,1.28,3.4,1.34,4.77,1.69s-.12,1.93-.06,3.19-.72,1.91-.83,1.22c-.06-.42-.15-.74-.69-.38-.75.51-.68-.15-.59-.88.13-1-2.21-1.34-2.39.68a12.89,12.89,0,0,0,0,1.65c.05,2-1.83,2.37-1.87.35,0-.25,0-.51,0-.77.08-2-1-4.2-2.52-3.71C134.28,248.64,132.71,249.59,133.89,247.92Z" style="fill:#BA68C8"></path><path d="M127.52,187.6c.4.68,1.25-.17,1.38-.53s.82-2.46.21-3.16c-.3-.34-.72-.17-1.12.2-.41.76-.81,1.54-1.21,2.31A5.56,5.56,0,0,0,127.52,187.6Z" style="fill:#BA68C8"></path><path d="M225.35,208.71c.8,1.19,2,0,2.73-.43a3.86,3.86,0,0,0,1.43-3,3.66,3.66,0,0,0-1-2.31c-.57-.58-1.9-1.51-2.49-.81-.24.28-.05.65-.23.92s-1,.31-1.37.51c-1.05.57.14,1.54.5,2.17a2.52,2.52,0,0,1,.29,1.44C225.23,207.7,225,208.26,225.35,208.71Z" style="fill:#BA68C8"></path><path d="M255.75,221.92c.22-1.91-2.55-6.68-2.75-4.64a6,6,0,0,0,0,1.13C253.12,220.5,255.52,223.84,255.75,221.92Z" style="fill:#BA68C8"></path><path d="M387.85,238.81c.42-1.39.14-3.05-1.21-2.91s-1.6,1.66-2.29,2.94a28.58,28.58,0,0,1-2.92,4.29c-.67.82-2.21.53-2.11,2.14a7.39,7.39,0,0,0,1.55,3.85,7.27,7.27,0,0,0,2,2.25c1.58.94,3.67,1,4.92-1a3.5,3.5,0,0,0,.42-1c.15-.61.2-1.77.42-2.53-.05-1.89-.14-3.78-.26-5.66A2.19,2.19,0,0,1,387.85,238.81Z" style="fill:#BA68C8"></path><path d="M162.06,282.29a8.28,8.28,0,0,1-3.9-.28c-1.23-.35-2.68-.76-3.67,0-.74.6.57,1.25,1.23,1.5a12.35,12.35,0,0,0,1.51.45c.84.21,2,.73,2.67.88a1.81,1.81,0,0,0,1.12-.05c1.41-.52,2.65-1.83,4.43-1.14.41.16,1.2.78,1.63.6l.08,0c.42-.31.09-1.14-.24-1.53C165.63,281.17,163.36,282,162.06,282.29Z" style="fill:#BA68C8"></path><path d="M262.79,225.26a1.46,1.46,0,0,0-1.39-1.59c-.52-.09-.45.46-.31,1.08C261.27,225.54,262.65,226.56,262.79,225.26Z" style="fill:#BA68C8"></path><path d="M248.28,224.28c.42-.78.12-1.38-1.61-.83-.28.06-.57.65-.7,1.24C245.78,225.52,247.57,225.58,248.28,224.28Z" style="fill:#BA68C8"></path><path d="M211.42,181.92c.42-2.11-2.58-4.37-3.5-4-.55.24-1,.92-1.38,1.25a11.41,11.41,0,0,1-1.82.7c-1,.39-1.64,2.12-2.65,1.34s-.88,2.56.67,4.09C206.31,188.88,210.78,185.09,211.42,181.92Z" style="fill:#BA68C8"></path><path d="M137.13,209.34c-.29,1.94,0,3.6.85,3.76s2.63-1.58,4-2.36c1.92-1.11,0-1.63-1.74-2.65C139.05,207.41,137.42,207.4,137.13,209.34Z" style="fill:#BA68C8"></path><path d="M193.59,164.79c.89-1.11,2.39-3.27,1.39-5.28-.59-1.2-1.43-1.47-1.79-2.88A5.51,5.51,0,0,1,193,155a16.27,16.27,0,0,1,.69-2.69,1.68,1.68,0,0,0-.23-1.46c-.59-.88-1.52-.72-2.14-1.18-3.2-2.37,3.19-10.36,2-11.58a1.18,1.18,0,0,0-.82-.27,7,7,0,0,0-1.79.21,3,3,0,0,0-.94.43,3.1,3.1,0,0,0-.88,1.33c-.4.89-.93,1.9-1.22,1.71-.12-.07-.23-.29-.5-.54-.78-.72-.66,0-1.23.51-.29.27-1.39.68-1.74-.31s.44-2.34.61-3a2.52,2.52,0,0,1,.67-1.23c.48-.47.05-1.82-1-2.38a6.19,6.19,0,0,0-3.19-.54,9.33,9.33,0,0,0-5.7,2.32,13.24,13.24,0,0,0-2.47,2.64c-1,1.43-1.66,4.24-2.82,5.86a2.24,2.24,0,0,1-2.29,1c-1.46,0-3.34,0-5.09,3.18-1.08,2,0,1.86-.28,3.49s-2,1.79-2.6,2.24a3.39,3.39,0,0,0-1.22,3.7c.11.32.09.61-.59,1.64a26.28,26.28,0,0,1-3,3.57,6.41,6.41,0,0,0-1.75,3.36c-.27,1.31.14,1.17.57,1.45a1.73,1.73,0,0,1,.55.56c.26.41.62,1.61,1.22,1.64s2.13-1.19,3.3-2c2-1.41,3.89-2.54,5.41-1a4.58,4.58,0,0,1,1.07,1.92,21.64,21.64,0,0,1,.2,5.71,4.13,4.13,0,0,0,.35,2.47c.84,1.15,2.4.72,3.31,2.05.72,1,.72,2.78.39,4.43-.37,1.83-1.2,2.68-1.76,4.29s.15,3,.32,4.49a13.94,13.94,0,0,0,1.66,5,39.87,39.87,0,0,0,3,4.8,6.24,6.24,0,0,0,1.48,1.57c.92.63,2.91.29,4.2-.41a4.68,4.68,0,0,0,2-2.07c1-2.16,0-4.8,0-7.14a5.86,5.86,0,0,1,2-4.63c1.11-1,2.71-1.93,3.44-3.56.6-1.34.68-3.2,1.36-4.47.91-1.7,2.91-2.18,4.15-3.18.86-.69,2.54-2.22,2.33-3.72-.12-.81-.52-1.14-.35-2a3,3,0,0,1,.81-1.3,8.29,8.29,0,0,1,.66-.51c.36-.29.25-1.32-.18-1.73s-.62-.53-.78-.72C193,167.45,192.53,166.11,193.59,164.79Z" style="fill:#BA68C8"></path><path d="M128.26,192.47c.46-.62,1-1.37.67-1.6-.1-.09-.29,0-.4-.11s-1,.15-2.34,1.36-1.34,2.75-2.3,3.51.4,2.55,1.48,2.84c1.62.43,3-1.61,3.58-3.36C129.72,192.88,127.61,193.35,128.26,192.47Z" style="fill:#BA68C8"></path></g><path d="M266.61,123c-91.19-11.47-98.13,50.54-46,80.76s133.29,30.1,140.09,3.72S334.39,131.54,266.61,123Z" style="fill:#fff;opacity:0.2"></path><g style="opacity:0.15"><path d="M204,337.78c-82.14-33.64-80.42-168.12-17.75-210.86h0c-2.38,1.23-4.75,2.52-7.08,3.91A138.64,138.64,0,1,0,384.66,283C372.7,314.6,290.18,373.09,204,337.78Z" style="fill:#BA68C8"></path></g></g></g></svg>
