<svg xmlns="http://www.w3.org/2000/svg" viewBox="0 0 500 500"><g id="freepik--background-simple--inject-12"><path d="M442.86,372.59c16.9-17.62,29.83-38.68,36.62-62.13,7.78-26.85,13.52-60.09,6.46-87.93-14.53-57.37-35.95-42.83-90.25-80.31S307,36.67,238.89,25.19,63.74,45.08,40,130.74s3.82,153,32.12,199.63S47.68,383.91,61.44,433.63,322.26,507.06,401,468.05s35.95-54.31,33.66-75C433.78,384.83,437.76,377.92,442.86,372.59Z" style="fill:#D45C4B"></path><path d="M442.86,372.59c16.9-17.62,29.83-38.68,36.62-62.13,7.78-26.85,13.52-60.09,6.46-87.93-14.53-57.37-35.95-42.83-90.25-80.31S307,36.67,238.89,25.19,63.74,45.08,40,130.74s3.82,153,32.12,199.63S47.68,383.91,61.44,433.63,322.26,507.06,401,468.05s35.95-54.31,33.66-75C433.78,384.83,437.76,377.92,442.86,372.59Z" style="fill:#fff;opacity:0.7000000000000001"></path></g><g id="freepik--Grid--inject-12"><g style="opacity:0.15"><line x1="49.97" y1="21.37" x2="49.97" y2="366.32" style="fill:none;stroke:#000;stroke-miterlimit:10"></line><line x1="94.33" y1="21.37" x2="94.33" y2="366.32" style="fill:none;stroke:#000;stroke-miterlimit:10"></line><line x1="138.69" y1="21.37" x2="138.69" y2="366.32" style="fill:none;stroke:#000;stroke-miterlimit:10"></line><line x1="183.06" y1="21.37" x2="183.06" y2="366.32" style="fill:none;stroke:#000;stroke-miterlimit:10"></line><line x1="227.42" y1="21.37" x2="227.42" y2="366.32" style="fill:none;stroke:#000;stroke-miterlimit:10"></line><line x1="271.78" y1="21.37" x2="271.78" y2="366.32" style="fill:none;stroke:#000;stroke-miterlimit:10"></line><line x1="316.14" y1="21.37" x2="316.14" y2="366.32" style="fill:none;stroke:#000;stroke-miterlimit:10"></line><line x1="360.51" y1="21.37" x2="360.51" y2="366.32" style="fill:none;stroke:#000;stroke-miterlimit:10"></line><line x1="404.87" y1="21.37" x2="404.87" y2="366.32" style="fill:none;stroke:#000;stroke-miterlimit:10"></line><line x1="449.23" y1="21.37" x2="449.23" y2="366.32" style="fill:none;stroke:#000;stroke-miterlimit:10"></line><line x1="473.71" y1="29.15" x2="25.49" y2="29.15" style="fill:none;stroke:#000;stroke-miterlimit:10"></line><line x1="473.71" y1="76.21" x2="25.49" y2="76.21" style="fill:none;stroke:#000;stroke-miterlimit:10"></line><line x1="473.71" y1="123.26" x2="25.49" y2="123.26" style="fill:none;stroke:#000;stroke-miterlimit:10"></line><line x1="473.71" y1="170.32" x2="25.49" y2="170.32" style="fill:none;stroke:#000;stroke-miterlimit:10"></line><line x1="473.71" y1="217.37" x2="25.49" y2="217.37" style="fill:none;stroke:#000;stroke-miterlimit:10"></line><line x1="473.71" y1="264.43" x2="25.49" y2="264.43" style="fill:none;stroke:#000;stroke-miterlimit:10"></line><line x1="473.71" y1="311.48" x2="25.49" y2="311.48" style="fill:none;stroke:#000;stroke-miterlimit:10"></line><line x1="473.71" y1="358.54" x2="25.49" y2="358.54" style="fill:none;stroke:#000;stroke-miterlimit:10"></line></g></g><g id="freepik--Pieces--inject-12"><polygon points="319.16 393.89 304.5 401.63 312.64 408.15 320.36 409.46 335.87 402.04 329.75 393.89 319.16 393.89" style="fill:#D45C4B;stroke:#263238;stroke-linecap:round;stroke-linejoin:round"></polygon><polygon points="304.5 401.63 301.26 411.82 313.27 417.64 322.18 417.64 339.82 412 335.87 402.04 320.36 409.46 312.64 408.15 304.5 401.63" style="fill:#9da3a5;stroke:#263238;stroke-linecap:round;stroke-linejoin:round"></polygon><polygon points="312.64 408.15 313.27 417.64 322.18 417.64 320.36 409.46 312.64 408.15" style="fill:#9da3a5;stroke:#263238;stroke-linecap:round;stroke-linejoin:round"></polygon><polygon points="320.36 409.46 335.87 402.04 339.82 412 322.18 417.64 320.36 409.46" style="fill:#9da3a5;stroke:#263238;stroke-linecap:round;stroke-linejoin:round"></polygon><polygon points="286.9 414.37 278.35 414.01 267.07 416.37 279.08 419.82 286.9 414.37" style="fill:#D45C4B;stroke:#263238;stroke-linecap:round;stroke-linejoin:round"></polygon><polygon points="267.07 416.37 265.26 422.19 281.44 426.01 279.08 419.82 267.07 416.37" style="fill:#9da3a5;stroke:#263238;stroke-linecap:round;stroke-linejoin:round"></polygon><polygon points="286.9 414.37 293.26 420.19 281.44 426.01 279.08 419.82 286.9 414.37" style="fill:#9da3a5;stroke:#263238;stroke-linecap:round;stroke-linejoin:round"></polygon><polygon points="322.73 421.64 314.9 425.1 319.81 427.46 327.63 425.1 322.73 421.64" style="fill:#D45C4B;stroke:#263238;stroke-linecap:round;stroke-linejoin:round"></polygon><polygon points="314.9 425.1 314.18 429.83 320.54 433.46 328.18 429.46 327.63 425.1 319.81 427.46 314.9 425.1" style="fill:#9da3a5;stroke:#263238;stroke-linecap:round;stroke-linejoin:round"></polygon><polygon points="319.81 427.46 320.54 433.46 328.18 429.46 327.63 425.1 319.81 427.46" style="fill:#9da3a5;stroke:#263238;stroke-linecap:round;stroke-linejoin:round"></polygon></g><g id="freepik--Arrow--inject-12"><polygon points="431.77 255.14 405.69 255.14 396.38 290.06 358.2 247.69 332.12 247.69 338.17 292.39 308.37 299.38 347.02 341.75 323.74 375.74 437.36 417.65 463.43 417.65 431.77 255.14" style="fill:#9da3a5;stroke:#263238;stroke-linecap:round;stroke-linejoin:round"></polygon><polygon points="332.12 247.69 319.08 256.07 312.1 292.39 282.3 299.38 320.95 341.75 297.66 375.74 437.36 417.65 405.69 255.14 370.3 290.06 332.12 247.69" style="fill:#D45C4B;stroke:#263238;stroke-linecap:round;stroke-linejoin:round"></polygon><line x1="319.07" y1="325.55" x2="318.45" y2="328.34" style="fill:none;stroke:#263238;stroke-linecap:round;stroke-linejoin:round"></line><polyline points="312.1 292.39 314.52 292.95 319.63 296.49 318.06 305.14 314.91 309.47 319.63 315.76 320.02 321.27" style="fill:none;stroke:#263238;stroke-linecap:round;stroke-linejoin:round"></polyline><polyline points="314.91 309.47 313.34 316.94 303.9 322.05" style="fill:none;stroke:#263238;stroke-linecap:round;stroke-linejoin:round"></polyline><polyline points="372.75 310.18 381.76 314.19 379.79 328.74 378.61 335.03 385.3 348" style="fill:none;stroke:#263238;stroke-linecap:round;stroke-linejoin:round"></polyline><polyline points="370.3 290.06 363.67 292.56 364.06 306.32 369.06 308.55" style="fill:none;stroke:#263238;stroke-linecap:round;stroke-linejoin:round"></polyline><line x1="368.16" y1="353.66" x2="368.78" y2="356.26" style="fill:none;stroke:#263238;stroke-linecap:round;stroke-linejoin:round"></line><polyline points="378.61 335.03 377.44 343.68 366.42 346.43 367.36 350.33" style="fill:none;stroke:#263238;stroke-linecap:round;stroke-linejoin:round"></polyline><polygon points="306.39 147.99 240.5 80.55 215.7 89.52 209.28 150.43 72.64 216.45 98.42 216.45 222.48 162.91 235.83 202.55 261.61 202.55 292.49 186.59 291.98 158.28 306.39 147.99" style="fill:#515b60;stroke:#263238;stroke-linecap:round;stroke-linejoin:round"></polygon><polygon points="209.28 150.43 72.64 216.45 98.42 216.45 222.48 162.91 223.23 165.14 227.52 160.36 209.55 147.88 209.28 150.43" style="fill:#515b60;stroke:#263238;stroke-linecap:round;stroke-linejoin:round"></polygon><polygon points="280.61 147.99 306.39 147.99 291.98 158.28 266.2 158.28 280.61 147.99" style="fill:#515b60;stroke:#263238;stroke-linecap:round;stroke-linejoin:round"></polygon><polygon points="266.71 186.59 292.49 186.59 291.98 158.28 266.2 158.28 266.71 186.59" style="fill:#9da3a5;stroke:#263238;stroke-linecap:round;stroke-linejoin:round"></polygon><polygon points="306.39 147.99 240.5 80.55 214.72 80.55 280.61 147.99 306.39 147.99" style="fill:#9da3a5;stroke:#263238;stroke-linecap:round;stroke-linejoin:round"></polygon><polygon points="280.61 147.99 214.72 80.55 93.75 124.31 26.51 43.81 26.51 162.95 72.64 216.45 196.7 162.91 235.83 202.55 266.71 186.59 266.2 158.28 280.61 147.99" style="fill:#D45C4B;stroke:#263238;stroke-linecap:round;stroke-linejoin:round"></polygon><polyline points="266.2 158.28 262.61 152.57 246.1 154.15 236.27 146.28 228.4 138.81" style="fill:none;stroke:#263238;stroke-linecap:round;stroke-linejoin:round"></polyline><line x1="208.95" y1="149.65" x2="204.81" y2="151.39" style="fill:none;stroke:#263238;stroke-linecap:round;stroke-linejoin:round"></line><polyline points="236.27 146.28 229.98 147.07 224.47 143.14 214.57 147.29" style="fill:none;stroke:#263238;stroke-linecap:round;stroke-linejoin:round"></polyline><polygon points="26.51 22.54 26.51 43.81 93.75 124.31 108.16 119.16 26.51 22.54" style="fill:#9da3a5;stroke:#263238;stroke-linecap:round;stroke-linejoin:round"></polygon></g><g id="freepik--Coins--inject-12"><g style="opacity:0.30000000000000004"><path d="M407.16,114.68c0-5.08-2.54-9.11-10.91-12l-.37-.13V87.37a16.6,16.6,0,0,1,3,.41l.76,3.41c.75,3.22,2.3,4.09,3.66,4.09a2.82,2.82,0,0,0,2.73-1.92c-.35-4.92-4.6-8.46-10.17-9V78.73H393.4v5.63c-6.57.46-11.22,5.23-11.22,11.23,0,6.2,3.85,9.55,10.36,11.84l.8.28V123a23.25,23.25,0,0,1-4.45-.52l-.76-3.38c-.74-3.28-2.1-4.09-3.59-4.09a2.88,2.88,0,0,0-2.79,1.93c.24,5.3,5.11,8.92,11.59,9v6.34h2.48V125.9C402.94,125.15,407.16,120.72,407.16,114.68ZM387,94.29c0-4,2.67-6.3,6.38-6.82v14.21C389.32,100.25,387,98.1,387,94.29Zm8.8,28.63V108.6c4.56,1.75,6.51,3.61,6.51,7.26C402.33,119.86,399.83,122.35,395.82,122.92Z" style="fill:none;stroke:#000;stroke-miterlimit:10"></path><circle cx="394.46" cy="105.54" r="37.66" style="fill:none;stroke:#000;stroke-miterlimit:10"></circle><circle cx="394.46" cy="105.54" r="33.16" style="fill:none;stroke:#000;stroke-miterlimit:10"></circle></g><g style="opacity:0.30000000000000004"><path d="M145.16,64.15c0-3.65-1.82-6.54-7.83-8.63l-.26-.09V44.55a12,12,0,0,1,2.16.3l.55,2.45c.53,2.31,1.65,2.93,2.62,2.93a2,2,0,0,0,2-1.38c-.25-3.53-3.3-6.07-7.29-6.44v-4h-1.78v4c-4.72.34-8,3.75-8,8.06S130,57.3,134.67,59l.57.2v11a16,16,0,0,1-3.19-.37l-.54-2.42C131,65,130,64.41,128.93,64.41a2.05,2.05,0,0,0-2,1.38c.17,3.81,3.67,6.41,8.31,6.49v4.54H137V72.2C142.13,71.66,145.16,68.48,145.16,64.15ZM130.71,49.52c0-2.9,1.92-4.52,4.58-4.9v10.2C132.36,53.8,130.71,52.25,130.71,49.52ZM137,70.06V59.79c3.27,1.25,4.67,2.58,4.67,5.2C141.69,67.86,139.9,69.65,137,70.06Z" style="fill:none;stroke:#000;stroke-miterlimit:10"></path><circle cx="136.04" cy="57.59" r="27.02" style="fill:none;stroke:#000;stroke-miterlimit:10"></circle><circle cx="136.04" cy="57.59" r="23.79" transform="translate(-9.65 33.15) rotate(-13.42)" style="fill:none;stroke:#000;stroke-miterlimit:10"></circle></g><g style="opacity:0.30000000000000004"><path d="M460.69,220.8c0-2.44-1.22-4.38-5.24-5.78l-.18-.06v-7.29a8.18,8.18,0,0,1,1.45.21l.37,1.63c.35,1.55,1.1,2,1.75,2a1.35,1.35,0,0,0,1.31-.92c-.16-2.37-2.2-4.07-4.88-4.32v-2.71h-1.19v2.7a5.48,5.48,0,0,0-5.39,5.4c0,3,1.84,4.59,5,5.69l.39.13v7.37a11.93,11.93,0,0,1-2.14-.25l-.36-1.62c-.36-1.58-1-2-1.73-2a1.38,1.38,0,0,0-1.34.92c.11,2.56,2.46,4.29,5.57,4.35v3h1.19v-3.1C458.66,225.84,460.69,223.7,460.69,220.8ZM451,211a3.19,3.19,0,0,1,3.07-3.28v6.83C452.11,213.87,451,212.84,451,211Zm4.23,13.76v-6.88c2.19.84,3.13,1.73,3.13,3.49A3.27,3.27,0,0,1,455.24,224.76Z" style="fill:none;stroke:#000;stroke-miterlimit:10"></path><circle cx="454.58" cy="216.41" r="18.1" transform="translate(-34.82 334.58) rotate(-39.03)" style="fill:none;stroke:#000;stroke-miterlimit:10"></circle><circle cx="454.58" cy="216.41" r="15.94" style="fill:none;stroke:#000;stroke-miterlimit:10"></circle></g><g style="opacity:0.30000000000000004"><path d="M327.6,175.68c0-2.45-1.22-4.38-5.24-5.78l-.18-.06v-7.29a8,8,0,0,1,1.45.2l.37,1.64c.36,1.55,1.1,2,1.76,2a1.36,1.36,0,0,0,1.31-.92c-.17-2.36-2.21-4.07-4.89-4.32V158.4H321v2.7a5.48,5.48,0,0,0-5.39,5.4c0,3,1.85,4.59,5,5.69l.39.14v7.36a10.36,10.36,0,0,1-2.14-.25l-.36-1.62c-.36-1.58-1-2-1.73-2a1.38,1.38,0,0,0-1.34.93c.12,2.55,2.46,4.29,5.57,4.34v3h1.19v-3.09C325.57,180.71,327.6,178.58,327.6,175.68Zm-9.68-9.8A3.19,3.19,0,0,1,321,162.6v6.83C319,168.74,317.92,167.71,317.92,165.88Zm4.23,13.76v-6.89c2.19.84,3.13,1.74,3.13,3.49A3.29,3.29,0,0,1,322.15,179.64Z" style="fill:none;stroke:#000;stroke-miterlimit:10"></path><circle cx="321.5" cy="171.28" r="18.1" transform="translate(-23.18 53.4) rotate(-9.17)" style="fill:none;stroke:#000;stroke-miterlimit:10"></circle><circle cx="321.5" cy="171.28" r="15.94" style="fill:none;stroke:#000;stroke-miterlimit:10"></circle></g><g style="opacity:0.30000000000000004"><path d="M66.8,286c0-3.64-1.83-6.53-7.83-8.62l-.27-.1V266.41a12,12,0,0,1,2.17.3l.55,2.45c.53,2.31,1.64,2.93,2.62,2.93a2,2,0,0,0,2-1.38c-.25-3.52-3.3-6.06-7.3-6.43v-4.06H56.93v4c-4.72.33-8,3.75-8,8.06s2.75,6.84,7.42,8.49l.58.2v11a17.67,17.67,0,0,1-3.19-.37l-.54-2.43c-.54-2.35-1.52-2.93-2.58-2.93a2.05,2.05,0,0,0-2,1.38c.17,3.8,3.66,6.4,8.31,6.48v4.55h1.78v-4.63C63.77,293.52,66.8,290.34,66.8,286ZM52.35,271.38c0-2.9,1.91-4.52,4.58-4.89v10.19C54,275.66,52.35,274.12,52.35,271.38Zm6.31,20.54V281.65c3.27,1.25,4.67,2.59,4.67,5.21C63.33,289.73,61.54,291.51,58.66,291.92Z" style="fill:none;stroke:#000;stroke-miterlimit:10"></path><circle cx="57.68" cy="279.45" r="27.02" style="fill:none;stroke:#000;stroke-miterlimit:10"></circle><circle cx="57.68" cy="279.45" r="23.79" transform="translate(-180.71 122.64) rotate(-45)" style="fill:none;stroke:#000;stroke-miterlimit:10"></circle></g></g><g id="freepik--Character--inject-12"><path d="M113.94,393.94l-3,14.51s-10.6,8.07-12.91,9a94.55,94.55,0,0,0-8.52,4.38c-1.15.69-.92,2.07,1.84,3.23s7.14,1.15,11.75,0,13.83-3.69,15.9-3.69,7.84,1.15,9-1.61-1.84-12.45-2.07-14.75,1.15-10.14,1.15-10.14Z" style="fill:#9da3a5;stroke:#263238;stroke-linecap:round;stroke-linejoin:round"></path><path d="M89.52,421.82c-1.15.69-.92,2.07,1.84,3.23s7.14,1.15,11.75,0,13.83-3.69,15.9-3.69,7.84,1.15,9-1.61c.66-1.6,0-5.5-.82-9-3.25,2.27-10.93,2.27-10.93,2.27a4.77,4.77,0,0,0-1.39-2.76,6.53,6.53,0,0,0-3.91-1.85s-10.6,8.07-12.91,9A94.55,94.55,0,0,0,89.52,421.82Z" style="fill:#263238;stroke:#263238;stroke-linecap:round;stroke-linejoin:round"></path><path d="M103.8,422.05s-7.83-1.15-12-2.3-7.37-1.62-12.67-4.38-10.83-5.3-13.37-3.46-.69,8.3,2.77,11.52a35.16,35.16,0,0,0,10.83,7.15c3.22,1.15,7.6,2.76,11.06,2.3s6.68-2.54,9.68-2.54a53.93,53.93,0,0,0,7.14-.69Z" style="fill:#9da3a5;stroke:#263238;stroke-linecap:round;stroke-linejoin:round"></path><path d="M65.78,411.91c-2.53,1.84-.69,8.3,2.77,11.52a35.16,35.16,0,0,0,10.83,7.15c3.22,1.15,7.6,2.76,11.06,2.3a25.07,25.07,0,0,0,4.91-1.4,13.36,13.36,0,0,1-4.22-1.14A38,38,0,0,1,86.75,426a5.72,5.72,0,0,0,4.61-.92c2.31-1.62.46-5.3.46-5.3-4.15-1.16-7.37-1.62-12.67-4.38S68.32,410.07,65.78,411.91Z" style="fill:#263238;stroke:#263238;stroke-linecap:round;stroke-linejoin:round"></path><path d="M193.21,350.39l-4.84,3.68s-27-42.86-39.63-51.15-23.05-6.91-25.58-1.84-11.75,95.62-11.75,95.62l21,1.39,9.44-50.47,30,39.45s-24.69,17.24-30.91,20.69-39.17,12.91-39.17,12.91l3.23,12.9s26-4.38,43.55-8.52,28.11-6,31.57-8.53,8.75-7.6,10.36-8.07,5.76-3.45,25.35-5.76,34.1-7.14,36.87-12.67.92-18.89.92-20,.23-7.14-1.38-8.29-28.34-1.15-35-3.23S193.21,350.39,193.21,350.39Z" style="fill:#263238;stroke:#263238;stroke-linecap:round;stroke-linejoin:round"></path><path d="M195.13,261.93s-27.83,6.52-29.09,9S139.21,313.09,140,314.34s4,13.54,4,13.54,6-4.26,10.79-4.26,8.77.25,8.77.25l-.75-10.53L180.59,298s15,26.58,16,29.34-.25,10.79-1.26,14.05-3.51,3.76-3.76,6.77l-.25,3s17,7.77,19.81,8.52,6,1.51,6,1.51a17.06,17.06,0,0,1,0,5.26,31,31,0,0,1-2.76,5.77s7.52-8,18.31-8.52,13-.76,15,.5,6,7.27,6,7.27l1,3.76a115.94,115.94,0,0,1,1-17.55c1.25-8.28,1.25-19.56,2.51-24.58s5.51-45.14,5.76-49.65-2.25-15.05-4.51-17.06-31.47-10.2-36.17-10S195.13,261.93,195.13,261.93Z" style="fill:#fff;stroke:#263238;stroke-linecap:round;stroke-linejoin:round"></path><path d="M221.78,349.93s18-2.08,25.81-18.44" style="fill:none;stroke:#263238;stroke-linecap:round;stroke-linejoin:round"></path><path d="M244.36,341.4s-9.21,8.76-18.89,11.52" style="fill:none;stroke:#263238;stroke-linecap:round;stroke-linejoin:round"></path><path d="M198.74,328s3.23,5.3,6.22,7.6" style="fill:none;stroke:#263238;stroke-linecap:round;stroke-linejoin:round"></path><polyline points="173.56 289.01 180.59 298.04 172.56 292.27" style="fill:none;stroke:#263238;stroke-linecap:round;stroke-linejoin:round"></polyline><path d="M162.78,313.34s-6.52-4-12.54-4.77" style="fill:none;stroke:#263238;stroke-linecap:round;stroke-linejoin:round"></path><path d="M152.75,306.07a16.9,16.9,0,0,1,6.52,3.26" style="fill:none;stroke:#263238;stroke-linecap:round;stroke-linejoin:round"></path><line x1="250.05" y1="312.59" x2="241.27" y2="303.31" style="fill:none;stroke:#263238;stroke-linecap:round;stroke-linejoin:round"></line><line x1="250.8" y1="314.84" x2="238.01" y2="308.07" style="fill:none;stroke:#263238;stroke-linecap:round;stroke-linejoin:round"></line><polygon points="213.94 300.05 223.72 282.49 212.18 296.54 208.42 295.03 200.15 280.49 200.15 285 206.92 299.8 210.18 314.09 208.92 351.21 199.39 365.5 200.65 371.77 214.94 365.25 215.44 350.45 213.19 314.59 213.94 300.05" style="fill:#D45C4B;stroke:#263238;stroke-linecap:round;stroke-linejoin:round"></polygon><path d="M194.63,269.2s-1.5,7.53-1.25,11.54S196.13,295,196.13,295s2.51-8.52,4-10,3-3.76,3.76-3.51,11-.1,11-.1,6.83,4.36,8.34,6.62,5.26,8,5.26,8,0-15.55-.25-21.32-1.54-18.27-4.82-18.27S197.89,252.4,194.63,269.2Z" style="fill:#fff;stroke:#263238;stroke-linecap:round;stroke-linejoin:round"></path><path d="M201.65,276.22s2.76,5.77,4.52,9.28,4.26,7,5.26,5.77,3.26-7.77,4.26-14S201.65,276.22,201.65,276.22Z" style="fill:none;stroke:#263238;stroke-linecap:round;stroke-linejoin:round"></path><path d="M189.06,265s5.69,10.5,7.22,12.25a92.29,92.29,0,0,0,11.82,9.41,6.53,6.53,0,0,0,6.78-1.09c1.75-1.75,8.53-14.66,8.75-17.94a44.49,44.49,0,0,0-.22-7s1.53-.88,2.41-5.69,1.53-6.78-3.07-9.41-12.69,1.31-17.28,5.69S188,261.91,188,261.91Z" style="fill:#fff;stroke:#263238;stroke-linecap:round;stroke-linejoin:round"></path><path d="M211.16,226.69s-3.72-5-15.1-2.85-22.75,14.66-23.41,17.94a34.35,34.35,0,0,0,0,8.53L177,246.6s-3.28,7.43-1.75,10.71a57.21,57.21,0,0,0,3.72,6.57l3.28-3.72s3.5,6.56,4.81,7.22l6.35-2.85.87,3.07s3.5-2,7.22-3.94,6.57-7.88,6.57-7.88l-.22,7.66s4.81-.66,6.56-2.41,3.28-7.65,3.28-7.65l2.41,7.22s1.75-6.79,2-9.19.43-3.72.43-3.72a6.8,6.8,0,0,1,3.07,4.37,8.76,8.76,0,0,1-.22,4.38s3.06-5.25,2.84-9.41-.87-6.34-4.37-11.15a37.67,37.67,0,0,0-7-7.44s-1.1-3.72-2.63-5.25-2.62-1.32-2.62-1.32l1.09,5Z" style="fill:#263238;stroke:#263238;stroke-linecap:round;stroke-linejoin:round"></path><path d="M206.55,279.61s1.55,1.68,2.84,1.29,2.71-1.29,2.83-2.19" style="fill:none;stroke:#263238;stroke-linecap:round;stroke-linejoin:round"></path><line x1="207.97" y1="282.96" x2="212.1" y2="282.32" style="fill:none;stroke:#263238;stroke-linecap:round;stroke-linejoin:round"></line><path d="M196.62,272.52a4.85,4.85,0,0,0,5.93-.13" style="fill:none;stroke:#263238;stroke-linecap:round;stroke-linejoin:round"></path><path d="M196,271.23c1.68-1.81,6.71-1.42,6.71-1.42l2.58,2.06,1.29,5.93" style="fill:none;stroke:#263238;stroke-linecap:round;stroke-linejoin:round"></path><path d="M210.55,270.32s3.87,1.42,5.54-1.8" style="fill:none;stroke:#263238;stroke-linecap:round;stroke-linejoin:round"></path><path d="M210.42,267.87a31,31,0,0,1,4.64-1.8,7.66,7.66,0,0,1,3.23,0" style="fill:none;stroke:#263238;stroke-linecap:round;stroke-linejoin:round"></path><path d="M270.86,349.24s.23,12.9.23,24.88a143.61,143.61,0,0,0,1.16,19.59s8.29,1.38,10.36,1.38a28,28,0,0,1,9.45,2.3c3,1.39,7.15,1.85,5.53,3s-3.45.69-6.45.46-5.76-.23-5.76-.23,3.46,2.53,2.53,3.23-2.07-.23-4.14-.7-1.85-.92-4.38-.92-5.07.23-8.07-.92-6-6.68-6.22-8.29-10.6-43.55-10.6-43.55Z" style="fill:#fff;stroke:#263238;stroke-linecap:round;stroke-linejoin:round"></path><line x1="285.38" y1="400.62" x2="277.78" y2="398.78" style="fill:none;stroke:#263238;stroke-linecap:round;stroke-linejoin:round"></line><path d="M246.54,298.54l7,47.15,17.56-1.76s-2.26-16.05-1.76-26.58-2.26-46.39-3.26-48.9-15.05-4-15.05-4" style="fill:#fff;stroke:#263238;stroke-linecap:round;stroke-linejoin:round"></path><path d="M164.29,327.88s6.77,35.36,7.52,37.12,3,24.32,3,25.08-.5,7-.5,7h-2l-.25-5.27-.25-4.76-1.69,12.1-2.41.38v-7.12c0-.58-.19-6-.19-6l-2.21,9.82-.58,1.54-1.73-.1.29-4,.09-8.28h-1.54s-.48,4.91-.38,5.59,0,5.29,0,5.29l-1.64-.67-.67-6-.2-8.18,4-17.91-17.52-34.27S151.33,315.24,164.29,327.88Z" style="fill:#fff;stroke:#263238;stroke-linecap:round;stroke-linejoin:round"></path><path d="M140,322.62l5,10a12.47,12.47,0,0,1,7-4.77c4.51-1,12.29,0,12.29,0l1-9.78S147.48,314.34,140,322.62Z" style="fill:#fff;stroke:#263238;stroke-linecap:round;stroke-linejoin:round"></path><path d="M250.59,342.55,254,353.38a56.07,56.07,0,0,0,7.84.69c3.68,0,11.52-2.76,11.52-2.76V338.17S260.49,341.17,250.59,342.55Z" style="fill:#fff;stroke:#263238;stroke-linecap:round;stroke-linejoin:round"></path><path d="M178.46,385.64S216.71,373,223.4,369.05s22.12-4.84,24.19,1.61" style="fill:none;stroke:#949494;stroke-linecap:round;stroke-linejoin:round"></path><path d="M189.52,355.92s5.76,5.07,8.3,9.91" style="fill:none;stroke:#263238;stroke-linecap:round;stroke-linejoin:round"></path></g><g id="freepik--Sheets--inject-12"><polygon points="247.33 422.36 213.99 433.72 266.27 449.26 293.17 432.97 247.33 422.36" style="fill:#fff;stroke:#263238;stroke-linecap:round;stroke-linejoin:round"></polygon><path d="M216.64,420.46l35.23,12.88s-25,10.61-30.31,12.13A78,78,0,0,0,210.2,450l-34.1-16.68S212.09,422.74,216.64,420.46Z" style="fill:#fff;stroke:#263238;stroke-linecap:round;stroke-linejoin:round"></path><path d="M361.2,428.88l35.23,12.88s-25,10.61-30.31,12.12a79.25,79.25,0,0,0-11.36,4.55l-34.1-16.67S356.65,431.15,361.2,428.88Z" style="fill:#fff;stroke:#263238;stroke-linecap:round;stroke-linejoin:round"></path><path d="M154.88,429.93s22,13.27,35.61,16.3c0,0-23.49,14.77-34.85,17.8,0,0-31.83-10.23-40.92-16.29C114.72,447.74,143.13,436,154.88,429.93Z" style="fill:#fff;stroke:#263238;stroke-linecap:round;stroke-linejoin:round"></path><path d="M76.83,330.67a74.08,74.08,0,0,1-9.48,15.91C60.91,354.91,55.61,361,55.61,361a70.8,70.8,0,0,0,16.67,5.3,107.3,107.3,0,0,0,18.19,1.9s11.74-10.61,15.53-17.43a125.18,125.18,0,0,1,8.72-13.26S83.27,335.59,76.83,330.67Z" style="fill:#fff;stroke:#263238;stroke-linecap:round;stroke-linejoin:round"></path><path d="M391.19,159.34a74.08,74.08,0,0,1-9.48,15.91c-6.44,8.33-11.74,14.4-11.74,14.4a70.8,70.8,0,0,0,16.67,5.3,107.3,107.3,0,0,0,18.19,1.9s11.74-10.61,15.53-17.43a125.18,125.18,0,0,1,8.72-13.26S397.63,164.26,391.19,159.34Z" style="fill:#fff;stroke:#263238;stroke-linecap:round;stroke-linejoin:round"></path><path d="M122.1,236.13s-10.25,10.26-14.52,20.51A125.24,125.24,0,0,0,101.17,278l35,10.25s1.28-14.1,5.56-24.35,14.52-22.21,14.52-22.21S137.06,232.29,122.1,236.13Z" style="fill:#fff;stroke:#263238;stroke-linecap:round;stroke-linejoin:round"></path><path d="M308.73,29.62s-10.25,10.25-14.52,20.5a124.44,124.44,0,0,0-6.41,21.37l35,10.25s1.28-14.1,5.55-24.35,14.53-22.22,14.53-22.22S323.68,25.77,308.73,29.62Z" style="fill:#fff;stroke:#263238;stroke-linecap:round;stroke-linejoin:round"></path><path d="M47.74,165.85a74,74,0,0,1-9.47,15.91c-6.44,8.34-11.75,14.4-11.75,14.4a71,71,0,0,0,16.68,5.31,107.78,107.78,0,0,0,18.18,1.89s11.75-10.61,15.54-17.43a126,126,0,0,1,8.71-13.26S54.18,170.78,47.74,165.85Z" style="fill:#fff;stroke:#263238;stroke-linecap:round;stroke-linejoin:round"></path></g></svg>